<svg width="50" height="55" viewBox="0 0 50 55" fill="none" xmlns="http://www.w3.org/2000/svg">
<path fill-rule="evenodd" clip-rule="evenodd" d="M30.5831 0.22668C35.8671 0.914588 40.3408 2.65414 44.363 6.14932L41.5079 12.1522C38.4813 9.52211 33.6938 7.39213 29.7176 6.87448C25.7414 6.35683 21.7008 7.02349 18.1017 8.79101C14.5025 10.5585 11.5046 13.3484 9.48325 16.8114C7.46189 20.2744 6.43092 24.2545 6.66177 28.2576C6.9656 33.5262 9.66322 37.994 9.66322 37.994L6.44215 44.3629C2.56222 39.7509 0.351717 33.9655 0.0449375 28.6457C-0.261842 23.326 1.00729 18.0339 3.69349 13.4319C6.37968 8.82989 10.3636 5.12243 15.1466 2.77356C19.9295 0.424696 25.2991 -0.461228 30.5831 0.22668ZM23.4263 13.0307H31.479L42.9723 37.7012C40.8494 41.5079 37.1891 43.4113 37.1891 43.4113L27.1598 21.303L12.6424 52.562H4.39267L23.4263 13.0307ZM31.4055 53.8065C25.8418 54.4654 20.0878 53.8579 14.8609 51.1711L17.6427 45.3878C21.576 47.4096 26.0614 48.1697 30.5441 47.3196C37.0923 46.5618 40.7207 42.7062 43.7451 39.4924L43.7773 39.4581L46.8114 45.7958C42.7837 50.0756 37.1974 52.8095 31.4055 53.8065ZM47.3645 46.9984L50 52.562H41.3616L41.0688 51.9764C41.0688 51.9764 45.0951 49.707 47.3645 46.9984Z" fill="#008037"/>
<path fill-rule="evenodd" clip-rule="evenodd" d="M30.5831 0.22668C35.8671 0.914588 40.3408 2.65414 44.363 6.14932L41.5079 12.1522C38.4813 9.52211 33.6938 7.39213 29.7176 6.87448C25.7414 6.35683 21.7008 7.02349 18.1017 8.79101C14.5025 10.5585 11.5046 13.3484 9.48325 16.8114C7.46189 20.2744 6.43092 24.2545 6.66177 28.2576C6.9656 33.5262 9.66322 37.994 9.66322 37.994L6.44215 44.3629C2.56222 39.7509 0.351717 33.9655 0.0449375 28.6457C-0.261842 23.326 1.00729 18.0339 3.69349 13.4319C6.37968 8.82989 10.3636 5.12243 15.1466 2.77356C19.9295 0.424696 25.2991 -0.461228 30.5831 0.22668ZM23.4263 13.0307H31.479L42.9723 37.7012C40.8494 41.5079 37.1891 43.4113 37.1891 43.4113L27.1598 21.303L12.6424 52.562H4.39267L23.4263 13.0307ZM31.4055 53.8065C25.8418 54.4654 20.0878 53.8579 14.8609 51.1711L17.6427 45.3878C21.576 47.4096 26.0614 48.1697 30.5441 47.3196C37.0923 46.5618 40.7207 42.7062 43.7451 39.4924L43.7773 39.4581L46.8114 45.7958C42.7837 50.0756 37.1974 52.8095 31.4055 53.8065ZM47.3645 46.9984L50 52.562H41.3616L41.0688 51.9764C41.0688 51.9764 45.0951 49.707 47.3645 46.9984Z" fill="url(#paint0_linear_162_1712)" fill-opacity="0.4"/>
<defs>
<linearGradient id="paint0_linear_162_1712" x1="25.0129" y1="0.0129417" x2="25.0129" y2="53.7844" gradientUnits="userSpaceOnUse">
<stop stop-color="#161616" stop-opacity="0"/>
<stop offset="1" stop-color="#161616"/>
</linearGradient>
</defs>
</svg>
