<svg width="20" height="20" viewBox="0 0 20 20" fill="none" xmlns="http://www.w3.org/2000/svg">
<path fill-rule="evenodd" clip-rule="evenodd" d="M19.2785 2.13568C19.6691 1.74515 19.6691 1.11199 19.2785 0.721465C18.888 0.33094 18.2548 0.33094 17.8643 0.721465L10 8.58579L2.13568 0.721465C1.74515 0.33094 1.11199 0.33094 0.721465 0.721465C0.33094 1.11199 0.33094 1.74515 0.721465 2.13568L8.58579 10L0.721465 17.8643C0.33094 18.2548 0.33094 18.888 0.721465 19.2785C1.11199 19.6691 1.74515 19.6691 2.13568 19.2785L10 11.4142L17.8643 19.2785C18.2548 19.6691 18.888 19.6691 19.2785 19.2785C19.6691 18.888 19.6691 18.2548 19.2785 17.8643L11.4142 10L19.2785 2.13568Z" fill="#E8E8E8"/>
</svg>
