<svg width="11" height="11" viewBox="0 0 11 11" fill="none" xmlns="http://www.w3.org/2000/svg">
<path fill-rule="evenodd" clip-rule="evenodd" d="M4.24275 1.10227C5.11764 0.904598 6.03299 0.995035 6.85229 1.36009C7.10452 1.47248 7.40011 1.35911 7.5125 1.10688C7.62489 0.85464 7.51152 0.559052 7.25929 0.446662C6.24302 -0.00615999 5.1076 -0.11834 4.02237 0.126854C2.93714 0.372048 1.96024 0.961478 1.23737 1.80724C0.5145 2.65299 0.0843885 3.70976 0.0111839 4.81994C-0.0620206 5.93011 0.225603 7.03421 0.83116 7.96756C1.43672 8.90092 2.32776 9.61352 3.3714 9.99909C4.41504 10.3847 5.55536 10.4225 6.62228 10.1071C7.68921 9.79163 8.62558 9.13973 9.29175 8.24863C9.95791 7.35752 10.3182 6.27495 10.3188 5.16236V5.16207V4.73341C10.3188 4.45727 10.095 4.23341 9.81882 4.23341C9.54267 4.23341 9.31882 4.45727 9.31882 4.73341V5.16179C9.3183 6.05873 9.02786 6.93148 8.49082 7.64987C7.95377 8.36826 7.19888 8.89381 6.33875 9.14812C5.47861 9.40244 4.55931 9.3719 3.71795 9.06106C2.87659 8.75022 2.15825 8.17574 1.67006 7.42329C1.18188 6.67084 0.950001 5.78074 1.00902 4.88573C1.06803 3.99073 1.41478 3.13879 1.99754 2.45696C2.58031 1.77512 3.36786 1.29994 4.24275 1.10227ZM10.1725 1.78787C10.3677 1.59251 10.3675 1.27592 10.1721 1.08076C9.97678 0.885596 9.66019 0.885754 9.46503 1.08111L5.15918 5.39127L4.11508 4.34718C3.91982 4.15192 3.60324 4.15192 3.40798 4.34718C3.21272 4.54244 3.21272 4.85903 3.40798 5.05429L4.8058 6.45211C4.8996 6.54591 5.02683 6.59859 5.15948 6.59856C5.29213 6.59852 5.41933 6.54578 5.51308 6.45193L10.1725 1.78787Z" fill="#1E1E1E"/>
</svg>
