<svg width="20" height="20" viewBox="0 0 20 20" fill="none" xmlns="http://www.w3.org/2000/svg">
<rect x="0.55" y="0.55" width="18.5401" height="18.4582" rx="4.95" stroke="#1E1E1E" stroke-width="1.1"/>
<path fill-rule="evenodd" clip-rule="evenodd" d="M10.5263 5.67552C10.3194 5.45305 9.97143 5.44036 9.74896 5.64718C9.52648 5.854 9.5138 6.20201 9.72062 6.42448L12.5619 9.48079H6.05C5.74624 9.48079 5.5 9.72703 5.5 10.0308C5.5 10.3345 5.74624 10.5808 6.05 10.5808H12.094L9.72062 13.1337C9.5138 13.3562 9.52648 13.7042 9.74896 13.911C9.97143 14.1179 10.3194 14.1052 10.5263 13.8827L13.993 10.1536C14.1892 9.9425 14.1892 9.61572 13.993 9.40463L10.5263 5.67552Z" fill="#1E1E1E"/>
</svg>
