<svg width="18" height="17" viewBox="0 0 18 17" fill="none" xmlns="http://www.w3.org/2000/svg">
<path fill-rule="evenodd" clip-rule="evenodd" d="M5.17881 1.01074C3.2614 1.01074 1.70703 2.56511 1.70703 4.48252V12.4261C1.70703 14.3435 3.2614 15.8979 5.17881 15.8979H13.1224C15.0398 15.8979 16.5942 14.3435 16.5942 12.4261V4.48252C16.5942 2.56511 15.0398 1.01074 13.1224 1.01074H5.17881ZM0.707031 4.48252C0.707031 2.01283 2.70912 0.0107422 5.17881 0.0107422H13.1224C15.5921 0.0107422 17.5942 2.01283 17.5942 4.48252V12.4261C17.5942 14.8958 15.5921 16.8979 13.1224 16.8979H5.17881C2.70912 16.8979 0.707031 14.8958 0.707031 12.4261V4.48252ZM9.57777 5.77116C9.0207 5.68855 8.45177 5.78371 7.95189 6.04308C7.45202 6.30246 7.04666 6.71285 6.79347 7.21588C6.54027 7.71892 6.45215 8.28898 6.54161 8.84499C6.63108 9.401 6.8936 9.91464 7.29181 10.3129C7.69003 10.7111 8.20367 10.9736 8.75967 11.063C9.31568 11.1525 9.88575 11.0644 10.3888 10.8112C10.8918 10.558 11.3022 10.1526 11.5616 9.65277C11.821 9.15289 11.9161 8.58396 11.8335 8.02689C11.7492 7.45866 11.4845 6.93259 11.0783 6.5264C10.6721 6.1202 10.146 5.85542 9.57777 5.77116ZM7.49132 5.15546C8.1779 4.79921 8.95932 4.66852 9.72445 4.78198C10.5049 4.89771 11.2275 5.26139 11.7854 5.81929C12.3433 6.3772 12.707 7.09974 12.8227 7.88021C12.9361 8.64534 12.8055 9.42676 12.4492 10.1133C12.093 10.7999 11.5293 11.3567 10.8384 11.7044C10.1475 12.0522 9.36448 12.1732 8.6008 12.0503C7.83713 11.9275 7.13165 11.5669 6.5847 11.02C6.03776 10.473 5.6772 9.76753 5.55432 9.00386C5.43143 8.24018 5.55247 7.45721 5.90023 6.76629C6.24799 6.07538 6.80475 5.51171 7.49132 5.15546ZM13.5199 3.58532C13.2437 3.58532 13.0199 3.80918 13.0199 4.08532C13.0199 4.36146 13.2437 4.58532 13.5199 4.58532H13.5288C13.805 4.58532 14.0288 4.36146 14.0288 4.08532C14.0288 3.80918 13.805 3.58532 13.5288 3.58532H13.5199Z" fill="#E8E8E8"/>
</svg>
