<svg width="20" height="21" viewBox="0 0 20 21" fill="none" xmlns="http://www.w3.org/2000/svg">
<rect x="0.55" y="1.0229" width="18.5401" height="18.4582" rx="4.95" stroke="#E8E8E8" stroke-width="1.1"/>
<path fill-rule="evenodd" clip-rule="evenodd" d="M10.5263 6.14842C10.3194 5.92595 9.97143 5.91326 9.74896 6.12008C9.52648 6.3269 9.5138 6.67491 9.72062 6.89738L12.5619 9.95369H6.05C5.74624 9.95369 5.5 10.1999 5.5 10.5037C5.5 10.8074 5.74624 11.0537 6.05 11.0537H12.094L9.72062 13.6066C9.5138 13.8291 9.52648 14.1771 9.74896 14.3839C9.97143 14.5908 10.3194 14.5781 10.5263 14.3556L13.993 10.6265C14.1892 10.4154 14.1892 10.0886 13.993 9.87753L10.5263 6.14842Z" fill="#E8E8E8"/>
</svg>
