<svg width="22" height="19" viewBox="0 0 22 19" fill="none" xmlns="http://www.w3.org/2000/svg">
<path d="M20.7031 1.47282C19.8503 2.07441 18.906 2.53453 17.9066 2.83546C17.3702 2.21872 16.6574 1.78159 15.8644 1.58319C15.0715 1.38479 14.2368 1.4347 13.4732 1.72616C12.7096 2.01762 12.0539 2.53657 11.5948 3.21283C11.1357 3.88909 10.8954 4.69002 10.9064 5.5073V6.39792C9.34124 6.4385 7.79036 6.09138 6.39186 5.38747C4.99336 4.68356 3.79065 3.64471 2.89085 2.36344C2.89085 2.36344 -0.671609 10.379 7.34392 13.9414C5.50972 15.1865 3.32472 15.8108 1.10962 15.7226C9.12514 20.1757 18.9219 15.7226 18.9219 5.48059C18.9211 5.23251 18.8972 4.98504 18.8506 4.74138C19.7596 3.84497 20.4011 2.71319 20.7031 1.47282Z" stroke="#E8E8E8" stroke-width="1.15256" stroke-linecap="round" stroke-linejoin="round"/>
</svg>
