<svg width="430" height="417" viewBox="0 0 430 417" fill="none" xmlns="http://www.w3.org/2000/svg">
<path d="M285.954 55.7641C267.19 66.4994 253.96 84.5517 237.915 99.0393C218.104 116.928 193.552 129.519 167.465 135.17C146.004 139.82 123.507 139.886 102.788 147.161C62.4023 161.343 34.6802 203.434 33.9449 246.23C33.2096 289.026 57.5932 330.484 93.3761 353.973C105.527 361.949 118.909 368.047 132.9 371.985C159.22 379.393 187.126 379.065 214.321 376.234C261.297 371.343 310.539 344.669 340.144 307.059C353.349 290.283 364.496 271.901 373.377 252.49C387.96 220.615 396.453 185.917 397.905 150.88C399.152 120.773 397.88 87.4121 374.024 65.4786C350.223 43.5942 313.953 39.7448 285.954 55.7641Z" fill="#008037"/>
<path opacity="0.7" d="M285.954 55.7641C267.19 66.4994 253.96 84.5517 237.915 99.0393C218.104 116.928 193.552 129.519 167.465 135.17C146.004 139.82 123.507 139.886 102.788 147.161C62.4023 161.343 34.6802 203.434 33.9449 246.23C33.2096 289.026 57.5932 330.484 93.3761 353.973C105.527 361.949 118.909 368.047 132.9 371.985C159.22 379.393 187.126 379.065 214.321 376.234C261.297 371.343 310.539 344.669 340.144 307.059C353.349 290.283 364.496 271.901 373.377 252.49C387.96 220.615 396.453 185.917 397.905 150.88C399.152 120.773 397.88 87.4121 374.024 65.4786C350.223 43.5942 313.953 39.7448 285.954 55.7641Z" fill="#EBEBEB"/>
<path d="M236.588 400.378C321.765 400.378 390.815 381.782 390.815 358.843C390.815 335.904 321.765 317.309 236.588 317.309C151.41 317.309 82.3604 335.904 82.3604 358.843C82.3604 381.782 151.41 400.378 236.588 400.378Z" fill="#008037"/>
<path opacity="0.5" d="M236.588 400.378C321.765 400.378 390.815 381.782 390.815 358.843C390.815 335.904 321.765 317.309 236.588 317.309C151.41 317.309 82.3604 335.904 82.3604 358.843C82.3604 381.782 151.41 400.378 236.588 400.378Z" fill="#EBEBEB"/>
<path d="M263.087 67.3044V168.943C263.087 173.195 259.641 176.641 255.389 176.641H74.0748C69.823 176.641 66.377 173.195 66.377 168.943V67.3044C66.377 63.0526 69.823 59.6066 74.0748 59.6066H255.389C259.641 59.6066 263.087 63.0526 263.087 67.3044Z" fill="#EBEBEB"/>
<path d="M263.087 67.3044V70.3523H66.377V67.3044C66.377 63.0526 69.823 59.6066 74.0748 59.6066H255.389C259.641 59.6066 263.087 63.0526 263.087 67.3044Z" fill="#008037"/>
<path d="M263.087 67.3044V168.943C263.087 173.195 259.641 176.641 255.389 176.641H74.0748C69.823 176.641 66.377 173.195 66.377 168.943V67.3044C66.377 63.0526 69.823 59.6066 74.0748 59.6066H255.389C259.641 59.6066 263.087 63.0526 263.087 67.3044Z" stroke="#263238" stroke-width="1.3871" stroke-miterlimit="10" stroke-linecap="round" stroke-linejoin="round"/>
<path d="M263.087 67.3044V70.3523H66.377V67.3044C66.377 63.0526 69.823 59.6066 74.0748 59.6066H255.389C259.641 59.6066 263.087 63.0526 263.087 67.3044Z" stroke="#263238" stroke-width="1.3871" stroke-miterlimit="10" stroke-linecap="round" stroke-linejoin="round"/>
<path d="M88.4683 64.9788C88.4683 66.0641 87.5885 66.9439 86.5032 66.9439C85.4179 66.9439 84.5381 66.0641 84.5381 64.9788C84.5381 63.8934 85.4179 63.0137 86.5032 63.0137C87.5885 63.0137 88.4683 63.8934 88.4683 64.9788Z" fill="#263238"/>
<path d="M98.7456 64.9788C98.7456 66.0641 97.8658 66.9439 96.7805 66.9439C95.6952 66.9439 94.8154 66.0641 94.8154 64.9788C94.8154 63.8934 95.6952 63.0137 96.7805 63.0137C97.8658 63.0137 98.7456 63.8934 98.7456 64.9788Z" fill="#263238"/>
<path d="M107.058 66.9439C108.143 66.9439 109.023 66.0641 109.023 64.9788C109.023 63.8935 108.143 63.0137 107.058 63.0137C105.973 63.0137 105.093 63.8935 105.093 64.9788C105.093 66.0641 105.973 66.9439 107.058 66.9439Z" fill="#263238"/>
<path d="M136.831 111.971H81.2164C79.4637 111.971 78.043 110.55 78.043 108.798V82.0439C78.043 80.2912 79.4637 78.8705 81.2164 78.8705H136.831C138.584 78.8705 140.004 80.2912 140.004 82.0439V108.798C140.004 110.55 138.584 111.971 136.831 111.971Z" stroke="#263238" stroke-width="1.3871" stroke-miterlimit="10" stroke-linecap="round" stroke-linejoin="round"/>
<path d="M81.6865 107.81H135.413" stroke="#263238" stroke-width="1.3871" stroke-miterlimit="10" stroke-linecap="round" stroke-linejoin="round"/>
<path d="M91.9081 101.49H85.6748V107.723H91.9081V101.49Z" fill="#008037" stroke="#263238" stroke-width="1.3871" stroke-miterlimit="10"/>
<path d="M101.034 93.2936H94.8008V107.81H101.034V93.2936Z" fill="#008037" stroke="#263238" stroke-width="1.3871" stroke-miterlimit="10"/>
<path d="M111.311 95.7902H105.078V107.956H111.311V95.7902Z" fill="#008037" stroke="#263238" stroke-width="1.3871" stroke-miterlimit="10"/>
<path d="M122.109 83.6737H115.876V107.54H122.109V83.6737Z" fill="#008037" stroke="#263238" stroke-width="1.3871" stroke-miterlimit="10"/>
<path d="M132.906 83.8569H126.673V107.723H132.906V83.8569Z" fill="#008037" stroke="#263238" stroke-width="1.3871" stroke-miterlimit="10"/>
<path d="M216.821 113.686C226.448 113.686 234.253 105.881 234.253 96.2538C234.253 86.6263 226.448 78.8216 216.821 78.8216C207.193 78.8216 199.389 86.6263 199.389 96.2538C199.389 105.881 207.193 113.686 216.821 113.686Z" fill="#008037" stroke="#263238" stroke-width="1.3871" stroke-miterlimit="10"/>
<path d="M218.247 107.129V108.914H215.326V107.129C212.859 106.512 211.269 104.434 211.269 101.707V100.895L214.58 100.538V101.382C214.58 103.038 215.423 104.044 216.787 104.044C218.15 104.044 218.995 103.2 218.995 101.869C218.995 100.278 217.502 98.9147 215.748 97.4536C213.671 95.7336 211.593 93.6876 211.593 90.7989C211.593 87.9747 212.956 85.9623 215.326 85.3775V83.5921H218.247V85.3775C220.649 85.9296 222.045 87.942 222.045 90.8307V91.4147L218.734 91.7716V91.1223C218.734 89.3696 218.052 88.4606 216.852 88.4606C215.651 88.4606 214.969 89.207 214.969 90.6355C214.969 92.2265 216.495 93.5569 218.216 95.0507C220.261 96.8034 222.37 98.8167 222.37 101.705C222.37 104.466 220.747 106.544 218.247 107.129Z" fill="#263238"/>
<path d="M76.5928 128.885H81.6866" stroke="#263238" stroke-width="1.3871" stroke-miterlimit="10" stroke-linecap="round" stroke-linejoin="round"/>
<path d="M76.5928 138.725H81.6866" stroke="#263238" stroke-width="1.3871" stroke-miterlimit="10" stroke-linecap="round" stroke-linejoin="round"/>
<path d="M76.5928 148.564H81.6866" stroke="#263238" stroke-width="1.3871" stroke-miterlimit="10" stroke-linecap="round" stroke-linejoin="round"/>
<path d="M76.5928 158.403H81.6866" stroke="#263238" stroke-width="1.3871" stroke-miterlimit="10" stroke-linecap="round" stroke-linejoin="round"/>
<path d="M92.9053 165.84V161.885" stroke="#263238" stroke-width="1.3871" stroke-miterlimit="10" stroke-linecap="round" stroke-linejoin="round"/>
<path d="M100.975 165.84V161.885" stroke="#263238" stroke-width="1.3871" stroke-miterlimit="10" stroke-linecap="round" stroke-linejoin="round"/>
<path d="M109.044 165.84V161.885" stroke="#263238" stroke-width="1.3871" stroke-miterlimit="10" stroke-linecap="round" stroke-linejoin="round"/>
<path d="M117.112 165.84V161.885" stroke="#263238" stroke-width="1.3871" stroke-miterlimit="10" stroke-linecap="round" stroke-linejoin="round"/>
<path d="M125.182 165.84V161.885" stroke="#263238" stroke-width="1.3871" stroke-miterlimit="10" stroke-linecap="round" stroke-linejoin="round"/>
<path d="M133.25 165.84V161.885" stroke="#263238" stroke-width="1.3871" stroke-miterlimit="10" stroke-linecap="round" stroke-linejoin="round"/>
<path d="M141.319 165.84V161.885" stroke="#263238" stroke-width="1.3871" stroke-miterlimit="10" stroke-linecap="round" stroke-linejoin="round"/>
<path d="M149.389 165.84V161.885" stroke="#263238" stroke-width="1.3871" stroke-miterlimit="10" stroke-linecap="round" stroke-linejoin="round"/>
<path d="M157.457 165.84V161.885" stroke="#263238" stroke-width="1.3871" stroke-miterlimit="10" stroke-linecap="round" stroke-linejoin="round"/>
<path d="M165.526 165.84V161.885" stroke="#263238" stroke-width="1.3871" stroke-miterlimit="10" stroke-linecap="round" stroke-linejoin="round"/>
<path d="M173.596 165.84V161.885" stroke="#263238" stroke-width="1.3871" stroke-miterlimit="10" stroke-linecap="round" stroke-linejoin="round"/>
<path d="M181.665 165.84V161.885" stroke="#263238" stroke-width="1.3871" stroke-miterlimit="10" stroke-linecap="round" stroke-linejoin="round"/>
<path d="M189.734 165.84V161.885" stroke="#263238" stroke-width="1.3871" stroke-miterlimit="10" stroke-linecap="round" stroke-linejoin="round"/>
<path d="M197.803 165.84V161.885" stroke="#263238" stroke-width="1.3871" stroke-miterlimit="10" stroke-linecap="round" stroke-linejoin="round"/>
<path d="M205.871 165.84V161.885" stroke="#263238" stroke-width="1.3871" stroke-miterlimit="10" stroke-linecap="round" stroke-linejoin="round"/>
<path d="M213.635 165.84V161.885" stroke="#263238" stroke-width="1.3871" stroke-miterlimit="10" stroke-linecap="round" stroke-linejoin="round"/>
<path d="M221.398 165.84V161.885" stroke="#263238" stroke-width="1.3871" stroke-miterlimit="10" stroke-linecap="round" stroke-linejoin="round"/>
<path d="M229.161 165.84V161.885" stroke="#263238" stroke-width="1.3871" stroke-miterlimit="10" stroke-linecap="round" stroke-linejoin="round"/>
<path d="M249.699 122.86V161.099C249.699 163.718 247.033 165.839 243.743 165.839H82.5493C80.3623 165.839 78.4462 164.902 77.4159 163.502C76.8956 162.798 76.5938 161.978 76.5938 161.099V122.86C76.5938 120.242 79.2598 118.121 82.5501 118.121H243.744C247.033 118.121 249.699 120.242 249.699 122.86Z" stroke="#008037" stroke-width="1.3871" stroke-miterlimit="10" stroke-linecap="round" stroke-linejoin="round"/>
<path d="M200.641 48.8095L149.185 118.121L129.506 144.628L108.012 130.94L81.7121 165.84H81.3311C79.5913 165.84 78.0665 164.903 77.2461 163.503L106.802 124.278L128.278 137.949L142.994 118.121L196.645 45.852L200.641 48.8095Z" fill="#263238"/>
<path d="M187.584 49.6882L206.501 38.2201L201.268 58.0517L197.935 48.8772L187.584 49.6882Z" fill="#263238"/>
<path d="M366.554 267.92H64.1027L30.2041 298.059" stroke="#263238" stroke-width="1.3871" stroke-miterlimit="10" stroke-linecap="round" stroke-linejoin="round"/>
<path d="M64.2939 246.813V188.202" stroke="#263238" stroke-width="1.3871" stroke-miterlimit="10" stroke-linecap="round" stroke-linejoin="round"/>
<path d="M64.2939 264.517V253.18" stroke="#263238" stroke-width="1.3871" stroke-miterlimit="10" stroke-linecap="round" stroke-linejoin="round"/>
<path d="M348.348 125.332C348.348 125.332 348.348 121.791 343.387 116.829C338.426 111.868 335.244 109.039 335.244 109.039C335.244 109.039 332.763 117.183 337.364 122.143C340.751 125.641 344.425 128.848 348.348 131.73V125.332H348.348Z" fill="#008037"/>
<path d="M341.154 147.454C341.154 147.454 341.154 143.913 336.192 138.952C331.231 133.99 328.05 131.163 328.05 131.163C328.05 131.163 325.569 139.306 330.17 144.267C333.559 147.762 337.233 150.969 341.154 153.855V147.454Z" fill="#008037"/>
<path d="M348.037 131.366C348.037 131.366 348.409 127.843 353.867 123.433C359.325 119.022 362.789 116.548 362.789 116.548C362.789 116.548 364.394 124.937 359.289 129.353C355.553 132.466 351.563 135.26 347.359 137.705L348.037 131.366Z" fill="#008037"/>
<path d="M339.344 157.491C339.344 157.491 340.087 154.027 345.971 150.217C351.855 146.406 355.558 144.303 355.558 144.303C355.558 144.303 356.277 152.787 350.765 156.675C346.723 159.376 342.461 161.732 338.025 163.721L339.344 157.491Z" fill="#008037"/>
<path d="M340.979 185.971C340.979 185.971 340.979 182.429 345.935 177.474C350.89 172.519 354.084 169.685 354.084 169.685C354.084 169.685 356.564 177.833 351.957 182.789C348.573 186.286 344.902 189.493 340.98 192.376V185.971H340.979Z" fill="#008037"/>
<path d="M340.895 192.926C340.895 192.926 341.398 189.421 337.192 183.807C332.986 178.193 330.235 174.933 330.235 174.933C330.235 174.933 326.64 182.644 330.481 188.21C333.338 192.144 336.519 195.831 339.99 199.235L340.895 192.926Z" fill="#008037"/>
<path d="M336.007 213.527C336.007 213.527 336.007 209.985 340.962 205.03C345.917 200.075 349.111 197.241 349.111 197.241C349.111 197.241 351.591 205.39 346.984 210.345C343.601 213.842 339.928 217.049 336.007 219.932V213.527Z" fill="#008037"/>
<path d="M339.313 232.209C339.313 232.209 338.42 228.782 341.968 222.719C345.515 216.655 347.876 213.131 347.876 213.131C347.876 213.131 352.334 220.387 349.14 226.349C346.746 230.582 344.003 234.606 340.937 238.381L339.313 232.209Z" fill="#008037"/>
<path d="M348.799 124.452C348.547 128.138 348.093 131.809 347.438 135.447C345.479 145.573 340.577 152.11 338.618 161.253C336.659 170.397 342.285 182.189 340.781 193.94C339.277 205.69 334.699 212.221 335.988 220.064C337.276 227.907 344.154 249.136 344.154 249.136" stroke="#263238" stroke-width="1.63331" stroke-linecap="round" stroke-linejoin="round"/>
<path d="M347.989 133.721L353.334 129.617" stroke="#263238" stroke-width="1.63331" stroke-linecap="round" stroke-linejoin="round"/>
<path d="M348.235 128.999L346 125.021" stroke="#263238" stroke-width="1.63331" stroke-linecap="round" stroke-linejoin="round"/>
<path d="M338.918 160.811C338.918 160.811 343.388 157.455 347.989 154.1" stroke="#263238" stroke-width="1.63331" stroke-linecap="round" stroke-linejoin="round"/>
<path d="M341.153 153.812C341.153 153.812 337.425 146.502 333.201 141.654" stroke="#263238" stroke-width="1.63331" stroke-linecap="round" stroke-linejoin="round"/>
<path d="M341.152 191.01C343.713 186.303 346.943 181.992 350.74 178.211" stroke="#263238" stroke-width="1.63331" stroke-linecap="round" stroke-linejoin="round"/>
<path d="M340.284 195.983C338.926 192.783 337.305 189.7 335.437 186.767C332.824 182.914 332.44 182.417 332.44 182.417" stroke="#263238" stroke-width="1.63331" stroke-linecap="round" stroke-linejoin="round"/>
<path d="M336.007 220.041C337.139 217.226 338.485 214.501 340.033 211.891C341.582 209.473 343.328 207.186 345.252 205.054" stroke="#263238" stroke-width="1.63331" stroke-linecap="round" stroke-linejoin="round"/>
<path d="M340.931 238.376C340.931 238.376 340.41 234.133 342.274 230.532C344.137 226.932 346.246 222.203 347.122 220.346" stroke="#263238" stroke-width="1.63331" stroke-linecap="round" stroke-linejoin="round"/>
<path d="M315.879 172.65C315.879 172.65 315.49 170.433 318.066 166.784C320.643 163.135 322.327 161.002 322.327 161.002C322.327 161.002 324.766 165.838 322.416 169.451C320.671 172.007 318.715 174.412 316.568 176.642L315.879 172.65Z" fill="#008037"/>
<path d="M322.794 185.743C322.794 185.743 322.404 183.52 324.975 179.871C327.545 176.222 329.241 174.1 329.241 174.1C329.241 174.1 331.68 178.942 329.331 182.549C327.587 185.106 325.631 187.511 323.483 189.739L322.794 185.743Z" fill="#008037"/>
<path d="M316.73 176.402C316.73 176.402 316.131 174.233 312.212 172.064C308.293 169.895 305.867 168.708 305.867 168.708C305.867 168.708 305.771 174.1 309.462 176.365C312.145 177.908 314.951 179.225 317.851 180.302L316.73 176.402Z" fill="#008037"/>
<path d="M325.016 191.837C325.016 191.837 324.171 189.745 320.067 187.996C315.962 186.247 313.403 185.336 313.403 185.336C313.403 185.336 313.876 190.729 317.771 192.569C320.6 193.823 323.528 194.839 326.525 195.606L325.016 191.837Z" fill="#008037"/>
<path d="M327.083 209.878C327.083 209.878 326.7 207.655 323.051 205.084C319.402 202.514 317.095 201.082 317.095 201.082C317.095 201.082 316.424 206.475 319.851 209.069C322.353 210.885 325.003 212.489 327.773 213.862L327.083 209.878Z" fill="#008037"/>
<path d="M327.888 214.228C327.888 214.228 327.193 212.083 329.218 208.11C331.243 204.137 332.621 201.789 332.621 201.789C332.621 201.789 335.719 206.235 333.909 210.141C332.536 212.918 330.932 215.576 329.116 218.086L327.888 214.228Z" fill="#008037"/>
<path d="M334.112 232.144C334.112 232.144 334.37 229.903 337.864 227.129C341.357 224.354 343.58 222.797 343.58 222.797C343.58 222.797 344.557 228.124 341.286 230.928C338.891 232.886 336.338 234.643 333.652 236.177L334.112 232.144Z" fill="#008037"/>
<path d="M333.19 226.619C333.19 226.619 332.806 224.396 329.157 221.826C325.508 219.255 323.208 217.823 323.208 217.823C323.208 217.823 322.537 223.216 325.958 225.81C328.461 227.627 331.113 229.23 333.885 230.604L333.19 226.619Z" fill="#008037"/>
<path d="M333.141 238.693C333.141 238.693 333.333 236.446 330.457 233.037C327.581 229.628 325.712 227.644 325.712 227.644C325.712 227.644 323.698 232.677 326.353 236.068C328.313 238.467 330.47 240.697 332.801 242.737L333.141 238.693Z" fill="#008037"/>
<path d="M315.495 172.129C316.053 174.416 316.737 176.671 317.544 178.882C319.869 185.018 323.65 188.582 325.874 194.107C328.097 199.632 325.874 207.631 328.067 214.833C330.26 222.036 333.866 225.618 333.897 230.7C333.927 235.781 331.931 249.821 331.931 249.821" stroke="#263238" stroke-width="1.63331" stroke-linecap="round" stroke-linejoin="round"/>
<path d="M317.011 177.87L313.219 175.88" stroke="#263238" stroke-width="1.63331" stroke-linecap="round" stroke-linejoin="round"/>
<path d="M316.347 174.939L317.318 172.201" stroke="#263238" stroke-width="1.63331" stroke-linecap="round" stroke-linejoin="round"/>
<path d="M325.646 193.873C325.646 193.873 322.476 192.256 319.229 190.65" stroke="#263238" stroke-width="1.63331" stroke-linecap="round" stroke-linejoin="round"/>
<path d="M323.481 189.763C324.413 186.818 325.642 183.975 327.148 181.278" stroke="#263238" stroke-width="1.63331" stroke-linecap="round" stroke-linejoin="round"/>
<path d="M327.521 213.054C325.407 210.379 322.917 208.026 320.127 206.067" stroke="#263238" stroke-width="1.63331" stroke-linecap="round" stroke-linejoin="round"/>
<path d="M328.604 216.079C329.108 213.929 329.79 211.825 330.642 209.788C331.84 207.085 332.044 206.732 332.044 206.732" stroke="#263238" stroke-width="1.63331" stroke-linecap="round" stroke-linejoin="round"/>
<path d="M333.728 234.534C333.728 234.534 336.238 231.454 337.808 230.298C338.751 229.6 339.637 228.829 340.456 227.991" stroke="#263238" stroke-width="1.63331" stroke-linecap="round" stroke-linejoin="round"/>
<path d="M333.897 230.699C332.881 229.057 331.741 227.495 330.488 226.025C329.254 224.677 327.912 223.433 326.474 222.304" stroke="#263238" stroke-width="1.63331" stroke-linecap="round" stroke-linejoin="round"/>
<path d="M332.799 242.737C332.673 241.017 332.09 239.363 331.109 237.944C329.545 235.882 327.706 233.15 326.963 232.078" stroke="#263238" stroke-width="1.63331" stroke-linecap="round" stroke-linejoin="round"/>
<path d="M349.314 274.045H326.731C325.801 274.045 325.047 273.291 325.047 272.361L321.806 247.369H354.24L350.998 272.361C350.998 273.291 350.244 274.045 349.314 274.045Z" fill="#263238"/>
<path d="M353.951 251.599H321.804C320.41 251.599 319.277 250.476 319.264 249.083C319.264 247.683 320.398 246.548 321.798 246.548C321.8 246.548 321.802 246.548 321.804 246.548H353.951C355.351 246.545 356.488 247.677 356.491 249.077C356.491 249.078 356.491 249.081 356.491 249.083C356.478 250.477 355.344 251.599 353.951 251.599Z" fill="#263238"/>
<path d="M281.475 151.641C281.475 166.457 271.142 178.872 257.283 182.058C257.248 182.069 257.226 182.069 257.192 182.081C256.372 182.263 255.553 182.422 254.71 182.548C253.254 182.752 251.763 182.866 250.25 182.866C232.998 182.866 219.013 168.88 219.013 151.64C219.013 134.775 232.384 121.029 249.1 120.438C249.384 120.414 249.68 120.414 249.976 120.414C250.067 120.403 250.158 120.403 250.25 120.403C250.352 120.403 250.465 120.403 250.568 120.414C254.915 120.449 259.046 121.382 262.8 123.043C273.794 127.869 281.475 138.861 281.475 151.641Z" fill="#008037"/>
<path opacity="0.4" d="M262.801 123.044C226.739 121.167 226.568 161.2 226.568 161.2C226.568 161.2 221.061 148.136 230.05 133.662C235.068 125.571 243.82 121.997 250.567 120.416C254.915 120.449 259.045 121.382 262.801 123.044Z" fill="#EBEBEB"/>
<path d="M281.475 151.641C281.475 166.492 271.097 178.929 257.192 182.081C254.962 182.593 252.64 182.866 250.251 182.866C232.999 182.866 219.014 168.881 219.014 151.64C219.014 134.776 232.385 121.029 249.101 120.438C249.477 120.415 249.864 120.403 250.25 120.403C267.489 120.404 281.475 134.39 281.475 151.641Z" stroke="#263238" stroke-width="1.3871" stroke-miterlimit="10" stroke-linecap="round" stroke-linejoin="round"/>
<path d="M281.475 151.641C281.475 166.492 271.096 178.929 257.191 182.081C256.815 182.104 256.429 182.115 256.042 182.115C238.791 182.115 224.816 168.13 224.816 150.878C224.816 136.028 235.195 123.591 249.1 120.438C249.476 120.415 249.863 120.403 250.249 120.403C267.489 120.404 281.475 134.39 281.475 151.641Z" stroke="#263238" stroke-width="1.3871" stroke-miterlimit="10" stroke-linecap="round" stroke-linejoin="round"/>
<path d="M261.009 171.184L261.819 174.482L256.421 175.806L255.612 172.508C250.774 172.486 246.895 169.369 245.659 164.332L245.292 162.833L251.247 160.672L251.628 162.232C252.378 165.291 254.393 166.767 256.912 166.149C259.43 165.531 260.608 163.59 260.005 161.131C259.283 158.194 255.908 156.351 252.007 154.447C247.389 152.21 242.625 149.373 241.316 144.037C240.037 138.819 241.643 134.483 245.757 132.33L244.948 129.032L250.344 127.709L251.154 131.007C255.842 130.937 259.331 134.024 260.64 139.36L260.905 140.439L254.951 142.599L254.656 141.4C253.862 138.161 252.191 136.791 249.972 137.336C247.754 137.88 246.831 139.567 247.48 142.207C248.2 145.143 251.622 146.912 255.476 148.89C260.049 151.204 264.859 153.965 266.168 159.302C267.419 164.398 265.362 168.971 261.009 171.184Z" stroke="#263238" stroke-width="1.3871" stroke-miterlimit="10"/>
<path opacity="0.3" d="M261.009 171.184L261.819 174.482L256.421 175.806L255.612 172.508C250.774 172.486 246.895 169.369 245.659 164.332L245.292 162.833L251.247 160.672L251.628 162.232C252.378 165.291 254.393 166.767 256.912 166.149C259.43 165.531 260.608 163.59 260.005 161.131C259.283 158.194 255.908 156.351 252.007 154.447C247.389 152.21 242.625 149.373 241.316 144.037C240.037 138.819 241.643 134.483 245.757 132.33L244.948 129.032L250.344 127.709L251.154 131.007C255.842 130.937 259.331 134.024 260.64 139.36L260.905 140.439L254.951 142.599L254.656 141.4C253.862 138.161 252.191 136.791 249.972 137.336C247.754 137.88 246.831 139.567 247.48 142.207C248.2 145.143 251.622 146.912 255.476 148.89C260.049 151.204 264.859 153.965 266.168 159.302C267.419 164.398 265.362 168.971 261.009 171.184Z" fill="black"/>
<path d="M234.291 178.485L240.888 178.183" stroke="#263238" stroke-width="1.3871" stroke-miterlimit="10" stroke-linecap="round" stroke-linejoin="round"/>
<path d="M231.115 176.295L236.873 175.806" stroke="#263238" stroke-width="1.3871" stroke-miterlimit="10" stroke-linecap="round" stroke-linejoin="round"/>
<path d="M228.533 173.979L234.291 173.491" stroke="#263238" stroke-width="1.3871" stroke-miterlimit="10" stroke-linecap="round" stroke-linejoin="round"/>
<path d="M227.746 129.982H232.676" stroke="#263238" stroke-width="1.3871" stroke-miterlimit="10" stroke-linecap="round" stroke-linejoin="round"/>
<path d="M230.18 127.708L235.088 127.485" stroke="#263238" stroke-width="1.3871" stroke-miterlimit="10" stroke-linecap="round" stroke-linejoin="round"/>
<path d="M233.253 125.434L238.433 124.946" stroke="#263238" stroke-width="1.3871" stroke-miterlimit="10" stroke-linecap="round" stroke-linejoin="round"/>
<path opacity="0.3" d="M257.282 182.058C257.247 182.069 257.225 182.069 257.191 182.081C254.961 182.593 252.639 182.866 250.25 182.866C232.998 182.866 219.013 168.88 219.013 151.64C219.013 134.775 232.384 121.029 249.1 120.438C249.384 120.414 249.68 120.414 249.976 120.414C242.363 122.815 229.595 128.949 226.182 141.74C221.334 159.902 232.236 180.533 257.282 182.058Z" fill="black"/>
<path opacity="0.1" d="M281.475 151.641C281.475 166.457 271.142 178.872 257.282 182.059C257.248 182.07 257.225 182.07 257.191 182.081C256.371 182.263 255.553 182.422 254.71 182.548L262.801 123.045C273.793 127.869 281.475 138.862 281.475 151.641Z" fill="black"/>
<path d="M299.195 102.482C294.006 109.822 284.538 112.348 276.573 109.048C276.538 109.037 276.493 109.014 276.459 109.003C275.868 108.752 275.276 108.468 274.695 108.149C274.069 107.808 273.466 107.432 272.875 107.012C264.351 100.992 262.326 89.2028 268.346 80.6793C274.138 72.4861 285.256 70.3008 293.676 75.5133C293.824 75.5933 293.961 75.6844 294.098 75.7747C294.291 75.8882 294.485 76.025 294.678 76.1617C294.974 76.3664 295.259 76.5831 295.531 76.8102C303.314 82.9772 305.009 94.2656 299.195 102.482Z" fill="#008037"/>
<path opacity="0.4" d="M270.698 102.739C270.698 102.739 267.605 93.649 271.712 86.96C276.866 78.5681 284.774 74.7462 295.531 76.8102C295.531 76.8102 289.698 72.8732 279.938 75.6673C270.179 78.4606 264.943 91.8895 270.698 102.739Z" fill="#EBEBEB"/>
<path d="M299.193 102.486C294.009 109.821 284.54 112.342 276.572 109.045C275.291 108.519 274.049 107.843 272.868 107.009C264.348 100.986 262.321 89.1958 268.34 80.6809C274.227 72.351 285.631 70.2285 294.094 75.7721C294.288 75.8916 294.483 76.0215 294.674 76.1565C303.19 82.1748 305.216 93.9654 299.193 102.486Z" stroke="#263238" stroke-width="1.3871" stroke-miterlimit="10" stroke-linecap="round" stroke-linejoin="round"/>
<path d="M299.194 102.486C294.01 109.821 284.542 112.342 276.573 109.045C276.379 108.925 276.184 108.795 275.993 108.66C267.472 102.638 265.452 90.8513 271.475 82.3304C276.659 74.9954 286.128 72.4748 294.096 75.772C294.29 75.8916 294.485 76.0214 294.676 76.1564C303.192 82.1747 305.217 93.9653 299.194 102.486Z" stroke="#263238" stroke-width="1.3871" stroke-miterlimit="10" stroke-linecap="round" stroke-linejoin="round"/>
<path d="M282.26 104.995L281.508 106.907L278.381 105.676L279.132 103.764C276.75 102.065 275.923 99.171 277.071 96.2513L277.413 95.3827L281.109 96.3941L280.753 97.2979C280.056 99.0712 280.536 100.503 281.996 101.078C283.456 101.651 284.715 101.103 285.275 99.6784C285.944 97.9756 284.92 95.8867 283.658 93.5844C282.159 90.8677 280.796 87.8035 282.012 84.7101C283.202 81.6863 285.509 80.1048 288.292 80.478L289.044 78.5663L292.172 79.7961L291.42 81.7078C293.759 83.31 294.407 86.0526 293.19 89.146L292.944 89.7712L289.248 88.7598L289.522 88.065C290.26 86.1884 289.912 84.9277 288.627 84.4229C287.341 83.9172 286.296 84.4289 285.695 85.9588C285.025 87.6608 286.098 89.7291 287.312 92.0519C288.763 94.791 290.175 97.8346 288.958 100.927C287.796 103.881 285.183 105.422 282.26 104.995Z" stroke="#263238" stroke-width="1.3871" stroke-miterlimit="10"/>
<path opacity="0.3" d="M282.26 104.995L281.508 106.907L278.381 105.676L279.132 103.764C276.75 102.065 275.923 99.171 277.071 96.2513L277.413 95.3827L281.109 96.3941L280.753 97.2979C280.056 99.0712 280.536 100.503 281.996 101.078C283.456 101.651 284.715 101.103 285.275 99.6784C285.944 97.9756 284.92 95.8867 283.658 93.5844C282.159 90.8677 280.796 87.8035 282.012 84.7101C283.202 81.6863 285.509 80.1048 288.292 80.478L289.044 78.5663L292.172 79.7961L291.42 81.7078C293.759 83.31 294.407 86.0526 293.19 89.146L292.944 89.7712L289.248 88.7598L289.522 88.065C290.26 86.1884 289.912 84.9277 288.627 84.4229C287.341 83.9172 286.296 84.4289 285.695 85.9588C285.025 87.6608 286.098 89.7291 287.312 92.0519C288.763 94.791 290.175 97.8346 288.958 100.927C287.796 103.881 285.183 105.422 282.26 104.995Z" fill="black"/>
<path opacity="0.3" d="M293.675 75.5122C288.486 74.5903 281.978 74.0786 278.45 76.343C271.975 80.4968 267.947 85.7307 268.004 94.2198C268.06 102.709 275.992 108.66 275.992 108.66L276.458 109.001C275.218 108.478 274.012 107.818 272.874 107.01C264.35 100.99 262.325 89.2008 268.345 80.6774C274.137 72.485 285.255 70.3006 293.675 75.5122Z" fill="black"/>
<path opacity="0.1" d="M299.196 102.482C294.007 109.822 284.539 112.348 276.574 109.048C276.539 109.037 276.494 109.014 276.46 109.002C275.868 108.752 275.277 108.467 274.696 108.149L295.532 76.81C303.315 82.977 305.01 94.2654 299.196 102.482Z" fill="black"/>
<path d="M289.46 344.664C281.406 354.225 271.95 362.603 261.215 369.044C257.854 371.054 254.419 372.846 250.9 374.426C226.467 385.412 198.619 386.124 172.574 379.809C117.821 366.541 88.7697 318.21 85.0838 264.558C84.0888 250.053 81.8691 234.396 87.7438 220.603C93.5668 206.926 105.495 198.255 118.932 192.285C128.681 187.949 139.217 185.028 148.789 182.651C166.216 178.326 184.281 180.305 200.461 187.981C211.72 193.322 219.742 202.57 229.209 210.414C230.215 211.241 231.22 212.069 232.236 212.886C241.797 220.584 251.872 227.663 262.356 234.051C278.274 243.76 294.569 252.923 304.739 269.229C320.952 295.212 307.264 323.509 289.46 344.664Z" fill="#008037"/>
<path opacity="0.4" d="M289.46 344.664C281.406 354.225 271.95 362.603 261.215 369.044C257.854 371.054 254.419 372.846 250.9 374.426C226.467 385.412 198.619 386.124 172.574 379.809C117.821 366.541 88.7697 318.21 85.0838 264.558C84.0888 250.053 81.8691 234.396 87.7438 220.603C93.5668 206.926 105.495 198.255 118.932 192.285C128.681 187.949 139.217 185.028 148.789 182.651C166.216 178.326 184.281 180.305 200.461 187.981C211.72 193.322 219.742 202.57 229.209 210.414C230.215 211.241 231.22 212.069 232.236 212.886C241.797 220.584 251.872 227.663 262.356 234.051C278.274 243.76 294.569 252.923 304.739 269.229C320.952 295.212 307.264 323.509 289.46 344.664Z" fill="#EBEBEB"/>
<path d="M232.237 212.882C231.222 212.066 230.214 211.242 229.211 210.412C219.74 202.571 211.718 193.322 200.464 187.981C184.282 180.302 166.211 178.328 148.79 182.652C126.028 188.301 97.7907 196.999 87.7433 220.605C81.8721 234.4 84.0901 250.053 85.0868 264.555C88.7745 318.21 117.818 366.542 172.573 379.813C202.369 387.034 234.512 385.059 261.219 369.043C271.948 362.609 281.41 354.222 289.455 344.664C307.26 323.51 320.956 295.21 304.745 269.228C294.573 252.925 278.279 243.762 262.355 234.054C251.87 227.661 241.804 220.582 232.237 212.882Z" stroke="#263238" stroke-width="1.3871" stroke-miterlimit="10"/>
<path d="M149.255 308.561C144.738 309.956 140.187 311.701 136.039 313.877" stroke="#263238" stroke-width="1.3871" stroke-miterlimit="10" stroke-linecap="round" stroke-linejoin="round"/>
<path d="M177.196 303.25C177.196 303.25 168.243 303.862 157.369 306.383" stroke="#263238" stroke-width="1.3871" stroke-miterlimit="10" stroke-linecap="round" stroke-linejoin="round"/>
<path d="M171.356 301.868C171.356 301.868 145.657 286.92 114.644 298.901" stroke="#263238" stroke-width="1.3871" stroke-miterlimit="10" stroke-linecap="round" stroke-linejoin="round"/>
<path opacity="0.1" d="M289.46 344.664C281.406 354.226 271.949 362.604 261.215 369.044C257.853 371.055 254.418 372.846 250.899 374.427C248.103 373.568 245.359 372.574 242.667 371.411C226.623 364.52 213.155 352.895 199.991 341.417C192.052 334.505 183.989 327.488 174.489 322.953C161.796 316.89 146.851 315.664 133.341 319.571C140.316 311.643 150.119 306.25 160.55 304.595C153.764 298.416 144.307 295.819 135.123 295.651C125.938 295.473 120.879 296.614 111.915 298.625C114.91 293.105 122.88 288.111 129.164 288.257C122.88 288.11 115.706 287.691 111.297 286.99C103.18 285.681 99.5572 276.14 98.342 268.023C94.9906 245.675 98.3842 221.849 110.585 202.841C113.14 198.861 115.926 195.363 118.932 192.284C128.682 187.948 139.218 185.027 148.79 182.65C166.217 178.325 184.282 180.303 200.462 187.98C211.72 193.321 219.742 202.569 229.21 210.413C230.215 211.24 231.221 212.068 232.236 212.885C241.798 220.582 251.873 227.662 262.356 234.05C278.275 243.759 294.57 252.922 304.739 269.228C320.951 295.212 307.264 323.51 289.46 344.664Z" fill="black"/>
<path d="M298.387 344.03C298.387 344.03 305.613 350.112 313.492 355.163C323.72 355.85 319.133 368.214 319.133 368.214L310.379 373.841C310.379 373.841 295.425 361.956 287.264 358.095C279.102 354.233 298.387 344.03 298.387 344.03Z" fill="#EBEBEB"/>
<path opacity="0.3" d="M225.759 213.896C225.759 213.896 224.355 200.022 222.122 196.124L188.169 189.185V186.557C188.169 186.557 188.952 181.979 181.383 179.116C173.815 176.253 158.047 179.975 153.98 183.052C149.912 186.129 151.402 191.427 151.402 191.427C151.402 191.427 137.721 198.359 131.569 200.996C125.416 203.632 116.881 208.736 116.881 208.736C116.881 208.736 114.1 240.618 114.645 248.022C115.189 255.427 114.203 262.394 114.835 266.497C115.468 270.601 115.97 272.932 120.275 276.423C124.58 279.914 128.481 285.066 139.761 279.955L138.188 278.711L212.441 253.744L225.759 213.896Z" fill="black"/>
<path d="M225.759 213.896C225.759 213.896 224.355 200.022 222.122 196.124L188.169 189.185V186.557C188.169 186.557 188.952 181.979 181.383 179.116C173.815 176.253 158.047 179.975 153.98 183.052C149.912 186.129 151.402 191.427 151.402 191.427C151.402 191.427 137.721 198.359 131.569 200.996C125.416 203.632 116.881 208.736 116.881 208.736C116.881 208.736 114.1 240.618 114.645 248.022C115.189 255.427 114.203 262.394 114.835 266.497C115.468 270.601 115.97 272.932 120.275 276.423C124.58 279.914 128.481 285.066 139.761 279.955L138.188 278.711L212.441 253.744L225.759 213.896Z" fill="#008037"/>
<path opacity="0.05" d="M225.759 213.896C225.759 213.896 224.355 200.022 222.122 196.124L188.169 189.185V186.557C188.169 186.557 188.952 181.979 181.383 179.116C173.815 176.253 158.047 179.975 153.98 183.052C149.912 186.129 151.402 191.427 151.402 191.427C151.402 191.427 137.721 198.359 131.569 200.996C125.416 203.632 116.881 208.736 116.881 208.736C116.881 208.736 114.1 240.618 114.645 248.022C115.189 255.427 114.203 262.394 114.835 266.497C115.468 270.601 115.97 272.932 120.275 276.423C124.58 279.914 128.481 285.066 139.761 279.955L138.188 278.711L212.441 253.744L225.759 213.896Z" fill="black"/>
<path opacity="0.1" d="M222.57 197.798H208.365C205.605 197.798 203.25 199.794 202.798 202.516L195.796 244.686C195.796 244.686 186.158 245.488 179.33 250.472C172.502 255.457 155.706 219.924 129.162 219.907C129.162 219.907 136.8 237.362 138.495 251.294C138.495 251.294 121.905 249.488 119.15 255.98C116.395 262.471 120.402 274.642 127.416 269.933C134.429 265.226 141.001 257.345 145.73 262.287C150.459 267.229 171.357 269.933 171.357 269.933L203.582 253.745L216.08 247.87L222.57 197.798Z" fill="black"/>
<path opacity="0.4" d="M177.461 176.923C177.461 176.923 185.531 179.162 186.837 181.867C188.143 184.571 188.009 191.429 188.009 191.429C188.009 191.429 185.811 197.519 179.33 203.367L173.306 191.429L173.846 204.97C173.846 204.97 162.427 203.07 157.581 199.417C152.734 195.764 152.734 195.764 152.734 195.764C152.734 195.764 150.649 188.908 150.945 186.558C151.241 184.207 159.981 179.491 159.981 179.491L177.461 176.923Z" fill="#EBEBEB"/>
<path d="M311.824 385.655C311.603 385.159 315.138 378.921 312.371 372.562C309.603 366.203 305.19 368.654 305.19 368.654C305.19 368.654 292.625 360.659 287.344 358.134C282.062 355.608 276.38 351.615 276.38 351.615L270.801 359.129L275.957 375.093L311.824 385.655Z" fill="#008037"/>
<path d="M304.729 368.268L320.866 378.129C320.866 378.129 332.206 370.851 337.62 365.827C343.035 360.803 355.138 350.112 355.138 350.112L362.865 339.694C362.865 339.694 357.494 333.055 348.551 338.391C336.992 345.287 322.898 355.259 313.492 355.164C313.492 355.164 315.347 366.714 304.729 368.268Z" fill="#008037"/>
<path d="M174.725 135.226C174.725 135.226 182.048 146.301 183.38 149.889C184.713 153.476 185.788 158.784 185.517 161.335C185.246 163.886 182.574 177.571 181.191 177.971L179.892 179.439L180.725 185.235C180.725 185.235 174.997 195.14 158.157 187.88C158.157 187.88 157.5 176.315 155.453 172.689C153.406 169.062 150.343 173.377 147.278 162.893C144.214 152.41 153.985 141.439 153.985 141.439L174.725 135.226Z" fill="#EBEBEB"/>
<path opacity="0.5" d="M355.89 336.463C355.89 336.463 347.599 337.902 344.904 342.812C342.21 347.723 337.045 356.852 335.281 361.265C333.517 365.678 318.928 376.334 318.928 376.334L320.865 378.13C320.865 378.13 332.737 370.791 339.895 363.817C347.055 356.843 362.861 339.299 362.861 339.299C362.861 339.299 361.733 338.17 355.89 336.463Z" fill="#EBEBEB"/>
<path opacity="0.5" d="M272.848 356.373L270.801 359.13L277.11 372.221L311.825 384.699L313.435 379.613C313.435 379.613 313.972 374.436 301.786 370.536C289.6 366.636 282.17 364.027 278.704 361.331C275.238 358.633 272.848 356.373 272.848 356.373Z" fill="#EBEBEB"/>
<path d="M158.236 259.151C158.236 259.151 147.605 257.556 142.642 266.251C137.679 274.946 138.186 278.71 138.186 278.71C138.186 278.71 145.208 285.092 154.865 284.765C164.522 284.439 178.599 273.309 183.182 269.708C187.765 266.107 199.325 255.795 207.212 257.923L208.081 250.466C208.081 250.466 207.315 247.123 200.567 248.022C193.821 248.921 191.175 252.772 189.006 252.772C186.836 252.772 184.774 250.679 180.376 258.148C180.376 258.148 165.043 260.87 158.236 259.151Z" fill="#EBEBEB"/>
<path d="M172.056 151.158C172.277 152.552 172.599 153.928 173.019 155.274C173.222 155.924 173.459 156.587 173.918 157.09C174.731 157.98 176.033 158.177 177.225 158.357C177.421 158.387 177.635 158.428 177.763 158.58C177.878 158.719 177.89 158.914 177.89 159.094C177.887 160.439 177.476 161.779 176.725 162.893" stroke="#263238" stroke-width="1.3871" stroke-miterlimit="10" stroke-linecap="round" stroke-linejoin="round"/>
<path opacity="0.1" d="M279.984 347.486L272.848 356.372C272.848 356.372 280.677 363.602 288.781 366.282C296.885 368.962 311.061 374.042 313.434 377.923L312.522 373.251C312.522 373.251 290.347 359.646 285.25 356.398C280.153 353.151 279.984 347.486 279.984 347.486Z" fill="black"/>
<path opacity="0.1" d="M304.729 368.268L318.928 376.334C318.928 376.334 325.919 371.554 329.375 367.994C332.833 364.434 337.049 360.545 339.656 352.621C343.258 341.669 353.581 336.463 353.581 336.463C353.581 336.463 339.227 343.218 331.754 348.525C324.282 353.833 316.998 356.038 312.769 355.679C312.769 355.679 316.166 366.434 304.729 368.268Z" fill="black"/>
<path d="M167.045 164.846C167.045 164.846 172.625 169.223 178.425 167.582C178.425 167.582 172.954 178.415 167.045 164.846Z" fill="#EBEBEB" stroke="#263238" stroke-width="1.3871" stroke-miterlimit="10" stroke-linecap="round" stroke-linejoin="round"/>
<path d="M166.874 155.386C167.035 156.59 166.672 157.634 166.064 157.715C165.456 157.796 164.833 156.885 164.671 155.681C164.51 154.476 164.873 153.432 165.481 153.351C166.089 153.269 166.713 154.181 166.874 155.386Z" fill="#263238"/>
<path d="M178.99 153.199C179.152 154.404 178.79 155.447 178.181 155.528C177.573 155.61 176.949 154.699 176.787 153.494C176.626 152.289 176.989 151.246 177.597 151.164C178.206 151.082 178.829 151.993 178.99 153.199Z" fill="#263238"/>
<path d="M165.992 150.28C165.992 150.28 162.739 148.604 160.424 152.196" stroke="#263238" stroke-width="1.3871" stroke-miterlimit="10" stroke-linecap="round" stroke-linejoin="round"/>
<path d="M174.314 148.044C174.314 148.044 177.747 145.091 179.743 148.044" stroke="#263238" stroke-width="1.3871" stroke-miterlimit="10" stroke-linecap="round" stroke-linejoin="round"/>
<path d="M154.939 161.346C154.939 161.346 152.847 158.257 150.655 158.357C148.463 158.456 147.566 161.545 148.363 164.535C149.16 167.524 152.449 171.71 154.939 171.311C157.431 170.912 158.526 169.317 158.526 169.317" stroke="#263238" stroke-width="1.3871" stroke-miterlimit="10" stroke-linecap="round" stroke-linejoin="round"/>
<path d="M174.973 137.726C177.325 139.673 179.807 141.804 181.037 144.673C182.084 147.115 182.322 149.818 183.282 152.297C184.305 154.939 185.429 157.703 185.514 160.584C185.591 163.207 184.995 165.933 184.473 168.487C184.022 170.697 183.672 172.976 182.879 175.096C181.723 178.183 179.577 180.082 176.703 181.549C174.612 182.617 171.13 184.148 168.872 182.703C167.555 181.861 165.581 179.386 163.935 177.121" stroke="#263238" stroke-width="1.3871" stroke-miterlimit="10" stroke-linecap="round" stroke-linejoin="round"/>
<path d="M154.939 171.311C154.939 171.311 158.636 180.377 157.739 186.755" stroke="#263238" stroke-width="1.3871" stroke-miterlimit="10" stroke-linecap="round" stroke-linejoin="round"/>
<path d="M153.99 159.823C154.979 159.107 155.545 157.848 155.423 156.634C155.284 155.239 154.317 153.952 154.509 152.563C154.604 151.882 154.97 151.275 155.248 150.646C156.266 148.35 156.095 145.563 154.803 143.41C154.803 143.41 166.549 143.959 172.055 140.458C177.561 136.956 181.751 128.008 178.424 123.729C175.098 119.449 168.613 125.285 163.815 125.933C159.017 126.581 141.9 129.305 139.176 135.918C136.453 142.532 140.603 144.872 140.732 151.159C140.862 157.445 140.855 169.353 150.26 168.262C150.26 168.262 146.743 163.713 149.184 159.023C150.848 157.026 153.99 159.823 153.99 159.823Z" fill="#263238"/>
<path d="M177.028 131.16C177.028 131.16 181.864 134.387 182.653 141.487C183.177 146.201 191.542 155.359 185.514 160.582C185.514 160.582 184.108 155.032 183.282 152.295C182.457 149.56 181.404 144.568 180.018 142.824C178.63 141.08 171.285 135.119 171.285 135.119L177.028 131.16Z" fill="#263238"/>
<path d="M156.025 186.557C156.025 186.557 161.821 190.369 172.588 190.529L173.846 204.969C173.846 204.969 161.745 204.045 152.735 195.763C152.735 195.763 150.303 189.323 150.945 186.557C151.587 183.791 157.355 181.043 157.355 181.043" stroke="#263238" stroke-width="1.3871" stroke-miterlimit="10" stroke-linecap="round" stroke-linejoin="round"/>
<path d="M180.378 180.096L180.724 185.236C176.811 189.247 172.587 190.531 172.587 190.531L179.329 203.366C179.329 203.366 187.365 197.109 188.168 190.531C188.168 190.531 188.234 183.792 186.837 181.867C185.44 179.942 180.327 179.034 180.327 179.034" stroke="#263238" stroke-width="1.3871" stroke-miterlimit="10" stroke-linecap="round" stroke-linejoin="round"/>
<path opacity="0.8" d="M147.751 140.187C148.623 138.026 150.964 136.785 153.262 136.398C155.56 136.011 157.911 136.299 160.241 136.237C163.433 136.153 166.655 135.384 169.353 133.676C172.052 131.968 174.185 129.264 174.861 126.143" stroke="#EBEBEB" stroke-width="1.3871" stroke-miterlimit="10" stroke-linecap="round" stroke-linejoin="round"/>
<path opacity="0.8" d="M142.199 139.771C143.658 135.355 148.369 132.633 153.003 132.24C155.299 132.045 157.62 132.316 159.907 132.047C162.195 131.778 164.576 130.833 165.772 128.864" stroke="#EBEBEB" stroke-width="1.3871" stroke-miterlimit="10" stroke-linecap="round" stroke-linejoin="round"/>
<path d="M139.761 279.955C128.599 285.752 124.607 279.789 118.383 274.852C112.157 269.915 116.236 261.114 114.948 246.946C113.66 232.778 116.879 208.736 116.879 208.736C116.879 208.736 119.67 208.092 127.398 203.365C135.126 198.639 151.401 191.428 151.401 191.428" stroke="#263238" stroke-width="1.3871" stroke-miterlimit="10" stroke-linecap="round" stroke-linejoin="round"/>
<path d="M150.837 258.548C150.837 258.548 149.064 252.932 144.055 252.78C139.047 252.628 131.156 254.888 125.537 265.53" stroke="#263238" stroke-width="1.3871" stroke-miterlimit="10" stroke-linecap="round" stroke-linejoin="round"/>
<path d="M142.914 252.446C142.603 252.451 142.304 252.337 142.011 252.231C137.919 250.748 133.373 250.543 129.162 251.65" stroke="#263238" stroke-width="1.3871" stroke-miterlimit="10" stroke-linecap="round" stroke-linejoin="round"/>
<path d="M126.286 216.413C135.386 226.474 139.827 239.787 144.033 252.684" stroke="#263238" stroke-width="1.3871" stroke-miterlimit="10" stroke-linecap="round" stroke-linejoin="round"/>
<path d="M188.169 189.185C188.169 189.185 204.684 193.123 212.747 194.06C220.81 194.998 222.123 196.123 222.123 196.123L223.622 201.749" stroke="#263238" stroke-width="1.3871" stroke-miterlimit="10" stroke-linecap="round" stroke-linejoin="round"/>
<path d="M265.117 198.994L208.879 201.157L204.284 258.994H213.919L262.747 248.057L268.891 200.386L265.117 198.994Z" fill="#EBEBEB"/>
<path d="M207.212 260.707L268.714 201.749L262.746 248.057L207.212 260.707Z" fill="#008037"/>
<path opacity="0.7" d="M207.212 260.707L268.714 201.749L262.746 248.057L207.212 260.707Z" fill="#EBEBEB"/>
<path d="M207.212 259.151L212.127 203.366L268.89 200.386L262.746 248.057L207.212 259.151Z" stroke="#263238" stroke-width="1.3871" stroke-miterlimit="10" stroke-linecap="round" stroke-linejoin="round"/>
<path d="M244.964 227.409C244.581 230.806 242.766 233.389 240.912 233.179C239.058 232.969 237.866 230.046 238.25 226.65C238.633 223.253 240.448 220.67 242.302 220.879C244.156 221.089 245.349 224.012 244.964 227.409Z" fill="#263238"/>
<path d="M262.747 248.057C262.747 248.057 288.736 247.318 296.865 252.684C304.995 258.05 309.76 284.961 308.638 299.256C307.517 313.553 297.706 346.35 297.706 346.35L278.924 325.046C278.924 325.046 269.674 291.408 274.72 278.233C274.72 278.233 249.771 279.635 239.96 276.551C239.96 276.551 231.161 262.148 216.079 257.38L262.747 248.057Z" fill="#263238"/>
<path d="M301.671 346.906C293.735 339.718 286.077 329.824 283.805 326.306C274.715 312.262 262.148 298.752 249.224 288.269C238.804 279.818 236.447 266.056 223.597 259.155C202.316 247.739 183.916 270.423 177.035 275.01C170.154 279.598 158.236 284.771 158.236 284.771C158.236 284.771 162.583 301.078 175.359 303.046C188.136 305.015 201.07 296.166 207.217 300.429C213.364 304.68 217.857 323.688 238.049 334.831C254.554 343.932 277.038 352.813 288.642 358.793C291.24 360.133 293.15 361.545 294.612 362.343C298.619 364.528 302.902 367.105 306.942 369.648L320.865 378.129C320.865 378.129 334.837 369.864 340.204 362.243C340.925 361.219 342.408 358.491 343.801 355.858C346.841 350.112 350.665 344.951 356.005 342.081C359.69 340.101 362.967 339.493 362.862 339.298C362.507 338.642 355.838 335.231 351.301 337.098C341.704 341.058 322.521 356.291 313.493 355.163C313.493 355.163 306.915 351.655 301.671 346.906Z" stroke="#263238" stroke-width="1.3871" stroke-miterlimit="10"/>
<path d="M301.671 346.906C293.303 350.288 289.931 355.494 288.643 358.793C277.039 352.813 254.554 343.932 238.049 334.831C217.858 323.688 213.365 304.681 207.217 300.429C201.07 296.167 188.136 305.016 175.359 303.047C162.582 301.077 158.24 284.766 158.24 284.766C158.24 284.766 170.157 279.6 177.038 275.013C183.919 270.426 199.783 247.735 223.596 259.154C236.75 265.462 238.802 279.817 249.223 288.268C262.146 298.752 274.713 312.261 283.804 326.305C286.077 329.825 293.712 339.743 301.671 346.906Z" fill="#263238"/>
<path d="M238.79 274.001C238.79 274.001 232.35 260.91 222.017 258.371" stroke="#EBEBEB" stroke-width="1.3871" stroke-miterlimit="10" stroke-linecap="round" stroke-linejoin="round"/>
<path d="M205.028 247.939C197.922 246.389 190.121 254.242 186.838 252.773C184.394 251.68 180.378 258.148 180.378 258.148C180.378 258.148 169.977 259.755 160.407 259.151C150.837 258.547 146.301 260.406 142.915 265.53L138.188 278.053C138.188 278.053 150.66 289.247 163.991 282.726C177.321 276.203 195.018 256.579 207.213 256.647" stroke="#263238" stroke-width="1.3871" stroke-miterlimit="10" stroke-linecap="round" stroke-linejoin="round"/>
<path d="M304.188 367.933C304.188 367.933 315.857 368.892 313.117 354.958" stroke="#263238" stroke-width="1.3871" stroke-miterlimit="10"/>
<path d="M359.147 346.35C358.263 348.106 347.592 357.169 338.382 365.124C338.409 365 340.929 360.145 342.035 358.073C344.479 353.496 350.809 340.948 362.863 339.298C364.572 340.328 359.147 346.35 359.147 346.35Z" fill="#263238"/>
<path d="M354.56 336.551C342.376 338.984 339.609 354.595 335.281 361.265C330.954 367.935 318.928 376.949 318.928 376.949" stroke="#263238" stroke-width="1.3871" stroke-miterlimit="10"/>
<path d="M312.371 372.955C314.352 376.588 313.415 380.8 312.371 383.438C311.495 385.658 310.46 387.197 310.46 387.197C293.209 384.362 275.957 375.093 275.957 375.093L271.509 361.329L270.801 359.129L277.496 350.112" stroke="#263238" stroke-width="1.3871" stroke-miterlimit="10"/>
<path d="M312.372 383.439C311.495 385.659 310.46 387.198 310.46 387.198C293.209 384.363 275.958 375.094 275.958 375.094L271.51 361.331C273.738 364.24 277.869 368.492 284.061 370.245C292.464 372.622 307.971 375.411 312.372 383.439Z" fill="#263238"/>
<path d="M204.284 256.981L208.879 201.157L265.117 198.994L268.891 200.386" stroke="#263238" stroke-width="1.3871" stroke-miterlimit="10" stroke-linecap="round" stroke-linejoin="round"/>
<path d="M312.996 361.265C312.996 361.265 320.688 362.637 326.593 357.816C332.497 352.996 342.022 342.105 342.022 342.105" stroke="#263238" stroke-width="1.3871" stroke-miterlimit="10"/>
<path d="M320.866 354.31C320.866 354.31 319.012 357.106 320.866 362.719" stroke="#263238" stroke-width="1.3871" stroke-miterlimit="10" stroke-linecap="round" stroke-linejoin="round"/>
<path d="M326.318 351.656C326.318 351.656 324.831 355.836 327.013 360.062" stroke="#263238" stroke-width="1.3871" stroke-miterlimit="10" stroke-linecap="round" stroke-linejoin="round"/>
<path d="M332.814 347.888C332.814 347.888 331.257 352.56 332.814 356.681" stroke="#263238" stroke-width="1.3871" stroke-miterlimit="10" stroke-linecap="round" stroke-linejoin="round"/>
<path d="M279.02 348.949L272.848 356.373C272.848 356.373 279.065 363.155 287.821 365.974C296.577 368.794 312.243 373.585 313.537 378.684" stroke="#263238" stroke-width="1.3871" stroke-miterlimit="10"/>
</svg>
