<svg width="430" height="430" viewBox="0 0 430 430" fill="none" xmlns="http://www.w3.org/2000/svg">
<path d="M345.817 349.741C373.144 349.741 395.296 336.951 395.296 321.174C395.296 305.397 373.144 292.607 345.817 292.607C318.49 292.607 296.338 305.397 296.338 321.174C296.338 336.951 318.49 349.741 345.817 349.741Z" fill="#E0E0E0"/>
<path d="M168.678 382.899L45.9344 312.034C43.9203 310.871 43.9203 308.986 45.9344 307.822L223.383 205.372C225.397 204.209 228.663 204.209 230.677 205.372L353.389 276.22C355.403 277.383 355.403 279.269 353.389 280.431L175.971 382.899C173.957 384.062 170.692 384.063 168.678 382.899Z" fill="#E0E0E0"/>
<path d="M370.79 304.793C369.732 297.535 372.438 269.881 378.594 259.36C384.751 248.839 394.974 237.787 403.805 239.438C412.029 240.976 412.679 251.376 404.169 259.572C395.657 267.768 382.619 278.407 380.157 290.788L373.449 311.867L370.79 304.793Z" fill="#008037"/>
<path opacity="0.1" d="M370.79 304.793C369.732 297.535 372.438 269.881 378.594 259.36C384.751 248.839 394.974 237.787 403.805 239.438C412.029 240.976 412.679 251.376 404.169 259.572C395.657 267.768 382.619 278.407 380.157 290.788L373.449 311.867L370.79 304.793Z" fill="black"/>
<path d="M372.759 302.515C372.986 302.455 373.154 302.25 373.158 302.005C373.538 276.495 389.848 252.868 400.978 246.288C401.232 246.137 401.317 245.808 401.166 245.554C401.017 245.3 400.692 245.209 400.432 245.366C389.091 252.071 372.471 276.093 372.086 301.99C372.081 302.286 372.317 302.528 372.613 302.533C372.665 302.534 372.713 302.528 372.759 302.515Z" fill="#EBEBEB"/>
<path d="M376.75 315.83C377.321 311.58 380.293 304.246 387.019 296.989C395.255 288.101 408.936 283.213 410.839 278.046C413.125 271.839 407.908 267.602 399.021 270.427C387.071 274.225 373.741 289.144 373.912 308.331L376.75 315.83Z" fill="#008037"/>
<path d="M374.352 311.808C374.551 311.762 374.714 311.605 374.758 311.391C379.259 289.059 397.287 277.031 404.646 274.964C404.93 274.884 405.096 274.588 405.017 274.303C404.937 274.018 404.652 273.85 404.357 273.932C396.22 276.217 378.303 288.385 373.708 311.179C373.649 311.469 373.838 311.752 374.128 311.81C374.204 311.827 374.281 311.824 374.352 311.808Z" fill="#EBEBEB"/>
<path d="M53.5088 302.282C53.5088 304.66 55.289 307.615 57.4837 308.882L168.847 373.177C171.042 374.445 174.601 374.445 176.796 373.177L341.839 277.898C344.034 276.631 345.814 273.676 345.814 271.299C345.814 268.921 344.035 265.966 341.84 264.699L230.477 200.404C228.282 199.136 224.723 199.136 222.528 200.404L57.4829 295.682C55.2881 296.949 53.5088 299.905 53.5088 302.282Z" fill="#37474F"/>
<path d="M172.823 365.525V374.126C171.382 374.126 169.942 373.814 168.849 373.181L57.4819 308.883C55.288 307.616 53.5078 304.66 53.5078 302.283C53.5078 300.052 55.0773 297.318 57.0785 295.941C55.2975 297.217 55.4359 299.089 57.4827 300.273L168.85 364.571C169.941 365.204 171.382 365.525 172.823 365.525Z" fill="#263238"/>
<path d="M49.7797 295.824C47.7209 294.636 46.0516 291.617 46.0516 289.083L46.0508 156.187C46.0508 153.653 47.8301 150.57 50.0248 149.303L215.069 54.0243C217.264 52.7567 220.713 52.693 222.772 53.8824C224.832 55.0709 226.501 58.0895 226.501 60.6248V193.521C226.501 196.055 224.722 199.137 222.527 200.405L57.4828 295.683C55.288 296.949 51.8394 297.014 49.7797 295.824Z" fill="#455A64"/>
<path d="M57.0137 295.922C54.8198 296.95 51.6989 296.932 49.7811 295.821C47.7248 294.636 46.0547 291.617 46.0547 289.083V156.183C46.0547 154.917 46.495 153.512 47.22 152.273L54.6736 156.569V156.577C53.9581 157.826 53.5083 159.221 53.5083 160.488V293.389C53.5075 295.738 55.0408 296.793 57.0137 295.922Z" fill="#263238"/>
<path d="M53.5078 160.492V293.388C53.5078 295.923 55.2871 296.95 57.4819 295.683L222.526 200.404C224.721 199.137 226.5 196.054 226.5 193.52V60.625C226.5 58.0905 224.721 57.0628 222.526 58.3305L57.4827 153.608C55.288 154.876 53.5078 157.958 53.5078 160.492Z" fill="#37474F"/>
<path d="M57.483 300.272L168.847 364.568C171.042 365.835 174.601 365.835 176.796 364.568L341.84 269.289C344.035 268.021 344.035 265.967 341.84 264.699L230.477 200.404C228.282 199.136 224.723 199.136 222.528 200.404L57.483 295.682C55.2882 296.949 55.2882 299.005 57.483 300.272Z" fill="#455A64"/>
<path d="M59.6201 158.712L219.198 66.6107C220.516 65.8505 221.583 66.4671 221.583 67.9876V190.602C221.583 192.123 220.516 193.972 219.198 194.733L59.6201 286.833C58.3035 287.593 57.2354 286.976 57.2354 285.456V162.842C57.2354 161.322 58.3026 159.472 59.6201 158.712Z" fill="#008037"/>
<path opacity="0.4" d="M59.6201 158.712L219.198 66.6107C220.516 65.8505 221.583 66.4671 221.583 67.9876V190.602C221.583 192.123 220.516 193.972 219.198 194.733L59.6201 286.833C58.3035 287.593 57.2354 286.976 57.2354 285.456V162.842C57.2354 161.322 58.3026 159.472 59.6201 158.712Z" fill="black"/>
<path d="M70.4093 296.83L224.515 207.868C225.613 207.234 227.392 207.234 228.49 207.868L235.725 212.044C236.822 212.678 236.822 213.705 235.725 214.338L81.597 303.288C80.4997 303.922 78.7195 303.921 77.6221 303.288L70.4093 299.125C69.3119 298.491 69.3111 297.464 70.4093 296.83Z" fill="#37474F"/>
<path d="M89.0534 307.594L243.158 218.63C244.255 217.996 246.034 217.996 247.132 218.63L291.628 244.321C292.725 244.955 292.725 245.982 291.628 246.616L137.686 335.466C136.588 336.1 134.807 336.103 133.707 335.472L89.0568 309.882C87.9578 309.252 87.956 308.228 89.0534 307.594Z" fill="#263238"/>
<path d="M224.477 256.457L229.329 253.656C229.535 253.537 229.539 253.346 229.337 253.229L224.216 250.272C224.014 250.155 223.683 250.158 223.478 250.276L218.625 253.077C218.419 253.196 218.417 253.387 218.619 253.504L223.739 256.461C223.94 256.578 224.271 256.576 224.477 256.457ZM216.162 246.054L211.309 248.855C211.104 248.974 211.101 249.165 211.303 249.281L216.423 252.238C216.625 252.355 216.956 252.352 217.162 252.234L222.014 249.432C222.22 249.313 222.224 249.121 222.022 249.005L216.9 246.049C216.698 245.932 216.367 245.935 216.162 246.054ZM200.486 255.104L192.275 259.844C192.069 259.963 192.066 260.154 192.267 260.27L197.388 263.227C197.59 263.344 197.921 263.341 198.127 263.223L206.337 258.482C206.543 258.364 206.547 258.172 206.345 258.056L201.224 255.099C201.023 254.983 200.692 254.985 200.486 255.104ZM209.07 250.147L204.218 252.949C204.012 253.068 204.009 253.26 204.211 253.376L209.331 256.332C209.534 256.449 209.865 256.447 210.07 256.328L214.922 253.527C215.129 253.408 215.132 253.217 214.93 253.101L209.809 250.145C209.608 250.026 209.276 250.029 209.07 250.147ZM190.036 261.137L185.184 263.938C184.977 264.058 184.974 264.249 185.176 264.365L190.297 267.322C190.499 267.439 190.829 267.436 191.036 267.317L195.888 264.515C196.093 264.397 196.097 264.206 195.895 264.089L190.774 261.132C190.572 261.016 190.242 261.019 190.036 261.137ZM182.944 265.232L178.092 268.033C177.886 268.151 177.883 268.343 178.084 268.459L183.205 271.415C183.407 271.532 183.738 271.53 183.943 271.411L188.796 268.61C189.002 268.49 189.005 268.299 188.802 268.183L183.682 265.227C183.482 265.11 183.15 265.112 182.944 265.232ZM203.053 277.273L207.906 274.471C208.111 274.352 208.115 274.16 207.912 274.044L202.792 271.087C202.59 270.971 202.259 270.973 202.053 271.092L197.201 273.893C196.995 274.012 196.991 274.203 197.193 274.319L202.315 277.276C202.517 277.394 202.848 277.391 203.053 277.273ZM195.963 281.366L200.815 278.565C201.021 278.446 201.024 278.256 200.822 278.139L195.701 275.183C195.499 275.066 195.168 275.068 194.963 275.187L190.11 277.988C189.904 278.107 189.901 278.299 190.103 278.415L195.223 281.371C195.426 281.487 195.756 281.486 195.963 281.366ZM188.871 285.461L193.723 282.659C193.93 282.54 193.932 282.349 193.73 282.232L188.61 279.276C188.408 279.159 188.077 279.161 187.87 279.28L183.018 282.081C182.812 282.2 182.809 282.391 183.011 282.507L188.132 285.464C188.335 285.582 188.665 285.579 188.871 285.461ZM181.78 289.555L186.632 286.754C186.838 286.635 186.841 286.444 186.639 286.328L181.518 283.372C181.316 283.256 180.985 283.256 180.779 283.376L175.927 286.177C175.721 286.296 175.718 286.488 175.92 286.604L181.04 289.559C181.243 289.676 181.574 289.674 181.78 289.555ZM217.386 260.551L222.237 257.75C222.444 257.631 222.446 257.439 222.245 257.323L217.125 254.367C216.923 254.25 216.592 254.252 216.386 254.371L211.534 257.172C211.328 257.291 211.324 257.482 211.526 257.599L216.647 260.556C216.849 260.672 217.179 260.67 217.386 260.551ZM210.145 273.178L220.968 266.929C221.175 266.81 221.177 266.619 220.975 266.503L208.539 259.323C208.337 259.206 208.006 259.208 207.801 259.327L202.202 262.559C201.996 262.678 201.992 262.869 202.194 262.985L208.779 266.787C208.981 266.903 208.977 267.095 208.771 267.213L204.293 269.799C204.086 269.918 204.083 270.11 204.285 270.226L209.405 273.182C209.608 273.299 209.939 273.297 210.145 273.178ZM175.853 269.325L171.001 272.127C170.796 272.246 170.792 272.438 170.994 272.554L176.115 275.51C176.317 275.627 176.648 275.625 176.854 275.506L181.706 272.705C181.912 272.586 181.915 272.395 181.713 272.279L176.592 269.322C176.39 269.205 176.06 269.207 175.853 269.325ZM168.762 273.42L163.91 276.221C163.703 276.34 163.7 276.531 163.903 276.647L169.023 279.604C169.225 279.721 169.556 279.718 169.762 279.6L174.614 276.799C174.821 276.68 174.823 276.488 174.622 276.372L169.501 273.416C169.298 273.299 168.968 273.301 168.762 273.42ZM131.402 318.219C131.604 318.335 131.934 318.333 132.14 318.215L136.993 315.414C137.198 315.295 137.202 315.103 136.999 314.987L131.879 312.031C131.677 311.915 131.346 311.917 131.14 312.036L126.288 314.837C126.082 314.956 126.078 315.147 126.28 315.263L131.402 318.219ZM112.032 306.173L107.18 308.974C106.973 309.093 106.97 309.284 107.173 309.4L112.293 312.356C112.495 312.473 112.827 312.472 113.032 312.352L117.884 309.551C118.091 309.432 118.093 309.241 117.891 309.124L112.771 306.169C112.569 306.053 112.238 306.053 112.032 306.173ZM122.22 315.072C122.422 315.189 122.754 315.187 122.959 315.068L127.811 312.266C128.018 312.147 128.02 311.956 127.818 311.839L122.698 308.883C122.496 308.766 122.164 308.768 121.959 308.887L117.107 311.688C116.9 311.808 116.897 311.998 117.099 312.115L122.22 315.072ZM143.188 320.283L148.04 317.482C148.247 317.362 148.25 317.171 148.048 317.055L142.927 314.099C142.725 313.983 142.394 313.984 142.188 314.103L137.336 316.904C137.13 317.023 137.127 317.214 137.329 317.331L142.449 320.286C142.651 320.403 142.982 320.402 143.188 320.283ZM135.359 324.381C135.561 324.498 135.892 324.495 136.097 324.377L140.949 321.575C141.156 321.456 141.158 321.265 140.957 321.148L135.837 318.191C135.635 318.074 135.304 318.077 135.098 318.196L130.246 320.998C130.04 321.116 130.036 321.307 130.238 321.424L135.359 324.381ZM119.123 302.078L114.271 304.879C114.064 304.999 114.062 305.189 114.264 305.306L119.384 308.263C119.586 308.379 119.917 308.377 120.123 308.258L124.975 305.457C125.181 305.338 125.185 305.147 124.983 305.03L119.862 302.073C119.66 301.958 119.329 301.96 119.123 302.078ZM154.579 281.608L149.727 284.409C149.521 284.528 149.518 284.719 149.72 284.835L154.84 287.792C155.042 287.909 155.373 287.907 155.579 287.788L160.431 284.986C160.637 284.867 160.64 284.676 160.439 284.559L155.318 281.603C155.116 281.487 154.785 281.489 154.579 281.608ZM126.214 297.985L121.362 300.786C121.156 300.905 121.153 301.096 121.354 301.212L126.475 304.169C126.677 304.286 127.008 304.284 127.214 304.165L132.066 301.364C132.272 301.244 132.275 301.053 132.073 300.937L126.952 297.981C126.751 297.864 126.421 297.865 126.214 297.985ZM161.67 277.513L156.818 280.315C156.612 280.434 156.609 280.626 156.811 280.742L161.932 283.699C162.134 283.815 162.464 283.814 162.67 283.694L167.523 280.893C167.729 280.774 167.732 280.583 167.53 280.467L162.41 277.51C162.208 277.393 161.877 277.395 161.67 277.513ZM147.488 285.702L142.636 288.503C142.429 288.622 142.426 288.814 142.628 288.93L147.749 291.886C147.952 292.003 148.283 292.001 148.489 291.881L153.34 289.08C153.547 288.962 153.55 288.77 153.348 288.654L148.227 285.698C148.026 285.581 147.694 285.583 147.488 285.702ZM140.396 289.796L135.544 292.597C135.338 292.716 135.334 292.907 135.537 293.024L140.657 295.98C140.859 296.097 141.19 296.095 141.396 295.976L146.248 293.175C146.453 293.055 146.457 292.864 146.255 292.747L141.134 289.791C140.934 289.676 140.603 289.677 140.396 289.796ZM133.306 293.89L128.454 296.691C128.247 296.811 128.244 297.002 128.446 297.118L133.566 300.075C133.768 300.192 134.1 300.189 134.305 300.07L139.157 297.268C139.363 297.15 139.366 296.958 139.164 296.842L134.044 293.886C133.842 293.769 133.512 293.772 133.306 293.89ZM167.597 297.743L172.45 294.942C172.656 294.823 172.659 294.632 172.457 294.516L167.337 291.559C167.135 291.442 166.804 291.445 166.598 291.563L161.746 294.364C161.54 294.484 161.537 294.675 161.739 294.791L166.86 297.747C167.061 297.864 167.391 297.863 167.597 297.743ZM231.837 237.003L226.985 239.804C226.778 239.923 226.776 240.114 226.977 240.231L232.098 243.187C232.3 243.304 232.631 243.302 232.837 243.183L237.689 240.382C237.896 240.263 237.898 240.072 237.697 239.956L232.576 236.999C232.374 236.882 232.043 236.884 231.837 237.003ZM223.252 241.959L218.4 244.761C218.194 244.88 218.191 245.071 218.392 245.188L223.513 248.144C223.715 248.261 224.046 248.259 224.252 248.14L229.104 245.339C229.31 245.22 229.313 245.029 229.111 244.913L223.991 241.956C223.79 241.838 223.459 241.841 223.252 241.959ZM238.928 232.91L234.076 235.711C233.87 235.829 233.866 236.021 234.069 236.138L239.19 239.094C239.391 239.211 239.723 239.209 239.929 239.089L244.781 236.288C244.987 236.169 244.991 235.978 244.788 235.862L239.668 232.905C239.465 232.788 239.135 232.79 238.928 232.91ZM200.964 270.032L205.816 267.231C206.022 267.112 206.025 266.921 205.823 266.805L200.702 263.848C200.5 263.731 200.169 263.734 199.964 263.852L195.111 266.654C194.905 266.773 194.902 266.964 195.104 267.081L200.224 270.037C200.427 270.154 200.757 270.151 200.964 270.032ZM246.759 228.811C246.557 228.695 246.225 228.696 246.02 228.815L241.169 231.616C240.962 231.736 240.959 231.926 241.161 232.043L246.281 234.999C246.483 235.116 246.814 235.114 247.02 234.995L251.872 232.193C252.079 232.074 252.082 231.884 251.88 231.767L246.759 228.811ZM174.689 293.65L179.541 290.849C179.747 290.729 179.75 290.538 179.548 290.422L174.428 287.465C174.225 287.348 173.894 287.351 173.689 287.47L168.837 290.272C168.63 290.39 168.628 290.582 168.83 290.698L173.95 293.655C174.151 293.77 174.483 293.768 174.689 293.65ZM261.65 243.442L266.503 240.641C266.709 240.522 266.712 240.33 266.51 240.214L261.389 237.259C261.187 237.142 260.857 237.143 260.65 237.263L255.798 240.064C255.593 240.183 255.588 240.374 255.79 240.49L260.911 243.446C261.113 243.562 261.444 243.561 261.65 243.442ZM247.244 243.313L252.096 240.511C252.301 240.392 252.305 240.201 252.103 240.084L246.982 237.128C246.781 237.011 246.449 237.013 246.244 237.132L241.391 239.933C241.185 240.053 241.182 240.244 241.384 240.36L246.504 243.316C246.706 243.434 247.037 243.432 247.244 243.313ZM254.074 233.034C253.873 232.917 253.541 232.92 253.335 233.039L248.483 235.84C248.277 235.959 248.274 236.151 248.476 236.267L253.597 239.224C253.799 239.341 254.13 239.338 254.335 239.219L259.187 236.418C259.394 236.299 259.397 236.108 259.195 235.992L254.074 233.034ZM255.567 232.172L268.002 239.353C268.204 239.469 268.535 239.467 268.741 239.348L273.593 236.547C273.8 236.428 273.803 236.237 273.601 236.121L261.165 228.941C260.962 228.825 260.631 228.826 260.425 228.945L255.573 231.746C255.368 231.864 255.365 232.056 255.567 232.172ZM239.152 241.227L234.3 244.028C234.093 244.146 234.09 244.338 234.292 244.454L239.413 247.41C239.616 247.527 239.947 247.525 240.152 247.406L245.004 244.605C245.21 244.485 245.214 244.294 245.012 244.178L239.892 241.221C239.689 241.106 239.358 241.108 239.152 241.227ZM185.781 272.04L180.929 274.842C180.723 274.961 180.719 275.153 180.921 275.269L186.042 278.225C186.244 278.342 186.575 278.34 186.781 278.221L191.633 275.42C191.839 275.301 191.842 275.11 191.64 274.994L186.519 272.037C186.318 271.919 185.987 271.922 185.781 272.04ZM253.82 247.54C254.021 247.657 254.353 247.654 254.559 247.536L259.411 244.735C259.617 244.615 259.62 244.424 259.418 244.308L254.297 241.351C254.096 241.234 253.764 241.237 253.559 241.356L248.707 244.157C248.5 244.276 248.497 244.467 248.699 244.584L253.82 247.54ZM192.872 267.947L188.02 270.748C187.813 270.867 187.811 271.058 188.013 271.174L193.133 274.131C193.335 274.248 193.666 274.245 193.872 274.127L198.724 271.325C198.931 271.206 198.934 271.014 198.732 270.898L193.612 267.942C193.409 267.826 193.078 267.827 192.872 267.947ZM138.493 314.124C138.695 314.241 139.026 314.239 139.232 314.12L144.084 311.319C144.29 311.2 144.293 311.009 144.091 310.893L138.971 307.936C138.768 307.819 138.438 307.822 138.232 307.94L133.38 310.742C133.173 310.861 133.171 311.053 133.372 311.169L138.493 314.124ZM129.05 304.793L124.198 307.595C123.992 307.714 123.989 307.906 124.191 308.022L129.312 310.979C129.514 311.096 129.845 311.093 130.051 310.974L134.903 308.173C135.109 308.054 135.113 307.863 134.91 307.747L129.789 304.79C129.588 304.673 129.257 304.675 129.05 304.793ZM146.324 310.026L151.176 307.225C151.382 307.106 151.386 306.914 151.183 306.798L146.062 303.842C145.86 303.725 145.529 303.727 145.323 303.847L140.471 306.648C140.266 306.766 140.262 306.958 140.464 307.074L145.586 310.03C145.786 310.146 146.117 310.145 146.324 310.026ZM153.414 305.932L158.266 303.131C158.473 303.012 158.476 302.821 158.274 302.705L153.153 299.748C152.952 299.631 152.62 299.633 152.414 299.752L147.562 302.553C147.356 302.673 147.352 302.864 147.555 302.98L152.676 305.936C152.878 306.053 153.209 306.051 153.414 305.932ZM160.506 301.838L165.358 299.037C165.564 298.917 165.567 298.726 165.366 298.609L160.245 295.653C160.043 295.536 159.713 295.538 159.507 295.658L154.654 298.459C154.448 298.577 154.445 298.769 154.647 298.885L159.767 301.842C159.969 301.958 160.299 301.956 160.506 301.838ZM136.142 300.7L131.29 303.501C131.084 303.62 131.081 303.811 131.282 303.927L136.403 306.883C136.606 307 136.936 306.999 137.142 306.879L141.994 304.078C142.201 303.959 142.203 303.768 142.002 303.651L136.882 300.696C136.679 300.579 136.348 300.58 136.142 300.7ZM143.234 296.605L138.381 299.406C138.175 299.526 138.172 299.717 138.374 299.833L143.494 302.79C143.696 302.907 144.027 302.904 144.233 302.785L149.085 299.983C149.291 299.865 149.294 299.674 149.092 299.557L143.971 296.6C143.77 296.485 143.439 296.487 143.234 296.605ZM171.598 280.229L166.746 283.03C166.54 283.15 166.537 283.341 166.739 283.457L171.86 286.413C172.062 286.53 172.393 286.528 172.598 286.408L177.45 283.607C177.657 283.489 177.66 283.297 177.458 283.181L172.337 280.225C172.136 280.108 171.805 280.11 171.598 280.229ZM164.507 284.323L159.655 287.124C159.45 287.243 159.445 287.434 159.648 287.55L164.769 290.507C164.971 290.624 165.302 290.622 165.508 290.503L170.36 287.702C170.566 287.582 170.57 287.391 170.367 287.274L165.247 284.318C165.044 284.202 164.713 284.204 164.507 284.323ZM178.69 276.135L173.838 278.936C173.631 279.055 173.629 279.246 173.83 279.362L178.95 282.319C179.152 282.436 179.483 282.433 179.689 282.315L184.541 279.513C184.748 279.394 184.75 279.203 184.548 279.086L179.428 276.13C179.226 276.014 178.896 276.016 178.69 276.135ZM150.325 292.511L145.473 295.313C145.267 295.432 145.263 295.623 145.465 295.739L150.586 298.696C150.788 298.813 151.118 298.811 151.324 298.692L156.177 295.891C156.383 295.771 156.386 295.581 156.184 295.464L151.063 292.508C150.862 292.391 150.531 292.392 150.325 292.511ZM157.416 288.417L152.564 291.218C152.357 291.338 152.354 291.529 152.557 291.645L157.677 294.602C157.879 294.719 158.21 294.716 158.416 294.597L163.268 291.795C163.475 291.677 163.478 291.486 163.276 291.369L158.155 288.412C157.953 288.296 157.621 288.299 157.416 288.417ZM150.28 316.188L155.132 313.387C155.338 313.268 155.341 313.077 155.139 312.96L150.018 310.003C149.816 309.886 149.485 309.888 149.279 310.008L144.427 312.809C144.221 312.928 144.217 313.119 144.42 313.235L149.54 316.192C149.743 316.309 150.073 316.307 150.28 316.188ZM110.8 313.219L105.679 310.262C105.477 310.145 105.147 310.148 104.94 310.267L100.088 313.068C99.8819 313.186 99.8784 313.377 100.081 313.494L105.201 316.451C105.403 316.567 105.734 316.565 105.941 316.446L110.793 313.645C110.998 313.527 111.002 313.336 110.8 313.219ZM120.727 315.935L115.607 312.979C115.405 312.862 115.075 312.864 114.868 312.983L107.403 317.293C107.197 317.411 107.194 317.603 107.397 317.719L112.517 320.675C112.719 320.792 113.049 320.79 113.256 320.671L120.721 316.361C120.926 316.242 120.929 316.051 120.727 315.935ZM103.042 307.447L97.9211 304.491C97.719 304.374 97.3887 304.376 97.1823 304.495L91.2105 307.943C91.0049 308.061 91.0006 308.253 91.2027 308.369L96.3232 311.326C96.5253 311.443 96.8564 311.44 97.0619 311.322L103.034 307.874C103.24 307.754 103.244 307.564 103.042 307.447ZM107.62 304.804C107.821 304.921 108.152 304.918 108.359 304.799L113.211 301.998C113.417 301.879 113.421 301.688 113.219 301.571L108.098 298.614C107.896 298.497 107.565 298.5 107.359 298.619L102.507 301.42C102.301 301.539 102.298 301.73 102.5 301.846L107.62 304.804ZM129.909 319.08L124.788 316.123C124.586 316.007 124.255 316.009 124.05 316.128L114.719 321.515C114.512 321.635 114.51 321.826 114.712 321.942L119.832 324.899C120.034 325.016 120.364 325.013 120.571 324.894L129.902 319.507C130.107 319.388 130.111 319.197 129.909 319.08ZM133.866 325.243L128.744 322.287C128.543 322.17 128.212 322.171 128.006 322.291L122.034 325.739C121.827 325.857 121.824 326.049 122.026 326.165L127.146 329.122C127.349 329.239 127.68 329.236 127.885 329.118L133.857 325.67C134.064 325.55 134.067 325.36 133.866 325.243ZM160.344 274.363C160.545 274.48 160.876 274.478 161.083 274.359L165.935 271.557C166.141 271.438 166.145 271.247 165.943 271.131L160.822 268.174C160.62 268.057 160.289 268.059 160.083 268.178L155.231 270.979C155.025 271.099 155.022 271.29 155.224 271.406L160.344 274.363ZM146.161 282.552C146.363 282.669 146.694 282.667 146.9 282.548L151.752 279.746C151.958 279.627 151.961 279.436 151.759 279.319L146.638 276.363C146.436 276.246 146.106 276.248 145.9 276.367L141.047 279.168C140.841 279.288 140.838 279.479 141.04 279.595L146.161 282.552ZM114.711 300.709C114.913 300.826 115.244 300.825 115.45 300.705L120.302 297.904C120.508 297.785 120.512 297.594 120.309 297.477L115.189 294.521C114.987 294.405 114.657 294.406 114.45 294.525L109.598 297.326C109.393 297.445 109.388 297.637 109.591 297.753L114.711 300.709ZM153.253 278.458C153.455 278.575 153.786 278.573 153.991 278.453L158.843 275.652C159.05 275.534 159.052 275.342 158.85 275.226L153.73 272.269C153.528 272.153 153.198 272.154 152.991 272.273L148.139 275.074C147.933 275.193 147.929 275.385 148.131 275.501L153.253 278.458ZM139.07 286.646C139.272 286.762 139.604 286.76 139.809 286.641L144.661 283.84C144.868 283.722 144.871 283.53 144.669 283.414L139.549 280.458C139.346 280.342 139.015 280.343 138.81 280.462L133.958 283.263C133.751 283.383 133.749 283.574 133.951 283.69L139.07 286.646ZM137.552 325.648C137.35 325.532 137.019 325.533 136.814 325.653L129.349 329.962C129.143 330.081 129.14 330.272 129.341 330.389L134.462 333.345C134.664 333.462 134.994 333.46 135.2 333.34L142.665 329.031C142.872 328.912 142.874 328.72 142.672 328.604L137.552 325.648ZM128.893 292.521C129.095 292.638 129.426 292.636 129.632 292.517L134.484 289.716C134.69 289.596 134.693 289.405 134.492 289.289L129.371 286.333C129.169 286.216 128.838 286.218 128.632 286.337L123.78 289.138C123.573 289.257 123.571 289.448 123.772 289.565L128.893 292.521ZM121.802 296.616C122.004 296.732 122.335 296.73 122.54 296.611L127.392 293.81C127.599 293.691 127.602 293.499 127.4 293.383L122.28 290.426C122.078 290.309 121.746 290.312 121.541 290.431L116.689 293.232C116.482 293.351 116.48 293.541 116.682 293.658L121.802 296.616ZM268.928 249.799C268.726 249.682 268.395 249.684 268.189 249.803L256.246 256.699C256.04 256.818 256.036 257.009 256.238 257.125L261.36 260.081C261.561 260.198 261.892 260.196 262.098 260.077L274.041 253.181C274.248 253.063 274.251 252.872 274.049 252.755L268.928 249.799ZM253.253 258.849C253.05 258.732 252.72 258.734 252.514 258.853L247.662 261.654C247.455 261.774 247.453 261.965 247.654 262.081L252.774 265.037C252.976 265.154 253.308 265.152 253.514 265.032L258.366 262.231C258.572 262.113 258.575 261.921 258.374 261.805L253.253 258.849ZM157.371 312.094L162.223 309.293C162.429 309.173 162.432 308.983 162.23 308.866L157.11 305.91C156.908 305.793 156.576 305.795 156.371 305.914L151.519 308.716C151.312 308.835 151.309 309.026 151.511 309.142L156.632 312.099C156.834 312.215 157.165 312.214 157.371 312.094ZM239.07 267.037C238.868 266.92 238.537 266.923 238.332 267.041L233.479 269.842C233.273 269.962 233.27 270.153 233.473 270.269L238.593 273.225C238.795 273.342 239.126 273.34 239.332 273.221L244.184 270.419C244.39 270.301 244.394 270.109 244.192 269.993L239.07 267.037ZM276.019 245.705C275.817 245.588 275.486 245.59 275.281 245.709L270.428 248.511C270.223 248.629 270.219 248.821 270.422 248.937L275.542 251.894C275.744 252.011 276.075 252.008 276.281 251.89L281.133 249.089C281.339 248.969 281.342 248.778 281.141 248.662L276.019 245.705ZM288.231 244.567L275.795 237.387C275.593 237.27 275.263 237.272 275.056 237.391L270.204 240.193C269.998 240.312 269.994 240.503 270.197 240.619L282.633 247.8C282.835 247.917 283.166 247.914 283.371 247.795L288.224 244.993C288.43 244.875 288.433 244.683 288.231 244.567ZM212.571 282.336C212.369 282.219 212.038 282.222 211.832 282.341L205.861 285.788C205.654 285.907 205.651 286.099 205.853 286.216L210.973 289.172C211.175 289.289 211.506 289.287 211.712 289.167L217.684 285.72C217.89 285.601 217.894 285.409 217.692 285.293L212.571 282.336ZM230.486 271.993C230.284 271.876 229.953 271.879 229.747 271.997L222.282 276.308C222.076 276.426 222.073 276.617 222.274 276.734L227.395 279.691C227.597 279.808 227.927 279.805 228.134 279.687L235.598 275.377C235.805 275.258 235.808 275.068 235.606 274.951L230.486 271.993ZM196.149 291.818C195.947 291.701 195.616 291.703 195.411 291.822L155.476 314.879C155.269 314.997 155.266 315.189 155.468 315.305L160.588 318.262C160.79 318.379 161.121 318.377 161.327 318.258L201.262 295.201C201.468 295.081 201.472 294.891 201.27 294.774L196.149 291.818ZM153.975 316.167C153.773 316.05 153.442 316.053 153.236 316.171L147.264 319.619C147.058 319.738 147.055 319.929 147.258 320.046L152.378 323.002C152.58 323.118 152.911 323.117 153.117 322.997L159.089 319.549C159.294 319.431 159.298 319.24 159.095 319.123L153.975 316.167ZM204.36 287.077C204.158 286.96 203.827 286.962 203.621 287.081L197.65 290.529C197.444 290.648 197.44 290.839 197.642 290.955L202.763 293.911C202.965 294.028 203.296 294.026 203.502 293.908L209.473 290.46C209.679 290.341 209.681 290.15 209.479 290.033L204.36 287.077ZM145.764 320.907C145.562 320.79 145.231 320.793 145.025 320.912L139.053 324.359C138.847 324.479 138.844 324.67 139.046 324.786L144.167 327.743C144.369 327.86 144.699 327.857 144.905 327.738L150.877 324.291C151.084 324.171 151.087 323.98 150.885 323.864L145.764 320.907ZM220.782 277.596C220.58 277.479 220.25 277.481 220.044 277.6L214.072 281.048C213.866 281.167 213.863 281.358 214.065 281.475L219.185 284.431C219.387 284.548 219.719 284.546 219.924 284.427L225.896 280.979C226.102 280.861 226.105 280.669 225.903 280.553L220.782 277.596ZM246.161 262.942C245.959 262.825 245.628 262.828 245.421 262.947L240.569 265.748C240.363 265.866 240.36 266.057 240.562 266.174L245.683 269.131C245.885 269.247 246.216 269.245 246.422 269.127L251.274 266.326C251.48 266.206 251.483 266.015 251.281 265.899L246.161 262.942ZM261.874 251.759L266.726 248.958C266.933 248.838 266.936 248.648 266.734 248.531L261.613 245.576C261.411 245.459 261.08 245.46 260.875 245.58L256.023 248.381C255.817 248.5 255.814 248.691 256.015 248.807L261.136 251.763C261.337 251.88 261.669 251.879 261.874 251.759ZM231.568 252.363L236.421 249.562C236.627 249.443 236.63 249.251 236.428 249.135L231.307 246.179C231.105 246.062 230.775 246.064 230.568 246.184L225.716 248.985C225.51 249.104 225.506 249.295 225.708 249.411L230.829 252.367C231.031 252.484 231.362 252.482 231.568 252.363ZM214.101 279.341L228.283 271.153C228.49 271.034 228.492 270.842 228.29 270.726L223.17 267.77C222.968 267.654 222.637 267.655 222.431 267.774L208.249 275.962C208.042 276.081 208.039 276.272 208.241 276.389L213.361 279.344C213.564 279.462 213.895 279.46 214.101 279.341ZM254.044 255.858C254.246 255.975 254.577 255.972 254.782 255.853L259.635 253.052C259.841 252.933 259.844 252.742 259.642 252.626L254.522 249.669C254.321 249.553 253.99 249.555 253.783 249.673L248.931 252.475C248.725 252.594 248.722 252.786 248.923 252.902L254.044 255.858ZM247.467 251.631L252.319 248.829C252.525 248.71 252.528 248.519 252.326 248.402L247.206 245.446C247.004 245.329 246.673 245.331 246.467 245.45L241.615 248.251C241.409 248.371 241.405 248.562 241.607 248.678L246.728 251.634C246.931 251.751 247.262 251.75 247.467 251.631ZM207.01 283.435L211.862 280.633C212.069 280.515 212.072 280.324 211.87 280.207L206.75 277.25C206.548 277.133 206.217 277.136 206.01 277.255L201.158 280.056C200.952 280.175 200.949 280.366 201.151 280.483L206.272 283.44C206.473 283.556 206.804 283.554 207.01 283.435ZM238.369 264.908C238.571 265.025 238.902 265.023 239.107 264.904L243.959 262.102C244.166 261.984 244.168 261.792 243.967 261.676L238.846 258.719C238.644 258.602 238.313 258.605 238.107 258.723L233.255 261.524C233.049 261.644 233.045 261.835 233.248 261.951L238.369 264.908ZM171.553 303.906L176.406 301.104C176.611 300.985 176.615 300.794 176.413 300.678L171.293 297.721C171.091 297.604 170.76 297.606 170.554 297.725L165.702 300.527C165.496 300.646 165.493 300.837 165.694 300.954L170.815 303.91C171.017 304.027 171.348 304.025 171.553 303.906ZM178.645 299.812L183.497 297.01C183.703 296.891 183.706 296.7 183.504 296.584L178.384 293.627C178.181 293.511 177.851 293.513 177.645 293.632L172.793 296.433C172.586 296.552 172.584 296.744 172.785 296.86L177.906 299.816C178.108 299.933 178.439 299.931 178.645 299.812ZM164.463 308L169.315 305.199C169.521 305.081 169.525 304.889 169.322 304.773L164.201 301.817C163.999 301.7 163.668 301.702 163.463 301.821L158.61 304.622C158.404 304.741 158.401 304.933 158.603 305.049L163.723 308.006C163.925 308.121 164.256 308.119 164.463 308ZM192.827 291.623L197.679 288.822C197.886 288.703 197.889 288.512 197.687 288.396L192.567 285.439C192.365 285.322 192.033 285.325 191.827 285.443L186.975 288.244C186.769 288.363 186.766 288.554 186.968 288.671L192.088 291.628C192.291 291.745 192.622 291.742 192.827 291.623ZM185.736 295.718L190.588 292.917C190.794 292.798 190.798 292.607 190.596 292.49L185.474 289.534C185.273 289.417 184.941 289.418 184.735 289.538L179.883 292.339C179.678 292.458 179.674 292.649 179.876 292.766L184.997 295.722C185.199 295.838 185.53 295.837 185.736 295.718ZM199.919 287.529L204.771 284.728C204.977 284.609 204.98 284.417 204.779 284.301L199.658 281.346C199.456 281.229 199.125 281.23 198.919 281.35L194.067 284.151C193.861 284.27 193.858 284.461 194.06 284.577L199.181 287.534C199.381 287.65 199.712 287.649 199.919 287.529ZM235.524 228.789C235.726 228.905 236.057 228.904 236.262 228.785L241.114 225.983C241.321 225.864 241.323 225.673 241.122 225.557L239.759 224.77C239.557 224.653 239.226 224.655 239.02 224.774L234.167 227.576C233.962 227.694 233.958 227.885 234.161 228.002L235.524 228.789ZM200.454 251.206C200.655 251.323 200.986 251.321 201.192 251.202L206.045 248.401C206.25 248.282 206.254 248.091 206.052 247.974L200.932 245.018C200.73 244.901 200.399 244.903 200.193 245.022L195.341 247.824C195.135 247.942 195.131 248.134 195.333 248.25L200.454 251.206ZM214.636 243.018C214.838 243.135 215.169 243.132 215.375 243.014L220.227 240.213C220.433 240.093 220.436 239.903 220.235 239.786L215.113 236.829C214.911 236.712 214.58 236.715 214.375 236.834L209.522 239.635C209.317 239.753 209.313 239.945 209.516 240.061L214.636 243.018ZM191.794 256.205C191.996 256.322 192.327 256.32 192.533 256.201L197.385 253.4C197.592 253.281 197.594 253.089 197.392 252.973L192.272 250.017C192.07 249.901 191.738 249.902 191.533 250.022L186.681 252.823C186.474 252.942 186.471 253.133 186.673 253.249L191.794 256.205ZM207.544 247.112C207.746 247.229 208.078 247.227 208.283 247.108L213.135 244.306C213.341 244.188 213.344 243.996 213.142 243.88L208.022 240.923C207.82 240.806 207.489 240.808 207.283 240.927L202.431 243.728C202.224 243.848 202.221 244.039 202.423 244.155L207.544 247.112ZM177.611 264.394C177.813 264.51 178.144 264.508 178.35 264.389L183.202 261.588C183.409 261.469 183.412 261.277 183.21 261.161L178.089 258.205C177.887 258.088 177.556 258.089 177.35 258.209L172.498 261.01C172.291 261.13 172.289 261.32 172.491 261.437L177.611 264.394ZM184.703 260.3C184.905 260.416 185.236 260.414 185.442 260.295L190.294 257.493C190.5 257.375 190.503 257.184 190.301 257.067L185.18 254.11C184.978 253.993 184.648 253.996 184.441 254.115L179.589 256.916C179.383 257.035 179.38 257.226 179.581 257.342L184.703 260.3ZM221.341 236.977C221.543 237.094 221.875 237.092 222.08 236.973L226.932 234.171C227.139 234.052 227.141 233.862 226.94 233.745L225.577 232.958C225.375 232.841 225.044 232.843 224.838 232.962L219.986 235.764C219.78 235.883 219.776 236.073 219.978 236.19L221.341 236.977ZM242.615 224.695C242.817 224.812 243.148 224.81 243.354 224.691L248.206 221.889C248.412 221.77 248.415 221.579 248.213 221.463L246.85 220.676C246.648 220.56 246.317 220.562 246.111 220.681L241.259 223.482C241.053 223.601 241.049 223.793 241.251 223.909L242.615 224.695ZM253.372 230.905C253.574 231.022 253.905 231.019 254.111 230.901L258.963 228.1C259.169 227.98 259.172 227.789 258.971 227.673L253.849 224.716C253.648 224.599 253.316 224.602 253.111 224.721L248.259 227.522C248.052 227.641 248.049 227.833 248.252 227.949L253.372 230.905ZM268.966 247.665L273.818 244.864C274.024 244.745 274.028 244.554 273.825 244.437L268.705 241.48C268.504 241.363 268.172 241.366 267.966 241.485L263.114 244.286C262.909 244.405 262.905 244.596 263.107 244.712L268.228 247.669C268.428 247.787 268.759 247.784 268.966 247.665ZM228.433 232.883C228.635 233 228.965 232.998 229.172 232.879L234.024 230.078C234.23 229.959 234.234 229.767 234.032 229.651L232.668 228.864C232.466 228.747 232.135 228.749 231.93 228.868L227.078 231.669C226.872 231.789 226.869 231.98 227.071 232.096L228.433 232.883ZM170.521 268.488C170.723 268.605 171.054 268.602 171.259 268.483L176.111 265.682C176.318 265.563 176.321 265.372 176.119 265.256L170.999 262.299C170.797 262.182 170.465 262.185 170.26 262.303L165.408 265.105C165.202 265.224 165.199 265.415 165.401 265.532L170.521 268.488Z" fill="#455A64"/>
<path d="M196.494 310.176L240.195 284.946C241.512 284.185 243.647 284.185 244.964 284.946L270.023 299.413C271.34 300.174 271.34 301.407 270.023 302.167L226.322 327.398C225.006 328.158 222.87 328.158 221.553 327.398L196.494 312.93C195.176 312.169 195.176 310.936 196.494 310.176Z" fill="#263238"/>
<path d="M189.101 118.888C175.439 131.155 163.641 130.512 156.265 124.833C148.896 139.032 137.098 153.292 123.436 156.798L115.636 177.866C115.636 177.866 119.816 182.683 119.816 194.209C119.816 199.404 119.021 203.971 117.885 208.506C116.462 214.194 114.629 220.078 114.629 229.9C114.629 236.564 115.507 243.039 118.877 248.931C120.823 252.339 123.633 255.224 127.42 257.489C124.898 256.034 117.476 251.748 115.56 250.643C111.547 248.333 108.593 245.364 106.571 241.828C103.2 235.928 102.322 229.461 102.322 222.797C102.322 212.975 104.155 207.091 105.578 201.396C106.714 196.867 107.517 192.301 107.517 187.106C107.517 175.58 103.336 170.764 103.336 170.764L111.129 149.695C124.791 146.189 136.589 131.929 143.957 117.73C151.334 123.409 163.132 124.054 176.794 111.785L189.101 118.888Z" fill="#008037"/>
<path opacity="0.8" d="M148.284 120.226L143.959 117.729C145.265 118.736 146.714 119.579 148.284 120.226Z" fill="#EBEBEB"/>
<path opacity="0.85" d="M176.795 111.784C165.554 121.879 155.576 123.227 148.284 120.226L156.265 124.833C163.641 130.512 175.44 131.157 189.101 118.888L176.795 111.784Z" fill="#EBEBEB"/>
<path opacity="0.65" d="M143.96 117.73C136.591 131.929 124.793 146.189 111.131 149.695L123.437 156.799C137.099 153.293 148.897 139.033 156.265 124.833L143.96 117.73Z" fill="#EBEBEB"/>
<path opacity="0.55" d="M111.13 149.695L103.337 170.762L115.636 177.866L123.436 156.798L111.13 149.695Z" fill="#EBEBEB"/>
<path opacity="0.4" d="M118.876 248.931C115.506 243.039 114.628 236.564 114.628 229.9C114.628 220.078 116.461 214.194 117.884 208.507C119.02 203.97 119.816 199.405 119.816 194.209C119.816 182.684 115.635 177.867 115.635 177.867L103.336 170.763C103.336 170.763 107.517 175.58 107.517 187.106C107.517 192.301 106.713 196.868 105.578 201.396C104.155 207.09 102.322 212.975 102.322 222.797C102.322 229.461 103.2 235.928 106.571 241.828C108.593 245.364 111.546 248.333 115.56 250.643C117.476 251.749 124.897 256.035 127.42 257.488C123.632 255.224 120.823 252.339 118.876 248.931Z" fill="#EBEBEB"/>
<path opacity="0.05" d="M118.876 248.931C115.506 243.039 114.628 236.564 114.628 229.9C114.628 220.078 116.461 214.194 117.884 208.507C119.02 203.97 119.816 199.405 119.816 194.209C119.816 182.684 115.635 177.867 115.635 177.867L103.336 170.763C103.336 170.763 107.517 175.58 107.517 187.106C107.517 192.301 106.713 196.868 105.578 201.396C104.155 207.09 102.322 212.975 102.322 222.797C102.322 229.461 103.2 235.928 106.571 241.828C108.593 245.364 111.546 248.333 115.56 250.643C117.476 251.749 124.897 256.035 127.42 257.488C123.632 255.224 120.823 252.339 118.876 248.931Z" fill="black"/>
<path d="M156.268 263.361C135.863 263.587 124.174 258.206 118.876 248.929C115.509 243.036 114.631 236.562 114.631 229.898C114.631 220.077 116.458 214.195 117.884 208.503C119.019 203.973 119.82 199.403 119.82 194.212C119.82 182.686 115.64 177.869 115.64 177.869L123.436 156.797C137.097 153.291 148.895 139.029 156.268 124.829C163.641 130.515 175.439 131.154 189.1 118.886L196.896 130.956C196.896 130.956 192.715 140.599 192.715 152.125C192.715 157.316 193.516 160.961 194.651 164.181C196.077 168.227 197.905 172 197.905 181.82C197.905 188.483 197.027 195.97 193.66 205.752C188.361 221.147 176.672 240.026 156.268 263.361Z" fill="#008037"/>
<path opacity="0.75" d="M156.268 263.361C135.863 263.587 124.174 258.206 118.876 248.929C115.509 243.036 114.631 236.562 114.631 229.898C114.631 220.077 116.458 214.195 117.884 208.503C119.019 203.973 119.82 199.403 119.82 194.212C119.82 182.686 115.64 177.869 115.64 177.869L123.436 156.797C137.097 153.291 148.895 139.029 156.268 124.829C163.641 130.515 175.439 131.154 189.1 118.886L196.896 130.956C196.896 130.956 192.715 140.599 192.715 152.125C192.715 157.316 193.516 160.961 194.651 164.181C196.077 168.227 197.905 172 197.905 181.82C197.905 188.483 197.027 195.97 193.66 205.752C188.361 221.147 176.672 240.026 156.268 263.361Z" fill="#EBEBEB"/>
<path opacity="0.75" d="M153.851 258.059C138.045 257.871 127.829 253.918 123.477 246.3C121.025 242.005 119.932 236.947 119.932 229.898C119.932 221.832 121.254 216.692 122.533 211.72C122.7 211.071 122.866 210.429 123.026 209.79C124.475 204.008 125.121 199.203 125.121 194.211C125.121 185.814 123.108 180.315 121.511 177.273L127.494 161.103C142.116 156.02 152.684 141.583 158.283 132.113C161.261 133.384 164.483 134.042 167.823 134.042C174.431 134.042 181.146 131.583 187.848 126.72L190.993 131.587C189.629 135.533 187.414 143.299 187.414 152.125C187.414 157.291 188.104 161.552 189.65 165.942C189.815 166.41 189.985 166.872 190.155 167.339C191.414 170.775 192.602 174.021 192.602 181.82C192.602 189.229 191.382 196.078 188.646 204.026C183.432 219.18 171.729 237.351 153.851 258.059Z" fill="#008037"/>
<path opacity="0.4" d="M153.851 258.059C138.045 257.871 127.829 253.918 123.477 246.3C121.025 242.005 119.932 236.947 119.932 229.898C119.932 221.832 121.254 216.692 122.533 211.72C122.7 211.071 122.866 210.429 123.026 209.79C124.475 204.008 125.121 199.203 125.121 194.211C125.121 185.814 123.108 180.315 121.511 177.273L127.494 161.103C142.116 156.02 152.684 141.583 158.283 132.113C161.261 133.384 164.483 134.042 167.823 134.042C174.431 134.042 181.146 131.583 187.848 126.72L190.993 131.587C189.629 135.533 187.414 143.299 187.414 152.125C187.414 157.291 188.104 161.552 189.65 165.942C189.815 166.41 189.985 166.872 190.155 167.339C191.414 170.775 192.602 174.021 192.602 181.82C192.602 189.229 191.382 196.078 188.646 204.026C183.432 219.18 171.729 237.351 153.851 258.059Z" fill="#EBEBEB"/>
<path opacity="0.15" d="M153.851 258.059C138.045 257.871 127.829 253.918 123.477 246.3C121.025 242.005 119.932 236.947 119.932 229.898C119.932 221.832 121.254 216.692 122.533 211.72C122.7 211.071 122.866 210.429 123.026 209.79C124.475 204.008 125.121 199.203 125.121 194.211C125.121 185.814 123.108 180.315 121.511 177.273L127.494 161.103C142.116 156.02 152.684 141.583 158.283 132.113C161.261 133.384 164.483 134.042 167.823 134.042C174.431 134.042 181.146 131.583 187.848 126.72L190.993 131.587C189.629 135.533 187.414 143.299 187.414 152.125C187.414 157.291 188.104 161.552 189.65 165.942C189.815 166.41 189.985 166.872 190.155 167.339C191.414 170.775 192.602 174.021 192.602 181.82C192.602 189.229 191.382 196.078 188.646 204.026C183.432 219.18 171.729 237.351 153.851 258.059Z" fill="black"/>
<path opacity="0.8" d="M127.099 250.683C132.482 255.43 141.433 257.913 153.852 258.06L145.927 253.546C138.837 253.503 132.528 252.586 127.099 250.683Z" fill="#EBEBEB"/>
<path opacity="0.15" d="M186.866 129.207L190.993 131.588L187.849 126.72L186.059 127.956L186.866 129.207Z" fill="black"/>
<path d="M185.522 163.563C183.976 159.173 183.286 154.911 183.286 149.746C183.286 140.92 185.501 133.153 186.865 129.208L186.057 127.958C179.951 131.996 173.842 134.044 167.823 134.044C164.483 134.044 161.261 133.387 158.283 132.115C152.684 141.585 142.116 156.022 127.494 161.106L121.511 177.275C123.108 180.317 125.121 185.817 125.121 194.213C125.121 199.205 124.474 204.01 123.026 209.793C122.866 210.432 122.701 211.073 122.533 211.723C121.254 216.694 119.932 221.834 119.932 229.9C119.932 236.949 121.026 242.007 123.477 246.302C124.715 248.469 126.444 250.328 128.623 251.899C133.905 254.307 140.949 255.576 149.724 255.68C167.601 234.972 179.305 216.8 184.519 201.648C187.255 193.699 188.475 186.851 188.475 179.442C188.475 171.643 187.287 168.397 186.028 164.961C185.857 164.492 185.687 164.03 185.522 163.563Z" fill="#455A64"/>
<path d="M127.494 161.105L121.511 177.275C123.108 180.317 125.121 185.816 125.121 194.213C125.121 199.205 124.474 204.01 123.026 209.792C122.866 210.431 122.701 211.073 122.533 211.722C121.254 216.694 119.932 221.834 119.932 229.9C119.932 236.949 121.026 242.007 123.477 246.302C124.715 248.468 126.444 250.328 128.623 251.899C133.905 254.307 140.949 255.575 149.724 255.679V196.098L158.283 193.509V132.115C155.891 136.197 153.075 140.28 149.724 144.363C144.001 151.262 136.521 157.967 127.494 161.105Z" fill="#37474F"/>
<path d="M170.383 174.079C170.301 173.918 170.19 173.762 170.059 173.61C170.044 173.594 170.033 173.576 170.018 173.56C169.791 173.31 169.494 173.074 169.129 172.864L166.261 171.208C165.775 170.928 165.213 170.717 164.613 170.576C164.274 170.497 163.92 170.445 163.563 170.411V161.928C163.563 157.675 161.956 154.308 159.153 152.69C156.479 151.145 153.171 151.355 149.839 153.279C143.718 156.812 138.923 165.436 138.923 172.91V182.925L133.218 186.218C133.038 186.323 132.88 186.434 132.733 186.549C132.682 186.589 132.627 186.629 132.579 186.67C132.567 186.68 132.558 186.692 132.545 186.703C132.021 187.175 131.758 187.715 131.759 188.256V222.592C131.758 222.74 131.783 222.888 131.822 223.035C131.952 223.535 132.31 224.018 132.898 224.427C132.998 224.497 133.103 224.565 133.217 224.63L134.611 225.436L136.087 226.289C136.622 226.6 137.256 226.814 137.928 226.951C139.685 227.314 141.721 227.099 143.128 226.286L169.128 211.275C170.1 210.714 170.586 209.978 170.586 209.242V174.898C170.589 174.622 170.521 174.346 170.383 174.079ZM144.543 172.91C144.543 167.444 148.254 160.682 152.648 158.145C154.146 157.28 155.493 157.066 156.345 157.556C157.346 158.135 157.945 159.769 157.945 161.928V171.942L150.552 176.211L144.544 179.68V172.91H144.543Z" fill="#263238"/>
<path d="M173.617 176.412C173.617 175.676 173.131 174.94 172.159 174.378L169.29 172.722C167.345 171.599 164.191 171.599 162.245 172.722L136.247 187.732C135.273 188.295 134.787 189.032 134.788 189.769V224.106C134.786 224.844 135.271 225.582 136.247 226.145L139.114 227.801C141.059 228.924 144.213 228.924 146.159 227.801L172.159 212.79C173.131 212.229 173.617 211.492 173.617 210.756V176.412Z" fill="#008037"/>
<path opacity="0.4" d="M139.115 193.456L136.248 191.801C134.303 190.678 134.303 188.856 136.248 187.733L162.246 172.722C164.191 171.599 167.346 171.599 169.291 172.722L172.159 174.379C174.104 175.502 174.104 177.323 172.159 178.446L146.16 193.456C144.214 194.579 141.06 194.579 139.115 193.456Z" fill="#EBEBEB"/>
<path opacity="0.1" d="M142.641 194.298V228.643C141.364 228.643 140.087 228.366 139.119 227.805L136.247 226.146C135.271 225.585 134.783 224.844 134.791 224.105V189.768C134.791 190.508 135.271 191.24 136.247 191.801L139.119 193.461C140.086 194.021 141.364 194.298 142.641 194.298Z" fill="black"/>
<path d="M161.56 211.285L155.352 214.87L156.314 203.64C155.572 203.248 155.098 202.281 155.098 200.894C155.098 198.421 156.601 195.549 158.456 194.478C160.31 193.408 161.813 194.544 161.813 197.017C161.813 198.404 161.34 199.916 160.597 201.166L161.56 211.285Z" fill="#455A64"/>
<path d="M161.56 211.286L155.937 208.039L155.353 214.869L161.56 211.286Z" fill="#37474F"/>
<path d="M158.457 194.478C157.243 195.179 156.184 196.651 155.594 198.278L160.599 201.168V201.166C161.341 199.916 161.815 198.404 161.815 197.016C161.814 194.544 160.31 193.408 158.457 194.478Z" fill="#37474F"/>
<path d="M166.592 177.178C166.592 177.176 166.593 177.175 166.593 177.174L166.592 163.443C166.592 159.19 164.985 155.823 162.183 154.205C159.508 152.66 156.201 152.87 152.868 154.794C146.748 158.328 141.953 166.951 141.953 174.424V188.231C141.953 188.645 142.229 189.061 142.777 189.377C143.873 190.01 145.651 190.01 146.747 189.377C147.295 189.061 147.572 188.646 147.572 188.231V174.424C147.572 168.958 151.284 162.197 155.678 159.66C157.176 158.795 158.523 158.581 159.374 159.071C160.376 159.65 160.974 161.284 160.974 163.442V177.173C160.974 177.174 160.974 177.174 160.974 177.175V177.182H160.975C160.98 177.594 161.255 178.005 161.798 178.318C162.895 178.951 164.672 178.951 165.769 178.318C166.313 178.005 166.589 177.593 166.593 177.182H166.594V177.178H166.592Z" fill="#E0E0E0"/>
<path d="M200.009 237.537L203.793 235.353L205.293 233.537L201.509 235.721L200.009 237.537Z" fill="#008037"/>
<path opacity="0.4" d="M200.009 237.537L203.793 235.353L205.293 233.537L201.509 235.721L200.009 237.537Z" fill="black"/>
<path d="M210.309 243.483L214.093 241.298L217.255 238.499L213.471 240.684L210.309 243.483Z" fill="#008037"/>
<path opacity="0.4" d="M210.309 243.483L214.093 241.298L217.255 238.499L213.471 240.684L210.309 243.483Z" fill="black"/>
<path d="M242.482 251.032C243.312 252.088 243.917 253.638 244.047 255.151C243.217 254.095 242.612 252.544 242.482 251.032ZM251.279 251.147C250.006 242.477 245.349 233.901 239.796 230.696C237.132 229.156 234.667 229.1 232.692 230.255C232.114 230.59 229.972 231.826 229.127 232.31C229.059 232.347 228.991 232.385 228.929 232.428C228.773 232.515 228.618 232.615 228.469 232.719C228.183 232.918 227.91 233.142 227.649 233.396C227.612 233.427 227.574 233.471 227.531 233.508C227.419 233.62 227.308 233.744 227.202 233.868C227.071 234.017 226.941 234.173 226.823 234.334C226.574 234.663 226.338 235.016 226.127 235.402C226.021 235.588 225.915 235.787 225.816 235.992L194.696 218.025L190.914 220.206V222.615L191.237 222.802L191.535 222.976V223.485L190.914 223.845V225.249L195.485 234.924L200.006 237.539L201.508 235.719L205.495 238.104L207.787 242.029L210.309 243.482L213.47 240.681L217.351 242.923L218.656 248.302L225.158 252.053C225.488 253.432 225.904 254.779 226.388 256.096C226.432 256.233 226.481 256.369 226.537 256.518C228.698 262.201 232.139 267.064 236.014 269.305C236.511 269.59 236.995 269.827 237.474 270.006C237.747 270.118 238.021 270.205 238.287 270.28C238.53 270.348 238.771 270.404 239.014 270.442C239.815 270.584 240.591 270.578 241.318 270.436C241.424 270.411 241.528 270.386 241.634 270.361C241.783 270.33 241.932 270.286 242.075 270.23C242.187 270.186 242.299 270.143 242.411 270.099C242.529 270.055 242.646 270 242.758 269.938C242.87 269.888 242.976 269.832 243.082 269.77C243.138 269.739 243.193 269.708 243.243 269.677C243.268 269.671 243.293 269.652 243.318 269.633C244.182 269.136 246.312 267.906 246.889 267.578C249.764 265.914 251.627 261.696 251.627 255.735C251.627 254.22 251.51 252.68 251.279 251.147Z" fill="#008037"/>
<path d="M241.372 258.345C239.879 257.483 238.669 254.921 238.669 252.622C238.669 250.324 239.879 249.159 241.372 250.021C242.865 250.883 244.075 253.444 244.075 255.743C244.076 258.043 242.865 259.207 241.372 258.345ZM247.497 253.326C246.224 244.662 241.566 236.086 236.014 232.882C233.443 231.397 231.065 231.286 229.127 232.311C229.059 232.348 228.991 232.386 228.929 232.429C228.773 232.515 228.618 232.615 228.469 232.72C228.183 232.919 227.91 233.142 227.649 233.397C227.612 233.428 227.574 233.472 227.531 233.509C227.419 233.621 227.308 233.744 227.202 233.869C227.071 234.018 226.941 234.174 226.822 234.334C226.574 234.664 226.338 235.017 226.127 235.403C226.021 235.589 225.915 235.788 225.816 235.992C225.301 237.049 224.891 238.277 224.617 239.669L190.914 220.206V222.616L191.237 222.803L191.535 222.976V223.485L190.914 223.846V225.249L195.485 234.925L200.006 237.54L201.508 235.72L205.495 238.105L207.787 242.03L210.309 243.483L213.47 240.682L217.351 242.924L218.656 248.303L225.158 252.054C225.488 253.432 225.904 254.78 226.388 256.097C226.432 256.233 226.481 256.37 226.537 256.519C228.698 262.202 232.139 267.064 236.014 269.305C236.511 269.591 236.995 269.827 237.474 270.007C237.747 270.119 238.021 270.206 238.287 270.281C238.53 270.349 238.771 270.405 239.014 270.442C239.815 270.585 240.591 270.579 241.318 270.436C241.424 270.411 241.528 270.386 241.634 270.362C241.783 270.331 241.932 270.287 242.075 270.231C242.187 270.187 242.299 270.144 242.411 270.1C242.529 270.056 242.646 270 242.758 269.938C242.87 269.889 242.976 269.833 243.082 269.771C243.138 269.74 243.193 269.709 243.243 269.678C243.268 269.672 243.293 269.653 243.318 269.634C246.075 267.895 247.845 263.74 247.845 257.922C247.845 256.406 247.721 254.866 247.497 253.326Z" fill="#008037"/>
<path opacity="0.4" d="M244.076 255.742C244.076 258.04 242.865 259.207 241.374 258.345C239.878 257.481 238.667 254.923 238.667 252.625C238.667 250.327 239.878 249.16 241.374 250.023C241.772 250.252 242.151 250.6 242.479 251.035C242.61 252.544 243.218 254.096 244.045 255.152C244.069 255.35 244.076 255.55 244.076 255.742Z" fill="black"/>
<path opacity="0.4" d="M251.627 255.736C251.627 261.697 249.764 265.915 246.889 267.579C246.311 267.908 244.181 269.138 243.318 269.634C246.075 267.895 247.845 263.741 247.845 257.922C247.845 256.406 247.72 254.866 247.498 253.326C246.225 244.662 241.567 236.086 236.015 232.882C233.443 231.398 231.066 231.286 229.128 232.311C229.972 231.827 232.115 230.591 232.693 230.256C234.667 229.101 237.133 229.156 239.797 230.697C245.349 233.901 250.007 242.478 251.28 251.148C251.509 252.68 251.627 254.22 251.627 255.736Z" fill="#EBEBEB"/>
<path d="M247.845 257.922C247.845 263.74 246.076 267.895 243.318 269.634C244.182 269.137 246.312 267.907 246.889 267.579C249.764 265.914 251.628 261.697 251.628 255.736C251.628 255.515 251.62 255.294 251.615 255.073C250.315 255.823 249.001 256.582 247.832 257.257C247.837 257.479 247.845 257.701 247.845 257.922Z" fill="#008037"/>
<path opacity="0.1" d="M247.845 257.922C247.845 263.74 246.076 267.895 243.318 269.634C244.182 269.137 246.312 267.907 246.889 267.579C249.764 265.914 251.628 261.697 251.628 255.736C251.628 255.515 251.62 255.294 251.615 255.073C250.315 255.823 249.001 256.582 247.832 257.257C247.837 257.479 247.845 257.701 247.845 257.922Z" fill="black"/>
<path opacity="0.15" d="M224.755 242.154V243.383L190.916 223.846L191.537 223.486V222.977L224.755 242.154Z" fill="black"/>
<path opacity="0.15" d="M224.755 242.664V243.383L190.916 223.846L191.537 223.486V223.48L224.755 242.664Z" fill="black"/>
<path opacity="0.15" d="M226.163 245.403C226.163 253.778 230.573 263.115 236.014 266.256C241.454 269.397 245.864 265.153 245.864 256.777C245.864 248.401 241.454 239.064 236.014 235.924C230.573 232.783 226.163 237.026 226.163 245.403Z" stroke="black" stroke-width="1.01466" stroke-miterlimit="10"/>
<path opacity="0.5" d="M225.816 235.993C225.301 237.049 224.891 238.278 224.617 239.669L190.914 220.207L194.696 218.026L225.816 235.993Z" fill="#EBEBEB"/>
<path d="M354.281 331.136C354.412 332.312 354.573 335.614 360.558 336.437C366.544 337.26 370.315 335.28 371.911 332.4C373.507 329.52 373.141 327.173 373.396 324.506C373.652 321.839 375.856 320.419 376.489 319.046C377.422 317.023 376.058 313.874 376.058 313.874L354.281 331.136Z" fill="#263238"/>
<path d="M310.603 321.757C310.386 321.929 310.324 323.815 310.993 324.653C311.453 325.229 315.612 328.017 320.585 327.218C325.558 326.42 327.948 325.029 330.739 323.239C333.595 321.407 335.602 321.083 338.575 320.982C341.454 320.883 343.561 320.243 343.778 319.487C344.161 318.16 344.161 317.32 343.531 317.362L310.603 321.757Z" fill="#263238"/>
<path d="M374.665 309.243C373.915 314.699 363.332 314.259 364.193 309.901L362.306 296.65L374.285 297.021L374.665 309.243Z" fill="#EBEBEB"/>
<path d="M354.714 328.415C355.244 327.432 356.788 326.015 357.467 325.13C361.017 320.499 363.253 315.111 363.692 309.251C363.716 308.93 363.757 308.307 364.076 308.115C364.414 307.912 364.721 308.192 365.065 308.342C365.071 308.336 365.076 308.331 365.083 308.326C365.083 308.326 365.085 308.343 365.086 308.352C365.515 308.537 366.107 308.744 366.939 308.837C369.06 309.073 371.405 308.565 371.935 308.638C372.346 308.695 372.473 309.97 372.44 311.349C373.194 310.872 373.441 309.927 374.119 309.374C374.484 309.077 374.646 309.067 374.638 308.576C374.633 308.256 374.612 307.969 374.609 307.649C375.152 307.489 375.61 309.577 376.057 311.169C376.575 313.013 377.221 315.094 376.494 316.967C376.089 318.01 375.42 318.924 374.806 319.859C373.748 321.469 372.817 323.236 372.633 325.155C372.552 325.996 372.616 326.848 372.497 327.684C372.08 330.597 370.082 332.887 367.274 333.764C363.624 334.904 358.143 334.725 354.927 332.173C353.801 331.278 354.185 329.398 354.714 328.415Z" fill="#37474F"/>
<path d="M341.089 308.327C338.19 310.579 334.691 311.908 331.123 310.282L330.289 287.978L342.302 290.137L341.089 308.327Z" fill="#EBEBEB"/>
<path d="M313.021 317.908C313.818 317.654 314.605 317.37 315.382 317.061C317.555 316.197 319.649 315.137 321.652 313.932C322.537 313.401 323.404 312.84 324.25 312.248C325.14 311.627 325.962 310.938 326.805 310.255C327.251 309.894 327.662 309.392 328.024 308.948C328.746 308.062 329.353 307.08 329.823 306.038C329.928 305.806 330.043 305.552 330.273 305.443C330.546 305.314 330.871 305.442 331.118 305.615C331.335 305.767 331.53 305.957 331.776 306.063C332.009 306.164 332.248 306.256 332.483 306.354C333.235 306.666 334.031 306.86 334.841 306.933C337.88 307.204 337.978 306.594 338.11 307.574C338.142 307.813 338.154 308.206 338.134 308.673C339.738 308.408 341.003 307.889 341.073 307.281L341.267 305.336C342.866 305.192 342.973 308.053 343.498 311.267C343.923 313.868 344.546 315.752 343.832 317.665C341.413 319.777 337.15 319.264 334.719 319.666C331.283 320.233 329.675 322.776 324.897 324.43C317.195 327.095 312.331 324.022 310.887 322.681C309.931 320.974 309.741 318.954 313.021 317.908Z" fill="#37474F"/>
<path d="M371.286 176.454C371.894 185.902 373.004 199.772 373.39 210.7C374.116 231.242 373.833 254.652 373.833 254.652C373.833 254.652 375.828 261.997 376.046 267.817C376.536 280.938 376.443 310.403 376.443 310.403C376.443 310.403 371.007 315.882 362.864 311.578C362.864 311.578 355.654 270.268 353.636 257.327C351.712 244.99 347.954 220.315 347.954 220.315L346.254 255.338C346.254 255.338 348.245 262.47 347.534 272.147C347.093 278.157 343.662 307.844 343.662 307.844C340.535 310.779 331.415 309.183 329.423 306.85C329.423 306.85 326.229 262.982 325.874 256.645C325.108 242.938 323.07 191.851 324.089 183.917C325.107 175.981 371.286 176.454 371.286 176.454Z" fill="#263238"/>
<path d="M347.954 220.315L345.568 204.509C345.568 204.509 338.999 203.267 334.208 199.709C334.208 199.709 336.074 203.931 343.33 206.944L345.689 221.663L346.255 255.337L347.954 220.315Z" fill="black"/>
<path d="M361.36 113.027C361.798 114.808 364.827 114.535 366.144 114.201C367.771 113.789 368.978 112.339 368.778 110.657C369.462 110.449 370.094 110.102 370.536 109.581C371.276 108.709 371.157 107.59 370.66 106.646C371.736 105.834 372.401 104.506 372.158 103.167C371.985 102.211 371.42 101.313 370.679 100.748C370.05 100.267 368.881 99.6897 368.042 99.8084C367.731 99.8523 367.423 100.433 367.871 100.479C368.461 100.539 369.334 100.957 369.791 101.311C370.294 101.699 370.88 102.281 371.095 102.961C371.451 104.091 371.039 105.212 370.169 105.916C370.004 105.718 369.829 105.532 369.641 105.376C369.024 104.866 368.273 104.538 367.462 104.606C366.9 104.654 366.208 104.9 366.023 105.496C365.814 106.169 366.512 106.738 367.027 107.032C367.793 107.468 368.684 107.529 369.516 107.256C369.583 107.235 369.645 107.198 369.711 107.173C369.756 107.265 369.801 107.357 369.835 107.446C370.299 108.683 369.553 109.446 368.54 109.788C367.936 108.529 366.283 107.608 364.958 108.267C364.197 108.646 364.11 109.468 364.652 110.087C365.146 110.651 365.967 110.853 366.686 110.896C367.017 110.916 367.371 110.908 367.728 110.87C367.799 111.417 367.683 111.989 367.363 112.45C366.806 113.252 365.777 113.441 364.866 113.509C363.683 113.597 362.85 113.266 361.911 112.572C361.652 112.379 361.296 112.763 361.36 113.027ZM369.214 106.421C368.643 106.578 368.064 106.495 367.551 106.151C367.19 105.909 366.794 105.557 367.434 105.509C368.104 105.46 368.745 105.878 369.214 106.421ZM367.418 109.99C367.035 110.006 366.659 109.975 366.33 109.892C366.076 109.827 364.95 109.257 365.523 109.002C365.966 108.805 366.735 109.243 367.047 109.525C367.197 109.661 367.316 109.821 367.418 109.99Z" fill="#263238"/>
<path d="M363.454 79.7634C363.454 79.7634 363.671 79.7935 364.011 79.8795C363.777 78.6798 364.302 77.4741 365.386 76.9787C366.689 76.3828 368.288 77.0381 368.957 78.4433L365.065 80.2235C366.1 80.638 367.369 81.3966 368.028 82.7519C369.095 84.9458 367.688 89.6199 366.265 95.3922C364.843 101.165 364.07 103.659 363.126 106.086C362.473 107.767 361.297 107.819 361.297 107.819V102.061L361.545 97.2876C361.545 97.2876 358.481 93.1037 358.144 89.6749C357.711 85.2623 358.641 83.4563 358.641 83.4563L363.454 79.7634Z" fill="#263238"/>
<path d="M342.276 74.8145C347.639 74.8317 351.973 79.1936 351.955 84.5574C351.938 89.9212 347.576 94.2548 342.212 94.2367C336.849 94.2195 332.515 89.8576 332.532 84.4938C332.551 79.1299 336.913 74.7964 342.276 74.8145Z" fill="#263238"/>
<path d="M361.364 96.527C362.516 97.5254 363.452 94.942 364.421 93.9341C365.389 92.927 368.546 91.557 370.107 94.8749C371.698 98.2564 368.661 102.85 366.302 103.944C362.846 105.547 361.297 102.062 361.297 102.062V116.47C357.657 123.027 349.784 121.494 346.063 122.412C345.386 119.754 345.654 118.748 346.042 117.274L346.069 112.581C346.069 112.581 343.203 113.134 341.313 112.835C338.17 112.339 336.485 109.749 335.542 106.342C334.027 100.87 333.714 91.6817 335.819 81.0564C339.34 78.3337 351.252 78.7749 358.64 83.4584C358.099 92.8806 360.214 95.5285 361.364 96.527Z" fill="#EBEBEB"/>
<path d="M346.07 112.579C346.07 112.579 353.094 111.187 355.552 109.891C357.197 109.023 358.555 107.514 358.956 106.546C358.956 106.546 358.489 108.627 357.016 110.498C355.213 112.787 346.063 114.447 346.063 114.447L346.07 112.579Z" fill="#EBEBEB"/>
<path d="M331.005 90.8388C331.036 91.4838 331.438 92.097 331.65 92.3507C331.755 92.4883 331.85 92.668 331.903 92.8899C332.136 93.9159 332.305 95.8612 332.77 96.95C333.235 98.0499 334.218 99.7949 337.063 99.911C337.624 99.9428 338.11 99.9006 338.544 99.8155C338.586 99.8155 338.629 99.8052 338.66 99.794C339.126 99.6985 339.527 99.5403 339.876 99.3502C339.897 99.3287 339.929 99.3184 339.95 99.3081C339.982 99.2866 340.014 99.266 340.056 99.2445C340.078 99.223 340.109 99.2023 340.183 99.149C340.225 99.1275 340.267 99.0957 340.299 99.0647C340.351 99.0329 340.394 99.0011 340.436 98.9589C340.478 98.9271 340.521 98.8953 340.563 98.8532C340.647 98.7792 340.721 98.7052 340.806 98.6201C341.229 98.1763 341.547 97.6371 341.8 97.097C342.456 95.7013 342.329 93.7138 343.365 93.5126C343.408 93.5022 343.45 93.5022 343.492 93.4911H343.629C345.036 93.5444 344.834 95.6909 345.585 97.245C346.336 98.7998 347.616 100.332 350.661 100.428C350.798 100.438 350.925 100.438 351.052 100.438C351.158 100.438 351.264 100.428 351.369 100.417C351.633 100.406 351.877 100.375 352.099 100.332C352.184 100.311 352.258 100.301 352.332 100.28C352.406 100.27 352.48 100.248 352.554 100.227C352.606 100.216 352.649 100.195 352.691 100.184C353.009 100.079 353.284 99.9514 353.526 99.8146C353.622 99.751 353.716 99.6985 353.812 99.6349C353.981 99.5076 354.14 99.3709 354.287 99.223C354.763 98.7577 355.049 98.2391 355.239 97.8057C355.737 96.7479 355.905 94.8241 356.159 93.8196C356.222 93.5556 356.307 93.3646 356.402 93.2382C356.603 92.9527 357.079 92.4556 357.111 91.8106C357.143 91.1553 356.698 90.5843 356.286 90.5206C356.054 90.4785 355.8 90.4467 355.546 90.4045C353.145 90.0665 350.015 89.8756 348.133 90.3512C345.765 90.9437 344.93 91.6833 343.618 91.6412C342.402 91.5879 341.62 90.7846 339.399 90.0124C337.633 89.3992 334.704 89.3674 332.462 89.5265C332.219 89.5368 331.997 89.5583 331.764 89.5798C331.386 89.6228 330.973 90.1938 331.005 90.8388ZM346.443 92.6156C346.57 92.4358 346.813 92.2561 347.12 92.0867C347.162 92.0549 347.205 92.0445 347.247 92.023C347.269 92.0015 347.29 91.9912 347.311 91.9809C347.417 91.9388 347.533 91.8854 347.649 91.833C347.745 91.7908 347.849 91.759 347.956 91.7169C348.273 91.6008 348.612 91.5053 348.971 91.421C349.098 91.3892 349.235 91.3574 349.373 91.3368C349.71 91.2731 350.06 91.2207 350.409 91.1888C350.493 91.1888 350.567 91.1785 350.652 91.1785C352.915 91.0409 354.322 91.6016 354.818 92.0772C355.347 92.564 355.061 94.6572 354.828 95.715C354.818 95.7365 354.818 95.7683 354.807 95.789C354.807 95.8208 354.797 95.8423 354.785 95.8733C354.764 96.0005 354.722 96.1485 354.68 96.2964C354.658 96.3807 354.637 96.4761 354.606 96.5604C354.606 96.5707 354.606 96.5707 354.606 96.5707C354.552 96.7186 354.5 96.8666 354.436 97.0145C354.426 97.0678 354.394 97.1203 354.373 97.1624C354.362 97.1942 354.351 97.226 354.33 97.2579C354.32 97.2897 354.299 97.3215 354.288 97.3533C354.267 97.3955 354.246 97.4376 354.225 97.4806C354.193 97.5339 354.171 97.5761 354.14 97.6182C354.109 97.6715 354.088 97.724 354.045 97.7661C354.013 97.8186 353.981 97.8719 353.949 97.914C353.368 98.7181 352.406 99.3838 350.756 99.352C349.117 99.3098 348.091 98.7285 347.436 98.0086C346.78 97.2897 346.505 96.4331 346.379 95.8406C346.126 94.646 345.988 93.2503 346.443 92.6156ZM333.151 91.2516C333.278 91.1355 333.457 91.0082 333.712 90.9128C333.722 90.9025 333.733 90.8913 333.754 90.8913C333.828 90.8595 333.912 90.8276 333.997 90.7958C334.051 90.7855 334.103 90.764 334.145 90.7537C334.188 90.7434 334.231 90.7322 334.273 90.7219C334.304 90.7115 334.336 90.7115 334.358 90.7004C334.368 90.7004 334.379 90.69 334.39 90.69C334.432 90.6797 334.475 90.6797 334.517 90.6685C334.675 90.6367 334.856 90.6049 335.035 90.5946C335.131 90.5843 335.226 90.5731 335.321 90.5731C335.374 90.5628 335.437 90.5628 335.49 90.5628C335.533 90.5628 335.586 90.5628 335.628 90.5524C335.744 90.5524 335.86 90.5524 335.987 90.5628H336.115C336.157 90.5628 336.199 90.5731 336.241 90.5731C336.569 90.5946 336.918 90.6264 337.289 90.6892C338.896 90.9532 340.567 91.7358 340.989 92.4126C341.423 93.0791 341.295 94.4534 341.063 95.6376C341.011 95.8707 340.947 96.1347 340.841 96.4202C340.831 96.4417 340.82 96.4624 340.82 96.4839C340.81 96.5157 340.798 96.5372 340.788 96.5681C340.778 96.5785 340.778 96.6 340.767 96.6206C340.756 96.6524 340.735 96.6842 340.724 96.7161C340.693 96.7797 340.661 96.8425 340.629 96.9061C340.607 96.9594 340.576 97.0119 340.544 97.0755C340.533 97.0859 340.522 97.1074 340.512 97.1289C340.49 97.1607 340.47 97.2028 340.438 97.245C340.427 97.2665 340.406 97.2983 340.374 97.3404V97.3507C339.793 98.197 338.777 98.9263 336.98 98.8205C336.303 98.7887 335.742 98.6192 335.288 98.3767C333.702 97.5313 333.332 95.7228 333.152 94.8877C332.929 93.8101 332.665 91.6954 333.151 91.2516Z" fill="#263238"/>
<path d="M356.129 90.5574L366.41 92.87C366.41 92.87 365.169 93.0824 364.043 94.3965L356.121 92.8949L356.129 90.5574Z" fill="#263238"/>
<path d="M333.151 94.8895C333.331 95.7246 333.701 97.5332 335.287 98.3786C335.742 98.6219 336.302 98.7914 336.979 98.8223C338.776 98.9281 339.792 98.1988 340.373 97.3526V97.3423C340.405 97.3001 340.426 97.2683 340.437 97.2468C340.469 97.2047 340.49 97.1625 340.511 97.1307C340.521 97.1092 340.533 97.0886 340.543 97.0774C340.575 97.0137 340.607 96.9613 340.628 96.908C340.66 96.8443 340.692 96.7815 340.724 96.7179C340.734 96.6861 340.755 96.6543 340.766 96.6224C340.776 96.6009 340.776 96.5803 340.787 96.57C340.797 96.5382 340.809 96.5167 340.819 96.4857C340.819 96.4651 340.829 96.4436 340.84 96.4221C340.946 96.1365 341.01 95.8725 341.062 95.6395C341.295 94.4552 341.422 93.0801 340.988 92.4145C340.565 91.7376 338.894 90.955 337.288 90.691C336.918 90.6274 336.569 90.5956 336.24 90.5749C336.198 90.5749 336.156 90.5646 336.114 90.5646H335.987C335.86 90.5543 335.743 90.5543 335.627 90.5543C335.585 90.5646 335.532 90.5646 335.49 90.5646C335.437 90.5646 335.373 90.5646 335.32 90.5749C335.225 90.5749 335.13 90.5852 335.035 90.5964C334.855 90.6067 334.675 90.6386 334.516 90.6704C334.474 90.6807 334.432 90.6807 334.389 90.6919C334.378 90.6919 334.367 90.7022 334.357 90.7022C334.335 90.7125 334.304 90.7125 334.272 90.7237C334.23 90.734 334.188 90.7452 334.145 90.7555C334.102 90.7658 334.05 90.7873 333.997 90.7977C333.912 90.8295 333.827 90.8613 333.753 90.8931C333.732 90.8931 333.721 90.9034 333.711 90.9146C333.457 91.0101 333.278 91.1365 333.15 91.2535C332.665 91.6955 332.929 93.8102 333.151 94.8895Z" fill="#008037"/>
<path d="M346.381 95.8405C346.507 96.4322 346.783 97.2896 347.438 98.0086C348.093 98.7275 349.119 99.3089 350.758 99.3519C352.408 99.3837 353.37 98.7172 353.952 97.914C353.983 97.8718 354.015 97.8185 354.047 97.7661C354.089 97.7239 354.111 97.6706 354.142 97.6181C354.174 97.576 354.195 97.5339 354.227 97.4805C354.248 97.4384 354.269 97.3963 354.29 97.3533C354.301 97.3214 354.322 97.2896 354.333 97.2578C354.354 97.226 354.364 97.1942 354.375 97.1623C354.396 97.1202 354.428 97.0669 354.438 97.0144C354.502 96.8665 354.554 96.7186 354.608 96.5707C354.608 96.5707 354.608 96.5707 354.608 96.5603C354.64 96.4761 354.661 96.3806 354.682 96.2963C354.724 96.1484 354.766 96.0005 354.787 95.8732C354.798 95.8414 354.809 95.8199 354.809 95.7889C354.819 95.7674 354.819 95.7356 354.83 95.715C355.064 94.658 355.348 92.5639 354.82 92.0772C354.323 91.6016 352.917 91.0409 350.654 91.1785C350.57 91.1785 350.495 91.1888 350.411 91.1888C350.062 91.2206 349.713 91.2731 349.375 91.3367C349.237 91.3582 349.099 91.39 348.973 91.421C348.614 91.5053 348.276 91.6007 347.958 91.7168C347.852 91.759 347.747 91.7908 347.651 91.8329C347.535 91.8854 347.418 91.9387 347.313 91.9808C347.292 91.9912 347.271 92.0015 347.25 92.023C347.207 92.0445 347.165 92.0548 347.122 92.0866C346.815 92.256 346.573 92.4358 346.445 92.6155C345.99 93.2502 346.127 94.646 346.381 95.8405Z" fill="#008037"/>
<path d="M333.427 73.5433C333.44 73.4246 333.455 73.3068 333.472 73.1889C333.504 72.9705 333.549 72.7392 333.702 72.5801C334.176 72.0873 335.121 73.3231 335.459 73.6121C335.784 73.8881 336.115 74.1564 336.466 74.399C336.578 74.4764 337.403 74.8797 337.411 74.9623C337.286 73.7935 337.113 72.5912 337.405 71.4216C337.544 70.6468 337.764 68.8528 338.723 68.6602C339.294 68.5458 339.792 69.0231 340.217 69.4213C344.06 73.0187 349.078 71.3537 353.709 71.5016C357.581 71.6255 362.254 73.201 364.003 76.9669C364.802 78.6895 364.94 80.505 363.359 81.6961C362.338 82.4649 361.339 82.4288 360.768 83.6586C360.628 83.9604 359.743 87.6258 360.265 87.5888C358.291 87.7281 356.405 86.5662 355.95 84.6398C355.855 84.2391 355.639 83.5098 355.551 83.0979C355.421 82.4898 354.917 82.3264 354.445 82.4279C353.271 82.6808 352.504 83.1615 351.392 83.4659C348.382 84.2907 344.701 84.6605 341.643 84.0413C339.347 83.576 337.129 82.4718 335.517 80.7535C333.756 78.8735 333.151 76.0699 333.427 73.5433Z" fill="#263238"/>
<path d="M348.544 88.658L351.941 89.1852C352.061 88.2211 351.397 87.3207 350.46 87.1754C349.521 87.03 348.663 87.6939 348.544 88.658Z" fill="#263238"/>
<path d="M347.748 104.466L344.887 105.209C345.076 106.027 345.87 106.523 346.66 106.319C347.451 106.113 347.938 105.284 347.748 104.466Z" fill="#EBEBEB"/>
<path d="M335.657 88.8512L339.1 88.4737C339.032 87.5113 338.204 86.8156 337.254 86.9197C336.302 87.0246 335.587 87.8889 335.657 88.8512Z" fill="#263238"/>
<path d="M344.036 93.5829L343.572 101.608L339.1 100.441L343.558 93.4943C343.714 93.4849 343.873 93.5167 344.036 93.5829Z" fill="#EBEBEB"/>
<path d="M363.218 99.1565C363.218 100.311 364.154 101.248 365.309 101.248C366.464 101.248 367.401 100.311 367.401 99.1565C367.401 98.0015 366.464 97.065 365.309 97.065C364.154 97.0658 363.218 98.0015 363.218 99.1565Z" fill="#263238"/>
<path d="M362.989 95.3313C363.189 94.7525 363.479 94.0834 363.917 93.6422C364.294 93.2612 365.023 92.9817 365.578 93.0746C365.607 93.0798 365.635 93.1477 365.604 93.1658C365.376 93.3042 365.207 93.3756 364.98 93.5382C364.758 93.6964 364.518 93.8787 364.337 94.0817C364.166 94.2735 364.037 94.5031 363.934 94.7353C363.822 94.9907 363.709 95.345 363.693 95.6245C363.659 96.1852 363.693 96.5413 363.894 97.0031C363.998 97.2413 364.111 97.4658 364.289 97.6584C364.441 97.8235 364.653 97.9654 364.751 98.171C364.879 98.4367 364.514 98.8891 364.224 98.7343C363.665 98.435 363.315 97.8571 363.087 97.2869C362.83 96.6436 362.76 95.9943 362.989 95.3313Z" fill="#263238"/>
<path d="M333.182 123.904C330.273 125.805 326.261 128.286 325.281 130.975C324.3 133.664 321.471 149.277 321.156 154.307C321.156 154.307 325.388 156.367 329.33 156.612L333.182 123.904Z" fill="#455A64"/>
<path d="M367.521 116.465C374.885 120.5 382.179 126.541 383.706 128.864C383.706 128.864 379.396 143.203 375.614 150.003C371.832 156.803 369.795 176.922 369.795 176.922C369.795 176.922 343.856 185.53 335.726 186.2C327.597 186.87 326.566 183.421 326.566 183.421C326.566 183.421 326.396 160.936 328.262 145.924C330.128 130.913 329.742 126.454 333.181 123.904C335.405 122.255 345.003 118.095 345.003 118.095C345.003 118.095 345.003 120.061 345.003 122.411C350.279 122.495 367.521 116.465 367.521 116.465Z" fill="#37474F"/>
<path d="M343.011 124.712C343.011 124.712 342.307 123.501 342.459 121.578L344.625 120.002L344.662 122.735L343.011 124.712Z" fill="#008037"/>
<path opacity="0.25" d="M343.011 124.712C343.011 124.712 342.307 123.501 342.459 121.578L344.625 120.002L344.662 122.735L343.011 124.712Z" fill="black"/>
<path d="M347.221 123.044L352.834 119.842L357.041 123.181L348.53 126.714L347.221 123.044Z" fill="#008037"/>
<path opacity="0.25" d="M347.221 123.044L352.834 119.842L357.041 123.181L348.53 126.714L347.221 123.044Z" fill="black"/>
<path d="M361.298 110.374V111.505C361.083 112.582 358.966 115.073 353.626 117.469C348.191 119.908 346.063 122.411 346.063 122.411C346.063 122.411 348.086 122.402 350.297 123.194C352.728 124.065 356.768 127.148 357.921 127.119C359.043 127.09 360.663 123.903 363.688 120.731C366.23 118.065 367.521 116.465 367.521 116.465C367.521 116.465 363.372 110.397 361.298 110.374Z" fill="#455A64"/>
<path d="M346.062 122.411C344.131 122.629 342.317 123.97 341.844 123.261C341.371 122.551 343.012 116.088 346.049 114.123L346.062 122.411Z" fill="#455A64"/>
<path d="M327.317 156.347C327.317 156.347 327.08 160.366 327.018 161.738C326.956 163.111 329.261 186.698 329.261 186.698L321.153 190.124C321.153 190.124 320.176 181.044 319.857 175.982C319.538 170.92 319.918 164.69 320.556 160.387C321.193 156.084 321.429 154.437 321.429 154.437C323.606 155.443 325.605 155.936 327.317 156.347Z" fill="#EBEBEB"/>
<path d="M321.807 201.634C321.807 201.634 321.798 201.999 321.814 203.371C321.831 204.744 322.658 208.795 323.165 210.064C323.674 211.335 324.907 214.128 325.524 214.455C326.247 214.837 326.733 214.879 327.503 214.807C328.788 214.688 330.129 215.349 331.34 214.768C331.814 214.541 332.261 214.237 332.772 214.115C333.527 213.934 334.387 214.159 335.056 213.764C335.483 213.512 335.751 213.048 336.175 212.79C336.795 212.412 337.61 212.55 338.27 212.247C338.801 212.004 339.176 211.492 339.361 210.938C339.741 209.802 339.37 208.527 339.138 207.391C339.138 207.391 339.682 206.774 339.719 205.468C339.755 204.161 339.501 201.948 339.21 201.114C338.921 200.279 333.042 196.905 333.042 196.905L331.881 196.143C331.881 196.143 328.071 195.127 324.66 197.304C321.249 199.482 321.807 201.634 321.807 201.634Z" fill="#EBEBEB"/>
<path d="M323.398 201.474C321.844 204.064 322.758 208.703 322.764 208.758C322.273 206.991 321.827 204.424 321.814 203.372C321.798 201.999 321.807 201.634 321.807 201.634C321.807 201.634 321.249 199.483 324.66 197.305C328.071 195.128 331.881 196.144 331.881 196.144C331.881 196.144 324.961 198.869 323.398 201.474Z" fill="#EBEBEB"/>
<path d="M339.138 207.393C338.667 205.797 337.288 203.384 336.635 202.776C335.982 202.168 335.438 201.406 336.09 201.66C336.743 201.914 337.651 202.068 338.013 201.61C338.376 201.153 338.449 201.951 338.05 202.567C337.651 203.184 337.977 203.656 338.449 204.672C338.921 205.687 339.033 206.819 339.138 207.393Z" fill="#EBEBEB"/>
<path d="M381.456 129.15C383.908 129.993 384.235 136.715 383.704 142.731C383.172 148.747 378.478 162.986 376.336 167.943C373.933 173.502 372.477 176.715 370.88 178.461C369.282 180.208 365.937 181.637 361.657 183.856C357.78 185.866 355.132 186.878 348.533 188.927C341.086 191.238 338.229 191.38 336.631 192.486C335.033 193.592 334.598 196.007 333.041 196.906L331.88 196.144C329.857 196.551 326.474 197.901 324.473 199.235C322.577 200.499 321.806 201.634 321.806 201.634L321.813 203.371C321.813 203.371 319.926 204.169 318.328 200.78C316.73 197.391 315.993 192.353 317.836 190.14C319.679 187.928 325.503 184.936 330.211 183.421C334.918 181.906 337.29 180.394 342.812 177.056C348.694 173.501 352.775 171.138 355.681 169.54C356.797 168.898 357.544 168.111 358.041 166.061C358.434 164.438 359.618 159.656 360.341 156.064C361.543 150.098 364.131 131.92 381.456 129.15Z" fill="#EBEBEB"/>
<path d="M383.705 128.864C383.705 128.864 384.847 129.065 385.006 133.823C385.165 138.582 384.976 143.66 384.356 147.315C383.736 150.971 380.082 161.77 380.082 161.77C380.082 161.77 369.529 165.232 358.729 161.102C358.729 161.102 361.27 145.537 362.223 141.408C363.176 137.278 376.528 124.546 383.705 128.864Z" fill="#455A64"/>
<path d="M346.366 129.174C345.765 133.041 344.932 142.237 344.932 155.213C344.932 158.395 340.289 164.851 339.197 164.715C338.105 164.577 336.102 158.505 335.818 154.982C336.259 146.452 341.416 133.214 343.669 128.694L346.366 129.174Z" fill="#008037"/>
<path opacity="0.15" d="M343.498 129.063C343.556 128.934 343.613 128.807 343.669 128.695L346.366 129.175L346.204 130.309C345.097 130.247 343.855 129.481 343.498 129.063Z" fill="black"/>
<path d="M347.22 123.044C346.063 122.734 344.661 122.734 344.661 122.734C344.661 122.734 343.649 123.466 343.01 124.712C343.01 124.712 342.867 127.109 343.669 128.694C343.669 128.694 344.664 129.534 346.366 129.174C346.366 129.174 347.979 128.2 348.528 126.715C348.704 125.414 347.797 123.466 347.22 123.044Z" fill="#008037"/>
</svg>
