<svg width="430" height="430" viewBox="0 0 430 430" fill="none" xmlns="http://www.w3.org/2000/svg">
<path d="M308.716 270.397H370.863V222.464H308.716V270.397Z" fill="#EBEBEB"/>
<path d="M313.161 266.214H320.649V257.749H313.161V266.214Z" fill="white"/>
<path d="M351.901 222.587H344.842V232.815H351.901V222.587Z" fill="#FAFAFA"/>
<path d="M351.901 260.027H344.842V270.255H351.901V260.027Z" fill="#FAFAFA"/>
<path d="M324.223 270.728C324.114 270.728 324.025 260.185 324.025 247.184C324.025 234.178 324.114 223.638 324.223 223.638C324.332 223.638 324.421 234.178 324.421 247.184C324.421 260.185 324.332 270.728 324.223 270.728Z" fill="#E0E0E0"/>
<path d="M283.36 352.941H390.588V270.237H283.36V352.941Z" fill="#EBEBEB"/>
<path d="M291.027 345.724H303.947V331.118H291.027V345.724Z" fill="white"/>
<path d="M357.879 270.451H345.699V288.098H357.879V270.451Z" fill="#FAFAFA"/>
<path d="M357.879 335.049H345.699V352.696H357.879V335.049Z" fill="#FAFAFA"/>
<path d="M310.127 353.511C309.938 353.511 309.785 335.321 309.785 312.888C309.785 290.447 309.938 272.261 310.127 272.261C310.317 272.261 310.469 290.446 310.469 312.888C310.469 335.321 310.316 353.511 310.127 353.511Z" fill="#E0E0E0"/>
<path d="M387.189 98.2214L392.933 109.86L405.777 111.727L396.483 120.786L398.676 133.579L387.189 127.539L375.701 133.579L377.895 120.786L368.601 111.727L381.445 109.86L387.189 98.2214Z" fill="#EBEBEB"/>
<path d="M45.1574 248.512L48.778 255.847L56.8723 257.023L51.0149 262.733L52.3978 270.794L45.1574 266.988L37.9179 270.794L39.3 262.733L33.4434 257.023L41.5377 255.847L45.1574 248.512Z" fill="#EBEBEB"/>
<path d="M49.6491 184.608L57.6876 200.896L75.6624 203.508L62.6558 216.186L65.726 234.088L49.6491 225.636L33.5723 234.088L36.6434 216.186L23.6367 203.508L41.6107 200.896L49.6491 184.608Z" fill="#EBEBEB"/>
<path d="M382.074 150.778L385.539 157.799L393.286 158.924L387.68 164.389L389.004 172.105L382.074 168.462L375.145 172.105L376.469 164.389L370.862 158.924L378.609 157.799L382.074 150.778Z" fill="#EBEBEB"/>
<path d="M268.363 37.0383L271.827 44.0584L279.575 45.1842L273.969 50.6495L275.292 58.3654L268.363 54.7224L261.433 58.3654L262.757 50.6495L257.151 45.1842L264.898 44.0584L268.363 37.0383Z" fill="#EBEBEB"/>
<path d="M347.633 112.152L349.901 116.747L354.972 117.484L351.302 121.06L352.168 126.11L347.633 123.725L343.098 126.11L343.964 121.06L340.295 117.484L345.365 116.747L347.633 112.152Z" fill="#EBEBEB"/>
<path d="M138.394 344.093L142.811 353.042L152.687 354.477L145.54 361.443L147.228 371.28L138.394 366.636L129.56 371.28L131.247 361.443L124.101 354.477L133.977 353.042L138.394 344.093Z" fill="#EBEBEB"/>
<path d="M150.054 335.197L151.879 338.895L155.96 339.487L153.007 342.366L153.704 346.43L150.054 344.51L146.404 346.43L147.102 342.366L144.149 339.487L148.229 338.895L150.054 335.197Z" fill="#EBEBEB"/>
<path d="M313.156 300.932L317.04 308.801L325.723 310.062L319.44 316.187L320.924 324.836L313.156 320.752L305.389 324.836L306.873 316.187L300.59 310.062L309.273 308.801L313.156 300.932Z" fill="#008037"/>
<path d="M331.683 293.958L333.513 297.665L337.605 298.26L334.644 301.147L335.343 305.221L331.683 303.297L328.023 305.221L328.722 301.147L325.761 298.26L329.853 297.665L331.683 293.958Z" fill="#008037"/>
<path d="M307.4 89.1474L310.437 79.6367C308.072 74.8955 306.949 69.4646 307.462 63.8041C308.934 47.5234 323.344 35.5213 339.646 36.9962C355.95 38.4702 367.972 52.8632 366.5 69.1438C365.028 85.4236 350.618 97.4258 334.315 95.9517C327.507 95.336 321.9 92.8712 317.256 88.554L307.4 89.1474Z" fill="#FAFAFA"/>
<path d="M307.401 89.1477C307.401 89.1477 307.629 89.1244 308.057 89.0926C308.499 89.0608 309.129 89.0152 309.952 88.9567C311.622 88.8424 314.07 88.6747 317.251 88.4571L317.292 88.4545L317.323 88.4829C320.124 91.0689 324.401 93.9387 330.186 95.1616C331.62 95.4695 333.133 95.7095 334.71 95.8075C335.499 95.8376 336.302 95.8677 337.118 95.8978C337.933 95.8918 338.761 95.8066 339.602 95.7636C342.951 95.4523 346.465 94.551 349.837 92.9033C353.207 91.2633 356.428 88.8811 359.12 85.8074C361.806 82.7389 363.989 78.9859 365.205 74.7814C366.414 70.5837 366.721 65.9818 365.936 61.4428C365.8 60.2955 365.438 59.1904 365.15 58.0621C365.024 57.4919 364.782 56.957 364.586 56.4057C364.376 55.8596 364.183 55.3041 363.957 54.7623C362.945 52.6432 361.833 50.5216 360.321 48.6546C359.637 47.669 358.789 46.8262 357.993 45.9481C357.611 45.4923 357.134 45.1337 356.705 44.7287C356.261 44.3417 355.842 43.9246 355.378 43.5651L353.965 42.5219L353.259 42.0033L352.51 41.5553L351.018 40.6626C350.516 40.3771 349.979 40.1595 349.464 39.9049C345.304 37.9536 340.791 37.0059 336.427 37.1005C332.061 37.1865 327.867 38.2511 324.198 40.0245C320.522 41.7943 317.371 44.2582 314.892 47.0627C312.407 49.868 310.597 53.0079 309.409 56.1512C309.267 56.5476 309.126 56.9398 308.987 57.3302C308.838 57.7181 308.708 58.1068 308.624 58.5076C308.427 59.2988 308.233 60.0779 308.042 60.8442C307.832 62.4077 307.544 63.9101 307.514 65.3807C307.277 71.2752 308.831 76.1634 310.524 79.5931L310.542 79.6292L310.53 79.6662C309.525 82.7304 308.751 85.0867 308.223 86.6949C307.96 87.487 307.758 88.0933 307.617 88.5182C307.48 88.9301 307.401 89.1477 307.401 89.1477C307.401 89.1477 307.453 88.9516 307.575 88.5474C307.704 88.1251 307.889 87.5231 308.131 86.7371C308.637 85.1057 309.38 82.7149 310.344 79.6068L310.35 79.6799C308.612 76.2451 307.009 71.3242 307.217 65.3695C307.24 63.8843 307.522 62.3647 307.729 60.7831C307.918 60.0083 308.11 59.2197 308.306 58.4181C308.39 58.0131 308.52 57.6183 308.668 57.2262C308.808 56.8314 308.95 56.4333 309.091 56.0316C310.281 52.8471 312.101 49.6616 314.611 46.8124C317.113 43.965 320.3 41.4598 324.023 39.6572C327.739 37.8521 331.992 36.7633 336.421 36.6713C340.848 36.5698 345.429 37.5253 349.653 39.5042C350.176 39.7613 350.721 39.9823 351.231 40.2721L352.747 41.1769L353.508 41.6318L354.224 42.1573L355.66 43.2159C356.131 43.5806 356.557 44.0037 357.008 44.3967C357.443 44.8078 357.927 45.1716 358.315 45.6342C359.124 46.5252 359.984 47.3818 360.679 48.3819C362.213 50.2782 363.344 52.4308 364.368 54.5834C364.598 55.1338 364.793 55.698 365.006 56.2527C365.206 56.8117 365.451 57.3552 365.578 57.934C365.87 59.0786 366.236 60.2018 366.374 61.3662C367.168 65.975 366.852 70.6439 365.618 74.9018C364.378 79.1665 362.158 82.9703 359.428 86.0757C356.692 89.1864 353.421 91.5918 350.004 93.243C346.584 94.9011 343.024 95.8023 339.633 96.1033C338.783 96.1438 337.945 96.2263 337.121 96.228C336.297 96.1936 335.486 96.1592 334.688 96.1257C333.096 96.0191 331.571 95.7697 330.124 95.4515C324.288 94.1864 319.986 91.2547 317.193 88.6248L317.265 88.6506C314.051 88.8183 311.579 88.9473 309.891 89.0359C309.079 89.0754 308.457 89.1055 308.021 89.127C307.601 89.1451 307.401 89.1477 307.401 89.1477Z" fill="#263238"/>
<path d="M320.185 65.3571L325.062 61.1337L333.278 69.5651L351.697 54.2262L355.595 59.08L331.998 78.295L320.185 65.3571Z" fill="#008037"/>
<path d="M256.375 300.564L91.4592 337.317C87.4559 338.209 83.4879 335.687 82.5961 331.684L29.0748 91.5306C28.183 87.5273 30.7045 83.5592 34.7078 82.6674L199.624 45.9145C203.627 45.0226 207.595 47.5442 208.487 51.5475L262.008 291.702C262.9 295.704 260.378 299.672 256.375 300.564Z" fill="#E0E0E0"/>
<path d="M256.375 300.565C256.375 300.565 256.559 300.508 256.922 300.404C257.285 300.296 257.814 300.091 258.468 299.73C259.108 299.35 259.861 298.781 260.552 297.916C261.229 297.052 261.842 295.873 262.059 294.434C262.183 293.717 262.168 292.937 262.041 292.138C261.906 291.338 261.686 290.503 261.498 289.623C261.104 287.865 260.673 285.942 260.205 283.859C259.272 279.692 258.195 274.886 256.983 269.476C252.144 247.826 245.144 216.502 236.493 177.798C232.173 158.444 227.441 137.244 222.362 114.486C219.823 103.106 217.196 91.337 214.492 79.2144C213.14 73.1531 211.768 67.0033 210.377 60.7691C209.677 57.6551 208.975 54.5195 208.266 51.3633C207.891 49.8213 206.958 48.435 205.715 47.4443C204.453 46.4759 202.874 45.8989 201.268 45.9049C200.463 45.9015 199.681 46.0597 198.874 46.2498C198.072 46.4286 197.269 46.6075 196.464 46.7873C194.855 47.1459 193.24 47.5062 191.621 47.8674C188.383 48.5898 185.126 49.3157 181.85 50.0467C175.297 51.5078 168.671 52.9853 161.973 54.4791C148.578 57.4659 134.9 60.5154 120.977 63.62C93.1294 69.8275 64.2962 76.2543 34.7655 82.8367C32.9578 83.2332 31.329 84.3443 30.309 85.8803C29.2762 87.4068 28.8651 89.3315 29.1876 91.1392C29.9659 94.7993 30.8095 98.4655 31.6136 102.11C33.239 109.404 34.8533 116.649 36.4563 123.842C39.6615 138.227 42.8194 152.401 45.9223 166.328C52.1264 194.184 58.1111 221.052 63.812 246.648C69.5104 272.244 74.9249 296.566 79.9929 319.33C80.6259 322.176 81.2537 324.996 81.8763 327.792C82.1937 329.186 82.4835 330.592 82.8198 331.958C83.1681 333.307 83.9317 334.531 84.95 335.458C85.9708 336.389 87.2539 337.007 88.599 337.247C89.2741 337.36 89.9595 337.376 90.6363 337.311C91.3062 337.222 91.9813 337.058 92.6556 336.908C95.35 336.309 98.0177 335.715 100.66 335.127C111.226 332.777 121.366 330.52 131.044 328.368C169.759 319.764 201.088 312.802 222.742 307.99C233.567 305.592 241.973 303.73 247.676 302.467C250.525 301.84 252.698 301.362 254.162 301.039C255.625 300.719 256.375 300.565 256.375 300.565C256.375 300.565 255.63 300.744 254.171 301.075C252.709 301.405 250.539 301.894 247.693 302.537C241.994 303.815 233.592 305.698 222.773 308.124C201.126 312.962 169.804 319.962 131.1 328.612C121.423 330.772 111.285 333.036 100.721 335.394C98.0796 335.984 95.4119 336.579 92.7183 337.18C92.0458 337.329 91.375 337.495 90.6698 337.589C89.9664 337.657 89.2543 337.641 88.5525 337.524C87.1542 337.275 85.8212 336.634 84.7599 335.668C83.7004 334.706 82.9066 333.433 82.5437 332.031C82.2006 330.641 81.9142 329.253 81.5951 327.854C80.9707 325.058 80.3421 322.237 79.7066 319.393C74.6291 296.632 69.2034 272.312 63.4938 246.718C57.7869 221.125 51.7953 194.257 45.5843 166.403C42.4797 152.476 39.3201 138.302 36.1132 123.917C34.5101 116.725 32.895 109.48 31.2696 102.186C30.4638 98.5335 29.6253 94.8922 28.8401 91.1985C28.5022 89.3022 28.9339 87.2812 30.0166 85.6816C31.0856 84.0708 32.7979 82.9038 34.6916 82.4893C64.2231 75.9094 93.0563 69.4844 120.905 63.2795C134.829 60.1775 148.507 57.1313 161.904 54.1471C168.601 52.6559 175.229 51.1793 181.782 49.7199C185.058 48.9906 188.315 48.2647 191.554 47.5432C193.173 47.1829 194.787 46.8234 196.397 46.4648C197.201 46.2859 198.005 46.107 198.807 45.9281C199.598 45.7415 200.436 45.5712 201.274 45.5764C202.953 45.5704 204.603 46.1741 205.92 47.1863C207.22 48.2209 208.194 49.6717 208.585 51.2816C209.293 54.4413 209.996 57.5803 210.694 60.6978C212.082 66.9328 213.451 73.0826 214.801 79.1448C217.5 91.269 220.12 103.04 222.654 114.42C227.719 137.182 232.437 158.385 236.743 177.742C245.347 216.457 252.309 247.788 257.122 269.444C258.322 274.858 259.388 279.667 260.313 283.835C260.774 285.919 261.2 287.843 261.589 289.602C261.774 290.485 261.99 291.314 262.124 292.124C262.249 292.932 262.26 293.721 262.133 294.444C261.908 295.897 261.284 297.082 260.597 297.949C259.896 298.817 259.135 299.385 258.488 299.761C257.829 300.118 257.295 300.319 256.93 300.421C256.562 300.52 256.375 300.565 256.375 300.565Z" fill="#263238"/>
<g opacity="0.3">
<path d="M99.8214 328.816L250.081 294.466L245.327 265.014L236.812 248.511L93.0713 304.971L99.8214 328.816Z" fill="black"/>
</g>
<g opacity="0.3">
<path d="M162.555 54.7229L168.238 64.1081L169.347 69.0806L165.488 69.9406L162.555 54.7229Z" fill="black"/>
</g>
<path d="M37.6367 92.9227L89.7673 326.844L253.177 290.427L243.855 248.599L201.045 56.5061L37.6367 92.9227Z" fill="white"/>
<path d="M37.6357 92.9223C38.8002 92.6618 101.697 78.587 201.013 56.3637L201.155 56.3319L201.187 56.4738C215.684 121.48 233.776 202.604 253.348 290.369L253.352 290.388L253.392 290.563L253.216 290.603C194.796 303.616 139.324 315.974 89.8042 327.004L89.6434 327.04L89.6081 326.88C58.9207 188.743 37.9522 94.3474 37.6357 92.9223C37.9539 94.3456 59.0523 188.713 89.9272 326.808L89.7311 326.683C139.249 315.643 194.718 303.276 253.136 290.25L253 290.465L252.995 290.446C233.448 202.676 215.381 121.547 200.902 56.5366L201.076 56.6467C101.721 78.6988 38.7993 92.6643 37.6357 92.9223Z" fill="#263238"/>
<path d="M166.373 71.8384L83.6925 90.2647L79.5319 71.5932C78.8783 68.6606 80.7255 65.7538 83.6581 65.1002L155.719 49.0406C158.652 48.387 161.559 50.2343 162.212 53.1669L166.373 71.8384Z" fill="#263238"/>
<path d="M128.199 45.708L107.155 50.3976L113.635 67.8874L129.486 64.3546L128.199 45.708Z" fill="#263238"/>
<path d="M155.715 49.0422C155.736 49.1377 139.622 52.8107 119.727 57.2449C99.8244 61.6799 83.6787 65.1973 83.6572 65.101C83.6357 65.0055 99.747 61.3333 119.649 56.8975C139.544 52.4642 155.693 48.9468 155.715 49.0422Z" fill="#455A64"/>
<path d="M84.6811 85.9848C84.5856 86.0063 83.7514 82.6317 82.8192 78.4478C81.8861 74.263 81.2084 70.854 81.3039 70.8325C81.3993 70.811 82.2335 74.1856 83.1658 78.3704C84.098 82.5543 84.7766 85.9633 84.6811 85.9848Z" fill="#455A64"/>
<path d="M162.434 66.7736C162.338 66.7951 161.574 63.7326 160.728 59.934C159.881 56.1345 159.273 53.0377 159.368 53.017C159.464 52.9955 160.228 56.0571 161.075 59.8575C161.921 63.6552 162.53 66.7521 162.434 66.7736Z" fill="#455A64"/>
<path d="M159.158 70.8517C159.18 70.948 142.638 74.7156 122.215 79.2668C101.786 83.8196 85.2129 87.4316 85.1914 87.3353C85.1699 87.2398 101.709 83.4722 122.138 78.9193C142.56 74.3691 159.137 70.7562 159.158 70.8517Z" fill="#455A64"/>
<path d="M115.628 138.902C115.649 138.999 104.492 141.568 90.7116 144.639C76.9258 147.711 65.7364 150.122 65.7149 150.025C65.6934 149.928 76.8476 147.36 90.6334 144.287C104.414 141.216 115.606 138.804 115.628 138.902Z" fill="#263238"/>
<path d="M198.799 129.534C198.821 129.631 169.668 136.21 133.695 144.228C97.7079 152.248 68.5264 158.668 68.5049 158.572C68.4834 158.474 97.6297 151.896 133.616 143.877C169.591 135.859 198.778 129.437 198.799 129.534Z" fill="#263238"/>
<path d="M200.592 137.575C200.614 137.672 171.461 144.252 135.488 152.269C99.5009 160.289 70.3194 166.709 70.2979 166.612C70.2764 166.514 99.4226 159.936 135.409 151.917C171.383 143.9 200.57 137.477 200.592 137.575Z" fill="#263238"/>
<path d="M202.384 145.613C202.406 145.71 173.253 152.289 137.28 160.307C101.293 168.327 72.1114 174.747 72.0899 174.65C72.0684 174.553 101.215 167.975 137.201 159.955C173.175 151.938 202.363 145.516 202.384 145.613Z" fill="#263238"/>
<path d="M204.174 153.652C204.196 153.749 175.043 160.329 139.07 168.346C103.083 176.366 73.9014 182.786 73.8799 182.689C73.8584 182.592 103.005 176.014 138.991 167.994C174.965 159.976 204.153 153.555 204.174 153.652Z" fill="#263238"/>
<path d="M205.967 161.692C205.989 161.789 176.836 168.369 140.863 176.385C104.876 184.406 75.6952 190.826 75.6729 190.729C75.6514 190.631 104.798 184.053 140.784 176.034C176.759 168.016 205.946 161.594 205.967 161.692Z" fill="#263238"/>
<path d="M100.94 218.28C100.933 218.275 100.907 218.182 100.862 218.008C100.813 217.808 100.75 217.556 100.673 217.242C100.508 216.544 100.278 215.579 99.9908 214.368C99.4163 211.881 98.6096 208.387 97.6447 204.207L97.8304 204.325C93.7239 205.248 88.889 206.333 83.7307 207.493C83.6989 207.539 83.9879 207.088 83.8666 207.28L83.8675 207.284L83.8692 207.291L83.8726 207.307L83.8795 207.337L83.8933 207.397L83.9199 207.518L83.9741 207.759L84.0816 208.241C84.153 208.561 84.2235 208.88 84.294 209.197C84.4351 209.832 84.5753 210.461 84.7129 211.083C84.9889 212.328 85.2581 213.545 85.5213 214.73C86.0424 217.099 86.5343 219.335 86.9867 221.389L86.8009 221.271C90.9952 220.369 94.5014 219.616 96.9962 219.08C98.2157 218.826 99.1867 218.624 99.8876 218.477C100.204 218.415 100.459 218.364 100.662 218.324C100.838 218.29 100.933 218.274 100.94 218.28C100.947 218.284 100.866 218.308 100.702 218.351C100.509 218.398 100.267 218.459 99.9658 218.533C99.277 218.697 98.3232 218.924 97.1261 219.208C94.6158 219.787 91.0889 220.601 86.8689 221.575L86.7175 221.61L86.6831 221.457C86.2204 219.406 85.7165 217.173 85.1824 214.807C84.9167 213.623 84.6441 212.405 84.3654 211.161C84.2261 210.539 84.0859 209.91 83.944 209.275C83.8735 208.958 83.8021 208.639 83.7307 208.319L83.6232 207.838L83.5691 207.596L83.5424 207.475L83.5286 207.414L83.5218 207.384L83.5183 207.369L83.5166 207.361L83.5157 207.358C83.3936 207.549 83.6809 207.093 83.6533 207.14C88.8159 205.999 93.6543 204.929 97.7634 204.02L97.9164 203.986L97.9491 204.139C98.859 208.372 99.6201 211.911 100.161 214.43C100.412 215.635 100.612 216.595 100.756 217.288C100.816 217.593 100.865 217.838 100.903 218.033C100.934 218.2 100.947 218.284 100.94 218.28Z" fill="#263238"/>
<path d="M205.785 183.51L107.387 205.436L109.216 213.645L207.614 191.719L205.785 183.51Z" fill="#E0E0E0"/>
<path d="M106.394 242.747C106.387 242.743 106.361 242.65 106.316 242.475C106.267 242.275 106.204 242.023 106.127 241.709C105.962 241.012 105.732 240.047 105.445 238.835C104.87 236.348 104.064 232.854 103.099 228.675L103.284 228.793C99.1779 229.715 94.343 230.801 89.1847 231.96C89.1529 232.006 89.4419 231.554 89.3206 231.748L89.3215 231.751L89.3232 231.759L89.3266 231.774L89.3335 231.804L89.3473 231.865L89.3739 231.986L89.4281 232.227L89.5356 232.709C89.607 233.029 89.6775 233.348 89.7489 233.665C89.8899 234.3 90.0292 234.93 90.1677 235.551C90.4438 236.796 90.7129 238.014 90.9761 239.199C91.4973 241.567 91.9892 243.803 92.4415 245.857L92.2558 245.739C96.45 244.838 99.9562 244.084 102.451 243.549C103.671 243.294 104.642 243.092 105.342 242.946C105.659 242.883 105.914 242.832 106.116 242.792C106.292 242.758 106.386 242.743 106.394 242.747C106.401 242.751 106.32 242.775 106.156 242.818C105.963 242.866 105.721 242.926 105.42 243.001C104.731 243.164 103.777 243.391 102.58 243.676C100.07 244.255 96.542 245.069 92.322 246.043L92.1706 246.079L92.1362 245.926C91.6736 243.874 91.1696 241.641 90.6355 239.275C90.3698 238.091 90.0972 236.874 89.8185 235.63C89.6792 235.008 89.539 234.378 89.3971 233.744C89.3266 233.426 89.2552 233.107 89.1839 232.787L89.0764 232.306L89.0222 232.064L88.9955 231.943L88.9818 231.883L88.9749 231.853L88.9714 231.837L88.9697 231.829L88.9689 231.826C88.8467 232.017 89.134 231.561 89.1065 231.608C94.269 230.467 99.1074 229.397 103.216 228.489L103.37 228.455L103.402 228.607C104.312 232.841 105.073 236.38 105.615 238.899C105.866 240.103 106.066 241.063 106.21 241.756C106.27 242.061 106.319 242.306 106.357 242.501C106.388 242.668 106.401 242.752 106.394 242.747Z" fill="#263238"/>
<path d="M211.236 207.98L112.838 229.906L114.667 238.115L213.065 216.189L211.236 207.98Z" fill="#E0E0E0"/>
<path d="M111.845 267.216C111.839 267.212 111.812 267.119 111.767 266.944C111.718 266.744 111.655 266.492 111.578 266.178C111.413 265.482 111.183 264.516 110.896 263.304C110.322 260.817 109.516 257.324 108.55 253.144L108.736 253.262C104.629 254.185 99.7943 255.27 94.636 256.429C94.6042 256.476 94.894 256.024 94.7719 256.217L94.7727 256.221L94.7745 256.229L94.7779 256.244L94.7848 256.274L94.7986 256.335L94.8252 256.456L94.8794 256.698L94.9869 257.179C95.0583 257.499 95.1288 257.818 95.1993 258.135C95.3404 258.77 95.4805 259.4 95.6181 260.021C95.8942 261.266 96.1634 262.484 96.4257 263.669C96.9468 266.037 97.4388 268.273 97.8911 270.327L97.7054 270.209C101.9 269.308 105.406 268.554 107.901 268.018C109.12 267.763 110.091 267.561 110.793 267.415C111.109 267.352 111.365 267.301 111.567 267.261C111.744 267.227 111.839 267.212 111.845 267.216C111.852 267.221 111.772 267.245 111.607 267.288C111.415 267.336 111.172 267.396 110.871 267.471C110.182 267.634 109.228 267.861 108.031 268.145C105.521 268.725 101.994 269.538 97.7742 270.513L97.6228 270.548L97.5884 270.395C97.1257 268.343 96.6218 266.11 96.0877 263.744C95.822 262.56 95.5493 261.342 95.2707 260.099C95.1314 259.476 94.9912 258.848 94.8493 258.213C94.7788 257.896 94.7074 257.576 94.636 257.257L94.5285 256.775L94.4743 256.533L94.4477 256.412L94.4339 256.352L94.427 256.322L94.4236 256.306L94.4219 256.299L94.421 256.295C94.2989 256.486 94.5861 256.03 94.5586 256.077C99.7212 254.936 104.56 253.866 108.669 252.957L108.822 252.924L108.854 253.076C109.764 257.31 110.525 260.849 111.066 263.368C111.317 264.573 111.517 265.532 111.661 266.225C111.722 266.53 111.771 266.776 111.808 266.97C111.84 267.137 111.852 267.221 111.845 267.216Z" fill="#263238"/>
<path d="M216.687 232.451L118.289 254.376L120.118 262.585L218.516 240.66L216.687 232.451Z" fill="#E0E0E0"/>
<path d="M87.3887 213.224L88.8662 210.899L93.2599 213.341L98.9135 204.811L101.102 206.319L93.8051 217.068L87.3887 213.224Z" fill="#008037"/>
<path d="M92.6621 236.874L94.1396 234.549L98.5325 236.991L104.187 228.461L106.376 229.969L99.0786 240.718L92.6621 236.874Z" fill="#008037"/>
<path d="M98.0615 261.122L99.539 258.797L103.932 261.239L109.586 252.709L111.775 254.217L104.477 264.966L98.0615 261.122Z" fill="#008037"/>
<path d="M143.102 291.552C143.123 291.649 134.815 293.583 124.549 295.87C114.278 298.159 105.938 299.936 105.916 299.838C105.895 299.741 114.2 297.808 124.471 295.519C134.737 293.231 143.079 291.455 143.102 291.552Z" fill="#263238"/>
<path d="M161.63 287.123C161.652 287.22 158.595 287.984 154.804 288.829C151.012 289.674 147.922 290.28 147.9 290.183C147.878 290.086 150.934 289.322 154.726 288.477C158.517 287.632 161.609 287.026 161.63 287.123Z" fill="#263238"/>
<path d="M222.983 267.811C223.004 267.908 215.529 269.657 206.289 271.715C197.046 273.775 189.537 275.366 189.516 275.269C189.494 275.172 196.968 273.423 206.211 271.364C215.451 269.305 222.961 267.714 222.983 267.811Z" fill="#263238"/>
<path d="M214.995 290.45C214.974 290.444 215.068 290.215 215.159 289.766C215.259 289.318 215.264 288.625 215.055 287.779C214.839 286.932 214.396 285.953 213.866 284.819C213.358 283.69 212.7 282.351 212.688 280.719C212.713 279.116 213.419 277.337 214.869 276.089C216.3 274.817 218.546 274.368 220.583 275.024C221.597 275.354 222.576 275.928 223.303 276.81C223.651 277.26 223.93 277.8 223.949 278.42C224.003 279.052 223.519 279.68 222.941 279.873C222.369 280.093 221.81 280.158 221.248 280.293C220.683 280.409 220.114 280.527 219.54 280.645C218.39 280.872 217.217 281.082 216.02 281.239C213.632 281.559 211.232 281.603 208.984 281.279C207.885 281.163 206.724 281.145 205.896 281.782C205.071 282.413 204.652 283.437 204.035 284.296C203.732 284.73 203.344 285.144 202.835 285.368C202.334 285.6 201.75 285.594 201.258 285.434C200.266 285.099 199.536 284.435 198.749 283.987C198.359 283.76 197.953 283.571 197.539 283.53C197.128 283.49 196.714 283.591 196.386 283.822C195.722 284.294 195.37 285.076 194.929 285.731C194.059 287.121 192.562 287.78 191.299 287.826C190.003 287.889 188.951 287.339 188.288 286.758C187.611 286.167 187.273 285.537 187.097 285.108C186.924 284.673 186.901 284.425 186.901 284.425C186.92 284.42 186.972 284.661 187.163 285.079C187.357 285.491 187.707 286.094 188.378 286.651C189.037 287.199 190.055 287.704 191.287 287.624C192.496 287.56 193.905 286.918 194.716 285.591C195.144 284.952 195.477 284.145 196.228 283.593C196.602 283.325 197.091 283.199 197.568 283.244C198.049 283.289 198.491 283.496 198.898 283.729C199.715 284.192 200.454 284.841 201.351 285.132C201.794 285.271 202.279 285.27 202.704 285.073C203.13 284.883 203.477 284.521 203.765 284.105C204.357 283.288 204.763 282.234 205.691 281.509C206.152 281.152 206.731 280.968 207.302 280.903C207.877 280.838 208.453 280.873 209.021 280.93C211.266 281.247 213.599 281.199 215.975 280.884C217.16 280.728 218.326 280.52 219.471 280.295C220.044 280.178 220.612 280.061 221.176 279.945C221.733 279.815 222.32 279.737 222.808 279.548C223.302 279.367 223.63 278.933 223.602 278.427C223.591 277.926 223.348 277.428 223.034 277.023C222.373 276.214 221.441 275.654 220.484 275.341C218.55 274.712 216.426 275.123 215.064 276.318C213.677 277.493 212.983 279.193 212.945 280.724C212.937 282.274 213.559 283.603 214.051 284.737C214.562 285.876 214.994 286.878 215.192 287.747C215.385 288.618 215.355 289.33 215.231 289.781C215.115 290.233 214.995 290.45 214.995 290.45Z" fill="#263238"/>
<path d="M232.776 279.44C232.779 279.452 232.624 279.498 232.327 279.574C231.993 279.654 231.562 279.758 231.025 279.887C229.85 280.16 228.222 280.538 226.229 280.999C222.179 281.939 216.592 283.264 210.444 284.822C204.295 286.383 198.752 287.881 194.744 288.986C192.771 289.53 191.161 289.974 189.998 290.294C189.465 290.436 189.036 290.551 188.704 290.638C188.407 290.713 188.249 290.747 188.245 290.735C188.242 290.723 188.392 290.666 188.683 290.569C189.01 290.464 189.433 290.328 189.958 290.159C191.068 289.809 192.678 289.324 194.675 288.74C198.666 287.572 204.202 286.034 210.356 284.472C216.507 282.913 222.107 281.626 226.173 280.75C228.206 280.311 229.854 279.971 230.995 279.749C231.538 279.647 231.974 279.565 232.311 279.501C232.614 279.45 232.773 279.428 232.776 279.44Z" fill="#263238"/>
<path d="M162.245 90.7366L95.4492 105.62L98.2456 118.17L165.041 103.286L162.245 90.7366Z" fill="#E0E0E0"/>
<path d="M225.424 294.385L247.003 408.388L266.723 371.952L304.1 393.889L264.424 282.877L225.424 294.385Z" fill="#008037"/>
<g opacity="0.3">
<path d="M232.678 332.726C236.667 333.547 241.323 332.136 244.153 329.208C246.119 327.174 247.43 324.411 249.91 323.049C252.135 321.826 254.88 322.001 257.327 322.676C259.775 323.352 262.08 324.487 264.538 325.124C269.355 326.374 274.668 325.585 278.916 322.99L272.691 305.704L243.793 302.094L230.014 318.646L232.678 332.726Z" fill="black"/>
</g>
<path d="M265.314 367.424C265.194 367.455 261.981 355.615 258.137 340.981C254.292 326.342 251.274 314.454 251.393 314.423C251.513 314.392 254.726 326.229 258.571 340.868C262.414 355.501 265.433 367.392 265.314 367.424Z" fill="#263238"/>
<path d="M228.58 300.314L207 414.316L187.281 377.881L149.903 399.819L189.579 288.806L228.58 300.314Z" fill="#008037"/>
<g opacity="0.3">
<path d="M177.712 322.009C177.712 322.009 183.849 327.062 191.172 324.734C198.494 322.406 203.04 321.916 207.001 324.734C210.962 327.551 221.686 336.736 221.686 336.736L224.176 323.583L209.774 303.804L194.734 306.841L184.023 307.91L180.041 315.447L177.712 322.009Z" fill="black"/>
</g>
<path d="M355.096 197.402C355.096 205.581 344.641 212.627 343.112 220.358C341.537 228.323 348.471 238.823 345.432 246.152C342.34 253.609 329.982 256.116 325.544 262.744C321.073 269.422 323.458 281.794 317.795 287.456C312.132 293.118 299.761 290.733 293.082 295.204C286.454 299.642 283.948 311.999 276.491 315.092C269.162 318.131 258.662 311.197 250.697 312.772C242.966 314.301 235.92 324.757 227.741 324.757C219.561 324.757 212.515 314.301 204.785 312.772C196.819 311.197 186.32 318.13 178.991 315.092C171.534 312 169.027 299.642 162.399 295.204C155.72 290.733 143.349 293.118 137.687 287.455C132.024 281.793 134.409 269.422 129.938 262.743C125.501 256.115 113.143 253.608 110.05 246.151C107.011 238.822 113.945 228.322 112.37 220.357C110.841 212.626 100.386 205.58 100.386 197.401C100.386 189.221 110.841 182.175 112.37 174.445C113.945 166.48 107.011 155.98 110.05 148.651C113.142 141.194 125.5 138.687 129.938 132.059C134.409 125.38 132.024 113.009 137.687 107.347C143.35 101.685 155.721 104.069 162.399 99.5982C169.027 95.1606 171.534 82.8033 178.991 79.7107C186.32 76.6715 196.82 83.6057 204.785 82.0302C212.516 80.5011 219.562 70.0461 227.741 70.0461C235.921 70.0461 242.967 80.5011 250.697 82.0302C258.663 83.6057 269.162 76.6723 276.491 79.7107C283.948 82.8024 286.455 95.1606 293.083 99.5982C299.762 104.069 312.133 101.685 317.795 107.347C323.458 113.009 321.073 125.38 325.544 132.059C329.981 138.687 342.339 141.194 345.432 148.651C348.471 155.98 341.537 166.48 343.112 174.445C344.641 182.176 355.096 189.222 355.096 197.402Z" fill="#008037"/>
<path d="M197.943 126.017C197.929 126.024 197.85 125.902 197.712 125.665C197.553 125.379 197.359 125.034 197.125 124.617C196.621 123.703 195.926 122.363 195.097 120.693C193.435 117.354 191.287 112.664 189.215 107.361C187.148 102.054 185.551 97.1473 184.513 93.5654C183.993 91.7749 183.597 90.318 183.35 89.305C183.239 88.8397 183.147 88.4544 183.071 88.1371C183.013 87.8688 182.989 87.726 183.003 87.7217C183.018 87.7174 183.071 87.8524 183.158 88.113C183.256 88.4243 183.375 88.8019 183.517 89.2585C183.845 90.3206 184.284 91.7448 184.816 93.4742C185.931 97.0269 187.57 101.905 189.632 107.199C191.699 112.49 193.795 117.188 195.381 120.557C196.16 122.19 196.802 123.536 197.28 124.538C197.483 124.971 197.652 125.329 197.791 125.624C197.904 125.874 197.957 126.009 197.943 126.017Z" fill="#263238"/>
<path d="M209.275 121.706C209.245 121.714 209.13 121.376 208.946 120.758C208.762 120.14 208.518 119.24 208.234 118.124C207.667 115.89 206.963 112.784 206.327 109.326C205.692 105.866 205.246 102.712 204.984 100.422C204.852 99.2777 204.76 98.3497 204.714 97.7073C204.665 97.0649 204.653 96.708 204.683 96.7046C204.714 96.7011 204.785 97.0511 204.886 97.6867C204.998 98.4168 205.135 99.3172 205.297 100.38C205.64 102.655 206.134 105.793 206.767 109.244C207.402 112.695 208.055 115.803 208.542 118.051C208.768 119.102 208.96 119.992 209.115 120.715C209.247 121.346 209.305 121.699 209.275 121.706Z" fill="#263238"/>
<path d="M229.272 119.72C229.148 119.722 228.83 110.076 228.56 98.1758C228.291 86.2717 228.173 76.6225 228.297 76.6199C228.421 76.6173 228.739 86.2622 229.009 98.1664C229.277 110.065 229.395 119.717 229.272 119.72Z" fill="#263238"/>
<path d="M249.39 99.8985C249.508 99.9355 248.12 104.759 246.289 110.671C244.459 116.585 242.879 121.349 242.761 121.313C242.643 121.276 244.031 116.454 245.862 110.538C247.692 104.626 249.271 99.8615 249.39 99.8985Z" fill="#263238"/>
<path d="M257.603 124.827C257.588 124.822 257.626 124.681 257.711 124.42C257.818 124.111 257.948 123.737 258.103 123.286C258.449 122.302 258.984 120.892 259.652 119.152C260.996 115.676 262.93 110.905 265.129 105.663C267.329 100.419 269.374 95.6951 270.881 92.2877C271.624 90.6374 272.236 89.2777 272.692 88.2638C272.897 87.8321 273.067 87.4743 273.207 87.1802C273.329 86.9342 273.401 86.8087 273.415 86.8147C273.43 86.8207 273.386 86.9592 273.29 87.2163C273.171 87.5199 273.027 87.8888 272.852 88.3335C272.429 89.362 271.861 90.7397 271.173 92.4133C269.707 95.9083 267.729 100.625 265.543 105.837C263.37 111.052 261.404 115.772 259.947 119.27C259.258 120.943 258.691 122.321 258.267 123.348C258.079 123.788 257.924 124.152 257.796 124.453C257.683 124.703 257.616 124.832 257.603 124.827Z" fill="#263238"/>
<path d="M268.354 130.433C268.328 130.416 268.505 130.105 268.844 129.557C269.183 129.009 269.694 128.229 270.34 127.275C271.632 125.366 273.486 122.777 275.648 120.003C277.812 117.23 279.873 114.801 281.409 113.084C282.177 112.225 282.809 111.54 283.259 111.078C283.707 110.614 283.966 110.368 283.989 110.389C284.012 110.409 283.797 110.695 283.389 111.193C282.918 111.761 282.337 112.462 281.65 113.29C280.177 115.058 278.161 117.512 276.001 120.279C273.844 123.045 271.955 125.599 270.599 127.457C269.963 128.325 269.425 129.06 268.988 129.655C268.604 130.172 268.38 130.45 268.354 130.433Z" fill="#263238"/>
<path d="M283.99 143.252C283.906 143.161 290.71 136.693 299.186 128.808C307.665 120.92 314.605 114.601 314.689 114.691C314.774 114.781 307.97 121.248 299.492 129.136C291.015 137.022 284.074 143.342 283.99 143.252Z" fill="#263238"/>
<path d="M311.307 145.923C311.334 145.984 310.326 146.489 308.715 147.335C307.101 148.177 304.902 149.394 302.478 150.755C300.052 152.117 297.818 153.295 296.162 154.068C295.335 154.454 294.659 154.754 294.183 154.941C293.709 155.132 293.441 155.224 293.428 155.196C293.401 155.135 294.409 154.629 296.02 153.784C297.634 152.941 299.833 151.725 302.259 150.363C304.684 149.001 306.918 147.823 308.573 147.05C309.4 146.664 310.076 146.364 310.552 146.176C311.026 145.986 311.294 145.894 311.307 145.923Z" fill="#263238"/>
<path d="M336.593 156.412C336.634 156.529 328.534 159.486 318.504 163.017C308.47 166.549 300.305 169.318 300.264 169.202C300.223 169.085 308.321 166.128 318.355 162.595C328.386 159.064 336.552 156.295 336.593 156.412Z" fill="#263238"/>
<path d="M344.64 202.392C344.628 202.515 335.826 201.778 324.982 200.746C314.134 199.713 305.352 198.777 305.363 198.654C305.375 198.531 314.176 199.268 325.024 200.301C335.868 201.333 344.652 202.269 344.64 202.392Z" fill="#263238"/>
<path d="M338.168 243.635C338.115 243.747 329.885 239.97 319.788 235.2C309.687 230.428 301.545 226.471 301.598 226.359C301.65 226.247 309.879 230.023 319.98 234.795C330.076 239.565 338.22 243.524 338.168 243.635Z" fill="#263238"/>
<path d="M311.095 282.875C311.001 282.955 305.065 276.07 297.839 267.499C290.61 258.926 284.828 251.914 284.923 251.834C285.018 251.754 290.952 258.637 298.181 267.211C305.407 275.782 311.19 282.796 311.095 282.875Z" fill="#263238"/>
<path d="M288.5 288.06C288.474 288.076 288.219 287.731 287.783 287.093C287.344 286.455 286.728 285.52 285.981 284.356C284.486 282.028 282.482 278.771 280.371 275.114C278.261 271.456 276.445 268.091 275.178 265.631C274.544 264.401 274.042 263.4 273.71 262.701C273.376 262.003 273.204 261.61 273.231 261.596C273.259 261.582 273.483 261.948 273.863 262.62C274.281 263.371 274.816 264.332 275.456 265.481C276.794 267.901 278.652 271.236 280.759 274.891C282.867 278.542 284.825 281.82 286.25 284.189C286.925 285.319 287.489 286.262 287.93 286.999C288.321 287.667 288.526 288.043 288.5 288.06Z" fill="#263238"/>
<path d="M274.461 307.795C274.447 307.802 274.371 307.681 274.237 307.442C274.084 307.156 273.898 306.809 273.675 306.391C273.191 305.476 272.526 304.134 271.735 302.461C270.15 299.117 268.113 294.418 266.176 289.111C264.243 283.798 262.779 278.891 261.841 275.311C261.371 273.521 261.016 272.065 260.798 271.054C260.701 270.59 260.62 270.205 260.553 269.888C260.501 269.62 260.482 269.478 260.497 269.474C260.512 269.471 260.561 269.606 260.641 269.866C260.73 270.179 260.838 270.556 260.967 271.012C261.265 272.075 261.663 273.499 262.146 275.227C263.161 278.779 264.668 283.659 266.596 288.957C268.529 294.252 270.513 298.956 272.022 302.329C272.764 303.963 273.375 305.31 273.831 306.315C274.025 306.747 274.186 307.106 274.318 307.402C274.425 307.653 274.475 307.788 274.461 307.795Z" fill="#263238"/>
<path d="M246.027 293.959C245.961 293.962 245.855 292.814 245.656 290.965C245.457 289.115 245.145 286.565 244.678 283.767C244.208 280.969 243.673 278.456 243.26 276.642C242.846 274.828 242.572 273.708 242.636 273.69C242.666 273.681 242.771 273.951 242.936 274.447C243.103 274.942 243.32 275.665 243.567 276.566C244.061 278.366 244.648 280.882 245.12 283.693C245.589 286.505 245.853 289.074 245.971 290.937C246.031 291.868 246.062 292.623 246.065 293.146C246.069 293.668 246.058 293.957 246.027 293.959Z" fill="#263238"/>
<path d="M227.428 318.716C227.412 318.716 227.399 318.563 227.39 318.274C227.385 317.934 227.378 317.517 227.37 317.01C227.359 315.912 227.366 314.324 227.402 312.361C227.467 308.435 227.647 303.014 227.962 297.032C228.272 291.048 228.658 285.638 228.974 281.725C229.134 279.769 229.277 278.187 229.389 277.095C229.445 276.592 229.492 276.177 229.53 275.839C229.567 275.551 229.595 275.402 229.61 275.403C229.626 275.404 229.628 275.557 229.62 275.846C229.604 276.186 229.586 276.603 229.562 277.11C229.494 278.272 229.401 279.841 229.29 281.749C229.061 285.729 228.751 291.11 228.409 297.057C228.095 303.035 227.865 308.451 227.718 312.371C227.647 314.281 227.588 315.851 227.545 317.015C227.519 317.521 227.498 317.938 227.481 318.278C227.461 318.564 227.443 318.716 227.428 318.716Z" fill="#263238"/>
<path d="M212.307 275.401C212.367 275.413 212.274 276.251 212.049 277.596C211.826 278.94 211.464 280.789 210.99 282.814C210.515 284.839 210.018 286.656 209.621 287.96C209.224 289.265 208.935 290.057 208.877 290.04C208.816 290.023 208.998 289.199 209.316 287.877C209.67 286.401 210.09 284.649 210.554 282.712C210.999 280.771 211.4 279.016 211.739 277.535C212.042 276.209 212.245 275.39 212.307 275.401Z" fill="#263238"/>
<path d="M184.969 262.267C185.068 262.342 183.383 264.729 181.207 267.599C179.03 270.47 177.185 272.735 177.087 272.66C176.988 272.585 178.673 270.199 180.851 267.328C183.025 264.458 184.87 262.192 184.969 262.267Z" fill="#263238"/>
<path d="M170.627 252.631C170.72 252.712 165.383 258.979 158.708 266.626C152.031 274.277 146.543 280.41 146.45 280.329C146.358 280.247 151.693 273.982 158.371 266.332C165.045 258.684 170.533 252.549 170.627 252.631Z" fill="#263238"/>
<path d="M163.451 241.965C163.53 242.061 160.561 244.637 156.82 247.72C153.078 250.804 149.982 253.226 149.903 253.131C149.825 253.035 152.792 250.459 156.534 247.375C160.275 244.292 163.372 241.87 163.451 241.965Z" fill="#263238"/>
<path d="M155.055 225.871C155.109 225.983 147.675 229.676 138.454 234.12C129.23 238.565 121.711 242.077 121.658 241.965C121.604 241.854 129.035 238.162 138.26 233.716C147.481 229.273 155.001 225.76 155.055 225.871Z" fill="#263238"/>
<path d="M151.682 217.844C151.688 217.874 151.413 217.954 150.91 218.073C150.407 218.193 149.675 218.344 148.767 218.511C146.952 218.849 144.427 219.231 141.622 219.513C138.816 219.793 136.265 219.918 134.419 219.948C133.495 219.963 132.749 219.961 132.232 219.942C131.716 219.925 131.431 219.901 131.43 219.87C131.429 219.805 132.568 219.742 134.406 219.631C136.245 219.52 138.782 219.347 141.577 219.068C144.371 218.788 146.892 218.455 148.716 218.199C150.541 217.944 151.67 217.78 151.682 217.844Z" fill="#263238"/>
<path d="M148.958 199.315C148.956 199.346 148.42 199.333 147.453 199.283C146.413 199.229 145.034 199.158 143.363 199.073C139.91 198.905 135.136 198.748 129.863 198.774C124.588 198.804 119.815 199.013 116.364 199.217C114.695 199.322 113.316 199.407 112.277 199.471C111.312 199.532 110.776 199.551 110.772 199.52C110.77 199.489 111.3 199.412 112.261 199.297C113.223 199.18 114.617 199.043 116.342 198.901C119.792 198.615 124.573 198.356 129.859 198.325C135.144 198.298 139.927 198.507 143.38 198.756C145.107 198.879 146.503 199.002 147.465 199.108C148.43 199.213 148.961 199.285 148.958 199.315Z" fill="#263238"/>
<path d="M150.647 183.042C150.613 183.162 145.045 181.712 138.211 179.804C131.374 177.897 125.86 176.254 125.893 176.134C125.926 176.015 131.494 177.465 138.331 179.372C145.165 181.28 150.681 182.923 150.647 183.042Z" fill="#263238"/>
<path d="M154.247 169.398C154.242 169.412 154.102 169.38 153.841 169.307C153.531 169.213 153.156 169.098 152.703 168.962C151.717 168.657 150.303 168.176 148.568 167.544C145.099 166.284 140.37 164.355 135.312 161.868C130.256 159.374 125.844 156.801 122.73 154.819C121.172 153.829 119.929 153.002 119.086 152.406C118.701 152.131 118.383 151.903 118.119 151.714C117.901 151.553 117.791 151.461 117.799 151.448C117.808 151.435 117.935 151.501 118.169 151.64C118.445 151.809 118.779 152.014 119.181 152.26C120.052 152.812 121.32 153.597 122.896 154.55C126.046 156.459 130.469 158.98 135.509 161.466C140.551 163.945 145.246 165.915 148.679 167.248C150.396 167.916 151.791 168.442 152.759 168.797C153.2 168.965 153.566 169.105 153.869 169.221C154.122 169.323 154.252 169.383 154.247 169.398Z" fill="#263238"/>
<path d="M162.341 155.681C162.27 155.783 157.917 152.839 152.618 149.108C147.318 145.376 143.081 142.269 143.152 142.168C143.224 142.066 147.576 145.009 152.876 148.742C158.175 152.473 162.413 155.58 162.341 155.681Z" fill="#263238"/>
<path d="M145.232 113.878C145.243 113.867 145.354 113.95 145.558 114.116C145.798 114.322 146.086 114.569 146.433 114.866C147.235 115.577 148.304 116.524 149.6 117.673C152.317 120.097 155.974 123.36 160.017 126.967C164.077 130.556 167.75 133.804 170.478 136.216C171.771 137.367 172.838 138.317 173.639 139.03C173.974 139.339 174.253 139.596 174.485 139.81C174.675 139.992 174.771 140.094 174.76 140.105C174.75 140.117 174.636 140.039 174.426 139.879C174.179 139.682 173.881 139.446 173.525 139.162C172.747 138.533 171.635 137.609 170.269 136.456C167.538 134.15 163.798 130.924 159.719 127.302C155.642 123.68 151.997 120.348 149.385 117.907C148.08 116.687 147.03 115.691 146.313 114.995C145.989 114.674 145.72 114.406 145.495 114.184C145.313 113.994 145.222 113.889 145.232 113.878Z" fill="#263238"/>
<path d="M172.059 114.661C172.083 114.641 172.291 114.854 172.644 115.256C172.998 115.657 173.494 116.252 174.092 116.998C175.289 118.49 176.882 120.603 178.531 123.012C180.179 125.424 181.57 127.674 182.526 129.331C183.005 130.16 183.379 130.837 183.624 131.313C183.87 131.789 183.994 132.059 183.968 132.073C183.911 132.106 183.28 131.106 182.256 129.496C181.233 127.884 179.804 125.669 178.162 123.265C176.518 120.863 174.972 118.729 173.841 117.191C172.711 115.652 172.008 114.702 172.059 114.661Z" fill="#263238"/>
<g opacity="0.2">
<path d="M137.688 107.348L175.101 140.106L184.401 132.664L162.69 99.3971C162.69 99.3971 161.027 100.621 156.704 101.856C152.517 103.053 140.186 103.373 137.688 107.348Z" fill="black"/>
</g>
<g opacity="0.2">
<path d="M179.334 79.6368L197.605 125.365L209.277 121.707L205.388 82.0465C205.388 82.0465 203.377 82.5169 198.917 81.9502C194.596 81.4006 184.109 77.3002 179.334 79.6368Z" fill="black"/>
</g>
<g opacity="0.3">
<path d="M228.047 70.0614L229.272 119.72L240.216 120.245L251.295 82.1324C251.085 82.1135 248.225 81.619 244.853 79.4638C241.063 77.0429 233.347 69.6667 228.047 70.0614Z" fill="black"/>
</g>
<g opacity="0.2">
<path d="M275.759 79.4436L257.604 125.223L267.488 129.949L292.472 99.1084C292.285 99.0095 289.917 97.0375 287.728 93.5296C285.347 89.7138 281.29 80.9719 275.759 79.4436Z" fill="black"/>
</g>
<g opacity="0.2">
<path d="M318.395 108.011L284.578 143.251L292.115 153.408L325.156 131.355C325.156 131.355 323.768 129.155 322.983 124.921C322.188 120.638 322.072 112.835 318.395 108.011Z" fill="black"/>
</g>
<g opacity="0.2">
<path d="M345.09 147.793L299.553 166.534L303.331 178.169L342.949 173.869C342.949 173.869 342.702 172.645 343.222 168.179C343.727 163.852 348.27 154.189 345.09 147.793Z" fill="black"/>
</g>
<g opacity="0.2">
<path d="M355.167 197.402L305.524 199.14L305.111 210.088L342.981 221.167C342.998 220.956 343.336 218.817 344.483 216.647C347.271 211.374 355.167 203.94 355.167 197.402Z" fill="black"/>
</g>
<g opacity="0.2">
<path d="M346.024 244.344L300.315 226.529L295.691 236.462L326.788 261.126C326.885 260.937 328.702 259.254 332.186 257.028C335.978 254.608 344.972 250.699 346.024 244.344Z" fill="black"/>
</g>
<g opacity="0.2">
<path d="M278.792 243.636L267.479 253.131C268.335 254.027 283.414 279.653 292.704 295.496C292.832 295.402 292.952 295.293 293.082 295.205C299.202 291.108 310.088 292.75 316.226 288.699L278.792 243.636Z" fill="black"/>
<path d="M258.001 261.596L241.108 267.355L249.106 313.214C249.634 313.03 250.163 312.878 250.697 312.773C258.662 311.197 269.162 318.131 276.491 315.092C277.498 314.674 278.409 314.076 279.259 313.363L258.001 261.596Z" fill="black"/>
<path d="M227.155 324.734L229.854 264.825L215.25 261.126L204.383 312.707C204.517 312.728 204.652 312.746 204.785 312.772C212.33 314.265 219.224 324.256 227.155 324.734Z" fill="black"/>
<path d="M190.433 254.655C190.433 254.655 171.133 280.504 161.044 294.426C161.516 294.661 161.97 294.918 162.399 295.205C169.027 299.643 171.534 312.001 178.991 315.092C179.334 315.234 179.684 315.348 180.04 315.448L207 264.417L190.433 254.655Z" fill="black"/>
<path d="M170.627 233.841L129.468 262.131C129.625 262.335 129.797 262.531 129.939 262.743C134.41 269.422 132.025 281.793 137.688 287.455C138.209 287.976 138.802 288.41 139.427 288.806C153.972 272.412 180.081 242.988 181.027 241.966L170.627 233.841Z" fill="black"/>
<path d="M161.197 213.644L112.534 221.504C113.309 229.309 107.156 239.169 110.052 246.151C110.229 246.579 110.444 246.985 110.679 247.381C127.708 238.902 163.29 221.265 164.77 221.167L161.197 213.644Z" fill="black"/>
<path d="M158.539 186.538L112.537 173.262C112.498 173.662 112.447 174.058 112.37 174.447C110.841 182.178 100.386 189.224 100.386 197.403C100.386 197.952 100.436 198.495 100.524 199.035H156.676L158.539 186.538Z" fill="black"/>
<path d="M110.237 148.287C127.427 157.5 161.044 176.135 161.044 176.135L169.318 160.424L130.457 131.166C130.291 131.469 130.129 131.777 129.938 132.061C125.577 138.576 113.582 141.12 110.237 148.287Z" fill="black"/>
</g>
<path d="M355.096 197.402C355.096 197.402 355.074 197.219 355.041 196.858C354.995 196.498 355.011 195.95 354.814 195.258C354.544 193.855 353.758 191.838 352.237 189.493C350.76 187.117 348.522 184.465 346.188 181.1C345.05 179.408 343.867 177.498 343.234 175.206C342.604 172.909 342.724 170.324 343.219 167.717C343.694 165.095 344.475 162.395 345.159 159.53C345.791 156.681 346.472 153.569 345.837 150.401C345.499 148.837 344.756 147.345 343.7 146.049C342.632 144.757 341.292 143.672 339.875 142.655C337.021 140.629 333.742 139.007 330.6 136.894C329.038 135.833 327.487 134.651 326.212 133.143C324.922 131.639 324.087 129.763 323.524 127.823C322.418 123.913 322.175 119.727 321.335 115.546C320.906 113.466 320.327 111.351 319.216 109.477C318.129 107.586 316.371 106.124 314.318 105.238C312.269 104.329 310.018 103.858 307.741 103.481C305.459 103.106 303.126 102.84 300.78 102.424C298.444 102.004 296.049 101.45 293.886 100.253C291.71 99.0645 290.01 97.1536 288.585 95.1189C287.157 93.0678 285.93 90.8662 284.623 88.6929C283.314 86.5266 281.938 84.3482 280.153 82.4966C278.37 80.6623 275.992 79.3422 273.37 79.1702C270.759 78.9758 268.113 79.4755 265.506 80.0938C262.892 80.7216 260.275 81.4853 257.563 81.9944C254.875 82.519 251.983 82.7039 249.258 81.8387C246.573 80.9065 244.205 79.2785 241.92 77.6015C239.63 75.9168 237.393 74.122 234.941 72.6324C232.501 71.1911 229.715 69.9897 226.818 70.3147L226.28 70.356C226.103 70.3861 225.928 70.4326 225.752 70.4695C225.401 70.553 225.044 70.6175 224.696 70.7155C224.015 70.9666 223.316 71.1704 222.666 71.5101C221.33 72.1035 220.087 72.9076 218.854 73.7229C216.404 75.393 214.095 77.3108 211.587 79.0145C210.346 79.884 209.017 80.6468 207.629 81.303C206.224 81.9359 204.699 82.3178 203.15 82.4347C200.037 82.5869 196.976 81.8843 193.976 81.1275C190.969 80.3742 187.961 79.5107 184.858 79.2132C183.31 79.0833 181.742 79.1487 180.24 79.5236C178.728 79.8874 177.386 80.7465 176.196 81.7459C173.824 83.8159 172.166 86.6006 170.517 89.3388C168.873 92.0925 167.311 94.9641 165.127 97.4357C164.025 98.6492 162.751 99.756 161.258 100.505C159.765 101.238 158.174 101.728 156.565 102.108C153.332 102.818 150.029 103.121 146.775 103.71C143.557 104.295 140.208 105.21 137.822 107.523C136.674 108.702 135.87 110.177 135.28 111.728C134.677 113.281 134.331 114.933 134.026 116.589C133.423 119.907 133.145 123.314 132.341 126.664C131.958 128.338 131.383 129.996 130.511 131.509C129.637 133.021 128.426 134.332 127.064 135.409C124.346 137.593 121.256 139.21 118.303 141.018C116.831 141.929 115.377 142.876 114.038 143.971C112.721 145.081 111.524 146.356 110.703 147.861C109.872 149.357 109.492 151.084 109.505 152.817C109.499 154.551 109.759 156.287 110.109 158.006C110.837 161.444 111.928 164.83 112.51 168.364C112.814 170.125 112.923 171.946 112.687 173.745C112.456 175.55 111.759 177.266 110.891 178.844C109.099 181.987 106.76 184.743 104.687 187.669C103.639 189.125 102.673 190.643 101.913 192.258C101.159 193.868 100.625 195.604 100.612 197.382C100.623 199.161 101.145 200.899 101.897 202.511C102.651 204.13 103.62 205.647 104.666 207.105C106.738 210.034 109.081 212.787 110.874 215.931C111.745 217.508 112.447 219.221 112.685 221.027C112.926 222.826 112.819 224.649 112.515 226.411C111.937 229.947 110.844 233.335 110.116 236.773C109.766 238.492 109.503 240.228 109.505 241.963C109.486 243.697 109.869 245.424 110.694 246.923C111.51 248.431 112.706 249.708 114.023 250.82C115.362 251.914 116.814 252.865 118.287 253.776C121.241 255.585 124.332 257.202 127.052 259.384C128.413 260.462 129.628 261.77 130.504 263.281C131.379 264.793 131.954 266.452 132.338 268.125C133.145 271.475 133.422 274.884 134.024 278.202C134.328 279.858 134.675 281.51 135.277 283.064C135.867 284.615 136.667 286.094 137.817 287.273C140.2 289.59 143.55 290.506 146.768 291.091C150.023 291.681 153.327 291.985 156.56 292.694C158.171 293.073 159.761 293.563 161.254 294.295C162.747 295.045 164.022 296.151 165.125 297.364C167.31 299.836 168.872 302.708 170.517 305.462C172.167 308.2 173.825 310.986 176.197 313.057C177.387 314.056 178.729 314.915 180.242 315.28C181.744 315.655 183.312 315.72 184.86 315.59C187.963 315.292 190.972 314.428 193.98 313.675C196.98 312.918 200.041 312.216 203.155 312.369C204.704 312.486 206.23 312.869 207.634 313.502C209.022 314.159 210.351 314.922 211.592 315.791C214.1 317.496 216.409 319.414 218.86 321.084C220.093 321.899 221.336 322.703 222.673 323.296C223.323 323.636 224.023 323.839 224.704 324.09C225.052 324.188 225.408 324.253 225.759 324.336C225.936 324.373 226.111 324.421 226.288 324.45L226.826 324.491C229.724 324.815 232.509 323.611 234.948 322.17C237.401 320.679 239.638 318.885 241.927 317.199C244.214 315.523 246.581 313.893 249.267 312.964C251.994 312.099 254.884 312.287 257.573 312.812C260.285 313.321 262.902 314.086 265.516 314.714C268.125 315.331 270.77 315.83 273.381 315.635C276.002 315.459 278.38 314.138 280.161 312.302C281.946 310.449 283.322 308.27 284.63 306.104C285.937 303.93 287.164 301.73 288.592 299.678C290.019 297.644 291.72 295.734 293.897 294.547C296.061 293.351 298.457 292.8 300.792 292.38C303.138 291.964 305.471 291.698 307.753 291.324C310.03 290.945 312.281 290.474 314.329 289.563C316.381 288.676 318.139 287.211 319.224 285.32C320.334 283.444 320.911 281.33 321.339 279.249C322.178 275.069 322.422 270.882 323.529 266.974C324.092 265.033 324.929 263.159 326.22 261.655C327.496 260.148 329.048 258.967 330.611 257.907C333.753 255.794 337.031 254.172 339.885 252.146C341.301 251.129 342.64 250.042 343.707 248.751C344.763 247.454 345.504 245.961 345.84 244.397C346.207 242.832 346.112 241.235 345.972 239.711C345.82 238.177 345.477 236.705 345.16 235.269C344.475 232.405 343.695 229.705 343.22 227.083C342.726 224.477 342.607 221.891 343.238 219.596C343.871 217.304 345.054 215.394 346.192 213.703C348.526 210.338 350.765 207.688 352.24 205.312C353.762 202.966 354.548 200.95 354.817 199.547C355.014 198.855 354.997 198.307 355.043 197.948C355.074 197.585 355.096 197.402 355.096 197.402C355.096 197.402 355.089 197.585 355.065 197.947C355.026 198.308 355.05 198.858 354.86 199.555C354.605 200.967 353.828 202.999 352.315 205.358C350.847 207.748 348.616 210.413 346.3 213.776C345.172 215.466 344.002 217.37 343.385 219.634C342.77 221.899 342.891 224.456 343.39 227.051C343.869 229.659 344.655 232.353 345.347 235.222C345.668 236.663 346.016 238.139 346.173 239.687C346.318 241.224 346.418 242.839 346.048 244.439C345.709 246.037 344.951 247.569 343.879 248.89C342.795 250.206 341.442 251.307 340.017 252.334C337.147 254.377 333.867 256.007 330.748 258.112C329.198 259.168 327.665 260.34 326.417 261.82C325.157 263.291 324.34 265.125 323.786 267.046C322.693 270.915 322.454 275.095 321.617 279.304C321.188 281.4 320.609 283.543 319.474 285.468C318.366 287.41 316.542 288.932 314.45 289.837C312.361 290.768 310.088 291.244 307.802 291.627C305.511 292.007 303.178 292.276 300.847 292.692C298.525 293.111 296.159 293.663 294.053 294.831C291.939 295.985 290.276 297.849 288.863 299.868C287.45 301.901 286.227 304.097 284.919 306.277C283.608 308.451 282.225 310.65 280.406 312.543C278.599 314.421 276.109 315.806 273.411 315.986C270.73 316.189 268.053 315.68 265.432 315.063C262.806 314.434 260.192 313.674 257.506 313.172C254.838 312.652 252.017 312.48 249.383 313.317C246.771 314.223 244.427 315.83 242.151 317.504C239.869 319.185 237.628 320.987 235.145 322.499C234.506 322.844 233.895 323.245 233.22 323.533C232.887 323.684 232.56 323.852 232.221 323.992L231.181 324.36C229.779 324.786 228.279 325.073 226.79 324.878L226.231 324.834C226.047 324.805 225.866 324.756 225.684 324.718C225.321 324.633 224.952 324.565 224.592 324.465C223.893 324.208 223.172 323.998 222.509 323.652C221.142 323.045 219.884 322.232 218.638 321.41C216.168 319.728 213.854 317.809 211.367 316.122C210.136 315.259 208.828 314.511 207.47 313.868C206.097 313.252 204.633 312.887 203.128 312.772C200.101 312.624 197.071 313.314 194.079 314.071C191.079 314.823 188.056 315.696 184.895 316.001C183.316 316.134 181.699 316.071 180.134 315.68C178.553 315.299 177.15 314.403 175.923 313.372C173.478 311.236 171.812 308.421 170.154 305.677C168.507 302.92 166.947 300.064 164.809 297.648C163.728 296.461 162.502 295.4 161.06 294.675C159.612 293.966 158.053 293.485 156.465 293.111C153.27 292.411 149.972 292.107 146.689 291.514C145.053 291.198 143.402 290.86 141.827 290.237C140.255 289.629 138.738 288.786 137.507 287.577C136.301 286.342 135.473 284.806 134.868 283.216C134.251 281.622 133.901 279.948 133.593 278.278C132.986 274.934 132.707 271.531 131.91 268.227C131.531 266.575 130.967 264.958 130.122 263.501C129.278 262.046 128.111 260.783 126.772 259.724C124.103 257.582 121.023 255.967 118.054 254.152C116.571 253.235 115.103 252.275 113.737 251.16C112.393 250.025 111.155 248.709 110.301 247.132C109.437 245.564 109.039 243.746 109.059 241.966C109.056 240.182 109.325 238.416 109.678 236.68C110.414 233.212 111.504 229.828 112.073 226.339C112.373 224.601 112.473 222.823 112.241 221.087C112.012 219.35 111.338 217.698 110.483 216.148C108.722 213.059 106.388 210.311 104.301 207.362C103.248 205.895 102.264 204.356 101.491 202.699C100.721 201.048 100.175 199.245 100.164 197.381C100.178 195.515 100.735 193.716 101.507 192.068C102.285 190.415 103.267 188.876 104.321 187.411C106.41 184.465 108.741 181.716 110.5 178.627C111.352 177.075 112.022 175.422 112.244 173.685C112.472 171.95 112.369 170.172 112.069 168.435C111.496 164.948 110.407 161.565 109.673 158.098C109.32 156.361 109.054 154.596 109.061 152.812C109.045 151.033 109.441 149.215 110.312 147.649C111.17 146.076 112.41 144.762 113.756 143.63C115.12 142.513 116.59 141.556 118.072 140.64C121.04 138.825 124.119 137.211 126.785 135.068C128.124 134.009 129.289 132.744 130.131 131.288C130.972 129.829 131.537 128.213 131.914 126.56C132.709 123.258 132.989 119.856 133.596 116.512C133.904 114.843 134.254 113.169 134.872 111.576C135.477 109.987 136.309 108.453 137.514 107.217C138.746 106.011 140.264 105.171 141.836 104.563C143.412 103.942 145.062 103.603 146.698 103.287C149.98 102.695 153.276 102.392 156.471 101.691C158.059 101.317 159.618 100.835 161.064 100.126C162.506 99.4017 163.731 98.3387 164.811 97.1528C166.949 94.7379 168.509 91.8818 170.155 89.1247C171.812 86.3804 173.479 83.5665 175.923 81.4311C177.15 80.4008 178.553 79.5047 180.134 79.1237C181.698 78.7333 183.315 78.6705 184.894 78.8029C188.054 79.1082 191.077 79.9811 194.076 80.7328C197.069 81.4904 200.098 82.1802 203.125 82.0331C204.628 81.9179 206.093 81.5541 207.465 80.9375C208.822 80.2959 210.131 79.5477 211.363 78.6851C213.85 76.9978 216.163 75.08 218.632 73.3978C219.878 72.5748 221.136 71.7621 222.503 71.1558C223.166 70.8101 223.886 70.5985 224.585 70.3423C224.944 70.2408 225.313 70.1737 225.676 70.0877C225.858 70.049 226.04 70.0017 226.223 69.9707L226.782 69.9269C228.271 69.7317 229.771 70.018 231.173 70.442L232.214 70.811C232.553 70.9494 232.879 71.1171 233.213 71.2685C233.888 71.5566 234.499 71.9565 235.138 72.3022C237.622 73.8132 239.862 75.6149 242.144 77.2962C244.42 78.9706 246.763 80.5771 249.374 81.4844C252.007 82.3221 254.828 82.1526 257.497 81.6332C260.183 81.131 262.797 80.3716 265.423 79.7421C268.043 79.1246 270.719 78.6155 273.401 78.8167C276.099 78.9913 278.588 80.3767 280.399 82.2515C282.218 84.1435 283.602 86.3426 284.913 88.5166C286.221 90.6967 287.444 92.8932 288.856 94.9262C290.267 96.9455 291.93 98.8108 294.042 99.9667C296.148 101.135 298.514 101.69 300.835 102.109C303.166 102.525 305.499 102.794 307.79 103.173C310.076 103.555 312.349 104.031 314.439 104.961C316.531 105.864 318.357 107.384 319.467 109.324C320.604 111.248 321.184 113.391 321.612 115.486C322.452 119.695 322.69 123.875 323.78 127.746C324.336 129.667 325.151 131.501 326.409 132.973C327.657 134.454 329.189 135.627 330.739 136.684C333.857 138.79 337.138 140.419 340.008 142.462C341.433 143.489 342.786 144.588 343.87 145.904C344.943 147.225 345.703 148.756 346.043 150.354C346.415 151.954 346.314 153.57 346.171 155.107C346.014 156.654 345.667 158.132 345.346 159.572C344.653 162.441 343.867 165.136 343.388 167.744C342.89 170.339 342.767 172.896 343.381 175.162C343.998 177.426 345.168 179.331 346.296 181.022C348.612 184.385 350.844 187.05 352.312 189.441C353.824 191.8 354.602 193.833 354.857 195.245C355.047 195.942 355.023 196.492 355.062 196.853C355.09 197.219 355.096 197.402 355.096 197.402Z" fill="#263238"/>
<path d="M203.856 315.584C203.975 315.614 200.801 328.485 196.766 344.327C192.73 360.174 189.361 372.992 189.242 372.961C189.122 372.93 192.295 360.063 196.331 344.216C200.367 328.375 203.736 315.554 203.856 315.584Z" fill="#263238"/>
<path d="M227.742 275.469C270.858 275.469 305.81 240.517 305.81 197.402C305.81 154.286 270.858 119.334 227.742 119.334C184.627 119.334 149.675 154.286 149.675 197.402C149.675 240.517 184.627 275.469 227.742 275.469Z" fill="white"/>
<path d="M179.673 170.351C178.596 171.428 172.676 182.192 172.137 191.072C171.599 199.953 172.875 249.826 172.875 249.826L173.106 253.131C187.161 269.566 238.241 294.023 284.254 253.048L286.832 222.374L279.24 157.435L252.868 150.976L246.684 140.953L205.468 150.602L201.793 159.293L179.673 170.351Z" fill="#455A64"/>
<path d="M243.828 114.841C245.643 108.094 247.428 101.299 248.056 94.3409C248.683 87.3827 248.102 80.1931 245.335 73.7783C244.915 72.8057 241.431 66.317 240.384 66.4744C239.635 66.5879 241.89 72.6922 241.543 73.3655C238.234 79.7872 237.634 87.3362 238.584 94.4966C239.534 101.659 241.363 108.051 243.828 114.841Z" fill="#263238"/>
<path d="M243.143 88.186C242.81 70.6678 232.338 56.2602 214.836 57.078L213.222 57.2475C196.99 58.9589 184.787 72.8436 185.187 89.1621C185.56 104.344 186.167 121.114 187.118 129.18C189.087 145.876 206.084 146.714 206.084 146.714C206.121 146.712 206.863 157.695 206.863 157.695L214.045 165.498L247.337 144.878L243.143 88.186Z" fill="#EBEBEB"/>
<path d="M206.08 146.841C206.08 146.841 216.684 146.348 227.171 138.111C227.171 138.111 223.658 153.255 206.816 153.508L206.08 146.841Z" fill="#EBEBEB"/>
<path d="M194.8 102.779C194.888 104.044 196.034 105.013 197.356 104.945C198.677 104.877 199.679 103.799 199.591 102.533C199.502 101.268 198.358 100.297 197.037 100.365C195.714 100.433 194.712 101.514 194.8 102.779Z" fill="#263238"/>
<path d="M189.492 95.7248C189.82 96.0052 191.488 94.4752 194.058 94.2112C196.621 93.9102 198.646 95.0334 198.892 94.6894C199.014 94.5363 198.653 94.0057 197.77 93.494C196.899 92.984 195.459 92.5505 193.859 92.726C192.261 92.904 190.976 93.6342 190.266 94.3196C189.539 95.0093 189.331 95.601 189.492 95.7248Z" fill="#263238"/>
<path d="M217.496 100.854C217.584 102.119 218.729 103.088 220.052 103.02C221.373 102.952 222.375 101.874 222.287 100.608C222.198 99.3426 221.053 98.3725 219.732 98.4396C218.409 98.5084 217.408 99.5886 217.496 100.854Z" fill="#263238"/>
<path d="M214.767 94.1113C215.096 94.3908 216.766 92.8617 219.335 92.5977C221.898 92.2975 223.923 93.4198 224.169 93.0758C224.291 92.9219 223.934 92.3921 223.046 91.8813C222.176 91.3705 220.735 90.937 219.136 91.1125C217.536 91.2905 216.252 92.0215 215.542 92.706C214.818 93.3958 214.608 93.9874 214.767 94.1113Z" fill="#263238"/>
<path d="M207.632 114.826C207.629 114.679 206.002 114.571 203.379 114.513C202.716 114.515 202.082 114.45 201.923 114.014C201.719 113.556 201.919 112.82 202.156 112.023C202.606 110.371 203.077 108.638 203.569 106.822C205.515 99.4254 206.849 93.371 206.55 93.2953C206.251 93.2196 204.433 99.1536 202.488 106.55C202.025 108.373 201.581 110.11 201.16 111.772C200.99 112.544 200.652 113.435 201.091 114.383C201.319 114.856 201.838 115.16 202.271 115.23C202.705 115.313 203.075 115.282 203.402 115.267C206.021 115.132 207.638 114.973 207.632 114.826Z" fill="#263238"/>
<path d="M215.377 115.807C214.957 115.827 215.245 118.617 213.067 120.847C210.893 123.084 207.888 123.084 207.907 123.476C207.887 123.655 208.626 123.949 209.885 123.851C211.12 123.763 212.876 123.177 214.209 121.813C215.537 120.445 215.992 118.76 215.967 117.606C215.95 116.429 215.566 115.771 215.377 115.807Z" fill="#263238"/>
<path d="M213.802 83.6717C214.128 84.3442 216.659 83.7422 219.711 83.7878C222.765 83.7723 225.289 84.3984 225.623 83.7301C225.769 83.4119 225.277 82.7988 224.222 82.226C223.177 81.6532 221.555 81.1751 219.724 81.1648C217.893 81.1579 216.266 81.6197 215.215 82.1821C214.157 82.7437 213.658 83.3517 213.802 83.6717Z" fill="#263238"/>
<path d="M189.645 87.0717C190.159 87.6074 191.865 86.8154 193.99 86.5625C196.105 86.2357 197.961 86.5402 198.312 85.8857C198.463 85.571 198.117 85.0163 197.272 84.5467C196.437 84.078 195.092 83.765 193.634 83.9636C192.176 84.164 190.965 84.8262 190.288 85.503C189.6 86.1807 189.416 86.8076 189.645 87.0717Z" fill="#263238"/>
<path d="M243.083 100.711C243.355 100.558 254.213 96.1019 255.052 107.571C255.892 119.04 244.204 117.517 244.161 117.19C244.117 116.862 243.083 100.711 243.083 100.711Z" fill="#EBEBEB"/>
<path d="M247.338 112.59C247.385 112.55 247.549 112.715 247.897 112.845C248.238 112.972 248.811 113.034 249.393 112.767C250.572 112.233 251.451 110.236 251.355 108.164C251.308 107.118 251.016 106.14 250.586 105.345C250.174 104.531 249.589 103.985 248.971 103.921C248.354 103.825 247.949 104.222 247.832 104.554C247.703 104.886 247.792 105.11 247.732 105.134C247.702 105.165 247.472 104.96 247.529 104.48C247.56 104.248 247.674 103.968 247.928 103.728C248.187 103.485 248.583 103.34 249.012 103.356C249.901 103.352 250.756 104.107 251.229 104.981C251.751 105.856 252.102 106.952 252.156 108.128C252.251 110.444 251.226 112.694 249.603 113.294C248.812 113.564 248.121 113.369 247.754 113.124C247.378 112.865 247.299 112.614 247.338 112.59Z" fill="#EBEBEB"/>
<path d="M191.39 69.6732C189.467 68.7685 194.653 62.395 199.084 60.03C205.781 56.4559 216.19 53.8509 222.667 55.2458C230.464 56.9237 237.071 60.325 241.364 67.0468C245.657 73.7685 247.625 81.7966 247.914 89.7671C248.002 92.1992 247.913 94.7465 246.749 96.8827C245.309 99.5229 242.336 101.319 242.696 104.81C242.828 106.086 242.546 107.401 241.73 108.39C239.774 110.76 237.07 108.826 235.754 106.798C232.941 102.465 232.315 97.1167 231.762 91.9816C231.368 88.3318 230.98 84.6028 231.786 81.0209C232.223 79.0721 233.009 77.2068 233.339 75.2365C233.668 73.2663 233.468 71.0673 232.157 69.5597C231.944 69.3146 231.598 69.0101 231.164 68.6765C227.731 66.0371 223.126 65.4773 219.145 67.1809C212.83 69.883 202.014 74.0085 198.99 72.0004C194.64 69.1125 193.516 67.119 193.516 67.119L191.39 69.6732Z" fill="#263238"/>
<path d="M179.672 170.351C179.008 171.271 169.607 174.391 166.041 180.332C162.476 186.273 158.947 212.951 158.947 212.951L156.678 230.513C161.15 237.588 167.147 246.953 173.512 253.559L179.672 170.351Z" fill="#455A64"/>
<g opacity="0.3">
<path d="M250.3 196.108C250.695 199.687 251.1 203.306 252.331 206.69C253.563 210.074 255.721 213.253 258.872 214.995C260.192 215.726 261.681 216.207 262.785 217.234C263.972 218.337 264.57 219.938 265.644 221.151C266.894 222.563 268.693 223.349 270.469 223.977C275.727 225.839 280.907 226.728 286.483 226.528C286.651 224.688 286.663 217.926 286.832 216.086L250.3 196.108Z" fill="black"/>
</g>
<path d="M279.241 157.434C279.241 157.434 291.094 160.94 294.565 165.989C298.037 171.039 304.191 190.607 305.454 194.236C306.716 197.865 305.612 206.281 303.244 212.332C300.878 218.381 296.77 223.589 289.671 224.378C282.572 225.166 271.36 221.063 268.838 218.381C266.318 215.698 265.262 209.677 265.262 209.677C268.414 209.123 271.526 208.342 274.566 207.343" fill="#455A64"/>
<path d="M274.567 207.343C274.569 207.348 274.519 207.37 274.419 207.407C274.301 207.45 274.156 207.502 273.972 207.568C273.574 207.704 272.982 207.901 272.2 208.137C270.637 208.605 268.314 209.24 265.283 209.792L265.379 209.656C265.644 210.997 266.027 212.468 266.589 214.005C266.871 214.772 267.196 215.561 267.615 216.331C268.034 217.095 268.525 217.873 269.203 218.493C269.883 219.11 270.722 219.612 271.601 220.073C272.475 220.548 273.418 220.957 274.39 221.355C276.34 222.141 278.45 222.818 280.687 223.348C282.924 223.866 285.3 224.25 287.759 224.257C288.375 224.285 288.989 224.202 289.611 224.171C290.224 224.07 290.852 224.014 291.459 223.841C292.689 223.562 293.896 223.103 295.02 222.46C297.289 221.2 299.211 219.245 300.67 216.945C302.148 214.649 303.229 212.044 304.027 209.323C304.645 207.232 305.1 205.118 305.396 203.016C305.696 200.916 305.843 198.818 305.705 196.779C305.626 195.753 305.436 194.79 305.089 193.836C304.769 192.873 304.453 191.919 304.139 190.974C303.509 189.089 302.892 187.244 302.29 185.443C301.07 181.848 299.866 178.447 298.659 175.297C297.43 172.162 296.284 169.213 294.847 166.752C294.147 165.514 293.187 164.543 292.171 163.757C291.174 162.949 290.14 162.305 289.157 161.736C287.18 160.612 285.382 159.815 283.904 159.196C282.422 158.582 281.252 158.153 280.454 157.871C280.073 157.737 279.773 157.631 279.547 157.552C279.343 157.48 279.238 157.441 279.241 157.434C279.243 157.427 279.352 157.45 279.561 157.508C279.79 157.577 280.095 157.669 280.483 157.785C281.29 158.04 282.473 158.442 283.968 159.034C285.461 159.63 287.276 160.407 289.28 161.518C290.277 162.08 291.327 162.72 292.348 163.534C293.381 164.316 294.393 165.325 295.118 166.587C296.598 169.082 297.757 172.022 299.006 175.162C300.23 178.314 301.449 181.715 302.68 185.309C303.288 187.109 303.909 188.954 304.545 190.839C304.86 191.781 305.178 192.733 305.499 193.695C305.85 194.648 306.065 195.708 306.142 196.744C306.286 198.833 306.138 200.955 305.837 203.078C305.539 205.203 305.081 207.336 304.456 209.45C303.65 212.202 302.553 214.845 301.043 217.186C299.553 219.531 297.575 221.542 295.232 222.838C294.071 223.499 292.823 223.97 291.557 224.254C290.93 224.429 290.286 224.487 289.656 224.588C289.018 224.619 288.386 224.701 287.759 224.672C285.251 224.656 282.852 224.258 280.596 223.728C278.341 223.183 276.219 222.491 274.254 221.688C273.274 221.28 272.325 220.862 271.439 220.375C270.549 219.9 269.7 219.389 268.982 218.729C268.267 218.065 267.771 217.26 267.347 216.474C266.925 215.683 266.603 214.882 266.324 214.102C265.769 212.541 265.4 211.061 265.146 209.698L265.125 209.582L265.242 209.563C268.268 209.046 270.594 208.449 272.165 208.019C272.93 207.8 273.525 207.631 273.952 207.51C274.14 207.456 274.288 207.413 274.409 207.379C274.513 207.35 274.565 207.338 274.567 207.343Z" fill="#263238"/>
<path d="M296.31 201.006C296.223 201.026 295.953 199.546 294.958 197.364C293.986 195.184 292.238 192.303 289.609 189.771C288.3 188.499 286.845 187.532 285.453 186.812C285.095 186.652 284.746 186.495 284.405 186.343C284.066 186.186 283.709 186.121 283.378 186.009C282.717 185.768 282.067 185.71 281.48 185.617C281.333 185.595 281.19 185.572 281.049 185.551C280.909 185.552 280.771 185.552 280.636 185.552C280.372 185.552 280.119 185.552 279.878 185.553C279.401 185.523 279 185.61 278.669 185.657C278.007 185.754 277.633 185.794 277.625 185.764C277.617 185.734 277.976 185.637 278.64 185.485C278.972 185.411 279.378 185.297 279.865 185.302C280.111 185.291 280.37 185.279 280.641 185.267C280.78 185.262 280.921 185.256 281.066 185.25C281.211 185.267 281.359 185.283 281.511 185.301C282.118 185.375 282.792 185.419 283.478 185.651C283.821 185.758 284.195 185.821 284.546 185.975C284.899 186.126 285.262 186.281 285.633 186.44C287.078 187.16 288.582 188.146 289.918 189.446C292.605 192.033 294.337 194.994 295.248 197.236C295.482 197.797 295.684 198.308 295.813 198.774C295.954 199.236 296.089 199.628 296.143 199.965C296.28 200.632 296.34 201 296.31 201.006Z" fill="#263238"/>
<path d="M302.777 190.372C302.68 190.41 302.358 188.849 300.99 186.762C299.651 184.711 297.09 182.136 293.437 181.045C289.798 179.937 286.266 180.28 283.8 180.516C282.626 180.656 281.638 180.775 280.852 180.869C280.156 180.954 279.768 180.989 279.763 180.958C279.758 180.928 280.136 180.835 280.825 180.697C281.514 180.56 282.515 180.376 283.761 180.202C286.229 179.887 289.812 179.478 293.569 180.618C295.432 181.184 297.069 182.138 298.348 183.229C299.643 184.309 300.586 185.519 301.257 186.593C301.926 187.673 302.308 188.634 302.521 189.307C302.738 189.979 302.8 190.367 302.777 190.372Z" fill="#263238"/>
<path d="M293.841 177.648C293.81 177.794 290.72 176.799 286.796 176.974C282.868 177.107 279.868 178.342 279.825 178.198C279.805 178.15 280.523 177.78 281.766 177.385C283.005 176.988 284.783 176.607 286.778 176.526C288.772 176.45 290.574 176.69 291.841 176.988C293.112 177.286 293.857 177.599 293.841 177.648Z" fill="#263238"/>
<path d="M274.663 160.392C274.733 160.403 274.562 161.601 274.424 163.543C274.285 165.484 274.221 168.178 274.487 171.133C274.731 173.976 275.245 176.523 275.699 178.376L275.389 178.476C275.037 177.482 274.76 176.675 274.578 176.114C274.397 175.552 274.311 175.236 274.341 175.224C274.371 175.213 274.515 175.507 274.748 176.05C274.981 176.593 275.304 177.382 275.694 178.362L275.383 178.461C274.852 176.614 274.286 174.046 274.041 171.174C273.772 168.187 273.888 165.463 274.108 163.515C274.216 162.541 274.344 161.757 274.449 161.219C274.558 160.681 274.633 160.387 274.663 160.392Z" fill="#263238"/>
<path d="M257.906 138.327C257.906 138.327 251.753 138.327 250.982 145.721C250.389 151.396 250.982 156.906 250.982 159.391C250.982 161.876 249.887 170.715 249.887 170.715C249.887 170.715 245.689 174.439 245.761 178.911C245.832 183.406 249.029 184.78 249.029 184.78C249.029 184.78 247.076 189.041 250.804 192.947C250.804 192.947 249.016 197.069 250.486 199.845C251.623 201.995 254.177 202.712 254.177 202.712C254.177 202.712 252.358 206.775 256.723 208.482C259.303 209.492 263.117 209.268 263.117 209.268L267.708 209.179L271.754 211.412C271.754 211.412 278.678 208.393 278.856 204.31C279.033 200.226 279.033 200.226 279.033 200.226C279.033 200.226 277.08 193.48 276.903 191.35C276.726 189.219 278.501 184.071 277.435 181.762C276.37 179.454 272.642 178.098 272.997 174.87C273.352 171.643 272.642 169.867 271.044 168.092C269.446 166.317 262.384 162.766 262.384 162.766C262.384 162.766 260.568 157.617 260.568 154.066C260.569 150.514 264.12 139.684 257.906 138.327Z" fill="#EBEBEB"/>
<path d="M262.052 164.111C262.083 164.164 261.429 164.583 260.349 165.216C259.268 165.849 257.759 166.696 256.08 167.609C254.399 168.521 252.866 169.325 251.746 169.887C250.627 170.448 249.918 170.769 249.889 170.715C249.859 170.661 250.513 170.242 251.594 169.609C252.675 168.976 254.183 168.129 255.862 167.217C257.541 166.306 259.073 165.502 260.193 164.94C261.312 164.378 262.021 164.057 262.052 164.111Z" fill="#EBEBEB"/>
<path d="M266.089 178.011C266.107 178.036 265.915 178.206 265.552 178.492C265.191 178.781 264.645 179.168 263.951 179.618C262.564 180.519 260.547 181.621 258.185 182.528C255.821 183.43 253.583 183.957 251.949 184.213C251.132 184.342 250.468 184.418 250.006 184.444C249.545 184.474 249.289 184.476 249.285 184.445C249.277 184.374 250.287 184.236 251.892 183.902C253.497 183.57 255.691 183.001 258.025 182.11C260.357 181.215 262.37 180.173 263.787 179.348C265.203 178.525 266.047 177.954 266.089 178.011Z" fill="#EBEBEB"/>
<path d="M271.37 173.591C271.482 173.63 271.251 174.419 270.522 175.078C269.798 175.743 268.99 175.898 268.962 175.784C268.919 175.662 269.577 175.342 270.22 174.747C270.872 174.163 271.252 173.537 271.37 173.591Z" fill="#EBEBEB"/>
<path d="M268.839 190.189C268.857 190.241 267.885 190.636 266.265 191.131C264.645 191.626 262.37 192.196 259.816 192.609C257.26 193.018 254.92 193.19 253.227 193.228C251.534 193.267 250.487 193.197 250.487 193.141C250.487 193.073 251.531 193.031 253.212 192.912C254.892 192.794 257.208 192.573 259.744 192.167C262.279 191.758 264.547 191.241 266.18 190.825C267.813 190.412 268.817 190.124 268.839 190.189Z" fill="#EBEBEB"/>
<path d="M274.456 189.166C274.395 189.129 274.665 188.659 274.928 187.849C275.194 187.044 275.417 185.87 275.265 184.59C275.112 183.309 274.618 182.22 274.17 181.501C273.723 180.775 273.35 180.383 273.401 180.332C273.436 180.292 273.895 180.609 274.432 181.323C274.969 182.027 275.546 183.168 275.709 184.537C275.873 185.906 275.58 187.151 275.225 187.961C274.871 188.781 274.499 189.196 274.456 189.166Z" fill="#EBEBEB"/>
<path d="M269.158 202.638C269.169 202.693 268.341 202.926 266.971 203.154C265.603 203.383 263.687 203.581 261.565 203.576C259.443 203.569 257.529 203.361 256.161 203.124C254.793 202.888 253.966 202.65 253.978 202.596C253.991 202.53 254.837 202.657 256.205 202.81C257.573 202.965 259.468 203.121 261.566 203.128C263.664 203.133 265.559 202.987 266.928 202.84C268.298 202.694 269.145 202.571 269.158 202.638Z" fill="#EBEBEB"/>
<path d="M258.238 154.167C258.263 154.215 257.959 154.446 257.385 154.651C256.814 154.858 255.96 155.002 255.029 154.893C254.097 154.78 253.301 154.44 252.794 154.105C252.283 153.771 252.043 153.475 252.079 153.434C252.156 153.323 253.327 154.258 255.082 154.448C256.831 154.675 258.189 154.041 258.238 154.167Z" fill="#EBEBEB"/>
<path d="M275.735 189.686C275.761 189.684 275.812 189.918 275.834 190.35C275.846 190.783 275.791 191.411 275.62 192.164C275.454 192.916 275.171 193.785 274.9 194.745C274.642 195.7 274.391 196.782 274.578 197.876C274.726 198.964 275.54 199.847 275.668 200.952C275.814 202.039 275.385 202.959 274.993 203.612C274.583 204.275 274.172 204.745 273.882 205.06C273.589 205.373 273.41 205.528 273.388 205.509C273.319 205.457 273.979 204.755 274.717 203.456C275.062 202.808 275.411 201.949 275.26 201.012C275.156 200.078 274.332 199.197 274.136 197.953C273.93 196.735 274.22 195.596 274.502 194.63C274.801 193.659 275.112 192.811 275.312 192.086C275.742 190.637 275.658 189.691 275.735 189.686Z" fill="#EBEBEB"/>
<path d="M278.048 195.089C278.077 195.082 278.182 195.369 278.336 195.897C278.49 196.426 278.697 197.195 278.891 198.164C279.079 199.132 279.27 200.299 279.302 201.616C279.329 202.922 279.2 204.422 278.525 205.829C277.832 207.215 276.836 208.301 275.881 209.196C274.913 210.084 273.964 210.783 273.15 211.34C272.333 211.893 271.651 212.305 271.17 212.575C270.69 212.845 270.414 212.975 270.398 212.95C270.361 212.888 271.392 212.241 272.966 211.082C273.75 210.498 274.668 209.78 275.599 208.895C276.518 208.005 277.47 206.939 278.122 205.633C278.753 204.321 278.894 202.894 278.89 201.62C278.882 200.339 278.728 199.184 278.581 198.219C278.263 196.29 277.977 195.106 278.048 195.089Z" fill="#263238"/>
<path d="M213.157 166.464C213.137 166.487 212.784 166.221 212.161 165.719C211.481 165.156 210.605 164.432 209.555 163.562C209.003 163.096 208.406 162.593 207.77 162.056C207.451 161.786 207.127 161.51 206.756 161.328C206.389 161.146 205.973 161.098 205.605 161.288C204.862 161.676 204.367 162.629 203.733 163.419C203.121 164.245 202.487 165.098 201.839 165.973C200.799 167.364 199.799 168.701 198.877 169.934L198.32 170.678L198.497 169.768C199.101 166.656 199.943 164.06 200.637 162.265C200.984 161.367 201.289 160.665 201.511 160.19C201.735 159.716 201.87 159.466 201.892 159.475C201.915 159.486 201.823 159.754 201.642 160.244C201.461 160.735 201.196 161.448 200.886 162.355C200.266 164.165 199.484 166.757 198.915 169.846L198.535 169.68C199.451 168.443 200.445 167.102 201.479 165.705C202.13 164.833 202.766 163.981 203.381 163.157C203.69 162.746 203.994 162.342 204.291 161.946C204.598 161.552 204.942 161.149 205.428 160.916C205.916 160.667 206.512 160.749 206.931 160.975C207.363 161.196 207.699 161.5 208.014 161.776C208.638 162.327 209.223 162.844 209.763 163.323C210.776 164.236 211.62 164.996 212.276 165.588C212.862 166.129 213.177 166.441 213.157 166.464Z" fill="#263238"/>
<path d="M249.469 159.191C249.478 159.203 249.362 159.306 249.133 159.491C248.861 159.703 248.525 159.964 248.117 160.283C247.172 160.995 245.89 161.959 244.328 163.134C241.052 165.546 236.608 168.816 231.675 172.447L231.483 172.588L231.354 172.386C231.255 172.23 231.147 172.063 231.041 171.895C228.71 168.216 226.533 164.779 224.691 161.871L224.923 161.946C221.886 163.153 219.5 164.477 217.874 165.461C217.061 165.953 216.435 166.361 216.006 166.637C215.58 166.916 215.348 167.059 215.336 167.043C215.325 167.027 215.533 166.851 215.939 166.542C216.348 166.234 216.956 165.796 217.756 165.272C219.355 164.228 221.731 162.845 224.78 161.591L224.926 161.53L225.012 161.665C226.871 164.563 229.067 167.988 231.418 171.653C231.526 171.822 231.633 171.99 231.731 172.145L231.411 172.085C236.375 168.496 240.847 165.264 244.143 162.881C245.739 161.752 247.049 160.826 248.015 160.143C248.443 159.852 248.794 159.612 249.078 159.418C249.327 159.258 249.46 159.179 249.469 159.191Z" fill="#263238"/>
<path d="M172.288 193.392C172.303 193.392 172.319 193.601 172.335 193.999C172.347 194.442 172.363 195.02 172.383 195.74C172.412 197.304 172.452 199.477 172.502 202.141C172.604 207.545 172.82 215.008 173.101 223.252C173.38 231.499 173.547 238.971 173.568 244.378C173.577 247.082 173.572 249.27 173.546 250.782C173.531 251.502 173.519 252.08 173.509 252.523C173.495 252.921 173.482 253.13 173.466 253.13C173.451 253.13 173.435 252.921 173.419 252.523C173.407 252.08 173.391 251.502 173.372 250.782C173.342 249.218 173.302 247.045 173.252 244.382C173.15 238.977 172.934 231.514 172.653 223.267C172.374 215.023 172.208 207.553 172.186 202.145C172.178 199.441 172.183 197.252 172.209 195.74C172.224 195.02 172.236 194.442 172.246 193.999C172.259 193.601 172.272 193.392 172.288 193.392Z" fill="#263238"/>
<path d="M213.438 271.075C213.43 271.076 213.416 270.992 213.394 270.827C213.373 270.638 213.345 270.397 213.312 270.097C213.246 269.422 213.153 268.481 213.037 267.285C212.797 264.843 212.522 261.301 212.249 256.921C211.967 252.541 211.738 247.32 211.589 241.519C211.464 235.717 211.432 229.336 211.569 222.64C211.722 215.942 212.032 209.567 212.41 203.775C212.81 197.985 213.265 192.777 213.737 188.414C214.202 184.051 214.63 180.525 214.975 178.095C215.144 176.905 215.277 175.969 215.372 175.298C215.42 174.999 215.457 174.76 215.487 174.572C215.515 174.409 215.533 174.326 215.541 174.327C215.549 174.328 215.545 174.413 215.532 174.578C215.514 174.768 215.491 175.009 215.462 175.31C215.386 175.983 215.281 176.923 215.148 178.117C214.856 180.552 214.476 184.082 214.052 188.446C213.621 192.811 213.199 198.016 212.821 203.802C212.466 209.589 212.17 215.959 212.016 222.649C211.879 229.338 211.899 235.713 212.001 241.509C212.128 247.306 212.323 252.524 212.564 256.902C212.797 261.281 213.024 264.824 213.209 267.27C213.291 268.469 213.355 269.413 213.401 270.09C213.417 270.391 213.43 270.633 213.44 270.824C213.447 270.989 213.446 271.074 213.438 271.075Z" fill="#263238"/>
<path d="M187.815 130.304C187.815 130.304 187.511 130.516 186.907 130.912C186.295 131.311 185.395 131.895 184.219 132.66C183.038 133.429 181.672 134.518 180.005 135.726C179.183 136.347 178.358 137.091 177.443 137.846C176.989 138.228 176.522 138.621 176.038 139.027C175.563 139.442 175.106 139.906 174.618 140.364C170.71 144.002 166.269 148.887 162.179 155.296C161.678 156.103 161.168 156.922 160.649 157.756C160.11 158.579 159.692 159.489 159.196 160.373C158.727 161.272 158.205 162.162 157.759 163.107C157.325 164.059 156.884 165.024 156.437 166.003C156.219 166.495 155.975 166.98 155.775 167.487C155.58 167.997 155.385 168.512 155.188 169.028C154.8 170.065 154.384 171.107 154.004 172.178C153.368 174.36 152.564 176.557 152.085 178.9C150.893 183.53 150.236 188.519 149.97 193.722C149.67 198.929 149.98 204.379 150.875 209.921C152.685 220.988 157.051 232.512 164.473 242.755C171.798 253.03 182.152 261.967 194.586 267.841C206.992 273.751 221.511 276.305 236.009 274.802C250.53 273.298 264.131 267.583 275.025 259.228C277.772 257.161 280.293 254.863 282.717 252.519C283.3 251.91 283.881 251.303 284.462 250.697C285.049 250.097 285.616 249.481 286.153 248.842C286.7 248.211 287.245 247.582 287.789 246.954C288.303 246.301 288.816 245.65 289.327 245.002C293.415 239.802 296.64 234.131 299.188 228.361C301.732 222.578 303.416 216.608 304.453 210.72C304.987 207.776 305.28 204.838 305.475 201.942C305.567 200.494 305.565 199.053 305.614 197.626C305.587 196.199 305.509 194.784 305.46 193.38C305.433 192.678 305.405 191.98 305.378 191.284C305.336 190.59 305.222 189.904 305.149 189.219C304.983 187.849 304.82 186.491 304.657 185.146C304.444 183.808 304.135 182.499 303.883 181.194C303.615 179.892 303.39 178.592 302.986 177.35C302.626 176.097 302.269 174.857 301.916 173.629C301.757 173.009 301.54 172.413 301.308 171.823C301.086 171.232 300.865 170.644 300.645 170.058C300.187 168.895 299.813 167.712 299.299 166.602C298.782 165.495 298.269 164.4 297.763 163.318C293.611 154.7 288.279 147.735 282.926 142.359C277.553 136.971 272.148 133.193 267.595 130.412C266.435 129.746 265.341 129.117 264.312 128.526C263.806 128.215 263.284 127.975 262.784 127.739C262.283 127.501 261.801 127.271 261.336 127.049C260.406 126.606 259.548 126.197 258.763 125.823C257.987 125.429 257.226 125.205 256.577 124.934C255.269 124.426 254.269 124.039 253.588 123.775C252.915 123.512 252.574 123.366 252.574 123.366C252.574 123.366 252.925 123.483 253.603 123.732C254.289 123.987 255.295 124.361 256.611 124.85C257.263 125.115 258.028 125.333 258.808 125.721C259.598 126.09 260.459 126.493 261.393 126.93C261.86 127.148 262.345 127.376 262.848 127.611C263.352 127.844 263.876 128.081 264.385 128.39C265.419 128.977 266.52 129.601 267.685 130.262C272.263 133.027 277.697 136.794 283.104 142.183C288.492 147.559 293.862 154.535 298.049 163.18C298.56 164.265 299.076 165.363 299.598 166.474C300.115 167.588 300.494 168.775 300.956 169.942C301.178 170.529 301.4 171.12 301.625 171.713C301.858 172.304 302.077 172.904 302.238 173.525C302.595 174.758 302.956 176.003 303.321 177.261C303.728 178.508 303.956 179.814 304.228 181.122C304.483 182.432 304.796 183.747 305.012 185.09C305.177 186.441 305.344 187.805 305.513 189.181C305.588 189.87 305.703 190.559 305.746 191.256C305.774 191.955 305.804 192.657 305.833 193.361C305.884 194.771 305.964 196.193 305.993 197.627C305.945 199.061 305.949 200.509 305.859 201.964C305.667 204.873 305.375 207.826 304.843 210.787C303.808 216.706 302.12 222.709 299.569 228.525C297.012 234.329 293.773 240.033 289.667 245.264C289.153 245.917 288.638 246.572 288.121 247.228C287.574 247.86 287.026 248.492 286.477 249.127C285.938 249.771 285.368 250.39 284.777 250.993C284.194 251.603 283.61 252.215 283.024 252.827C280.589 255.186 278.054 257.498 275.292 259.577C264.341 267.984 250.661 273.736 236.058 275.249C221.477 276.761 206.874 274.188 194.4 268.239C181.898 262.326 171.494 253.333 164.139 242.997C156.687 232.693 152.312 221.104 150.509 209.982C149.618 204.411 149.315 198.936 149.625 193.706C149.9 188.481 150.571 183.472 151.777 178.826C152.264 176.474 153.075 174.269 153.719 172.081C154.103 171.007 154.524 169.962 154.916 168.923C155.114 168.404 155.312 167.889 155.508 167.377C155.71 166.868 155.957 166.382 156.176 165.889C156.628 164.907 157.073 163.939 157.51 162.986C157.96 162.038 158.486 161.147 158.959 160.246C159.46 159.36 159.882 158.448 160.425 157.625C160.948 156.79 161.462 155.969 161.968 155.161C166.091 148.745 170.563 143.865 174.499 140.237C174.99 139.782 175.45 139.319 175.928 138.906C176.414 138.502 176.886 138.11 177.343 137.73C178.264 136.98 179.095 136.238 179.921 135.622C181.6 134.422 182.976 133.344 184.166 132.586C185.355 131.837 186.262 131.264 186.88 130.874C187.495 130.49 187.815 130.304 187.815 130.304Z" fill="#263238"/>
</svg>
